<mxfile host="app.diagrams.net" modified="2023-12-12T13:42:08.272Z" agent="Mozilla/5.0 (Windows NT 10.0; Win64; x64) AppleWebKit/537.36 (KHTML, like Gecko) Chrome/120.0.0.0 Safari/537.36" etag="R9DqnuRSfn4srBJaJtJd" version="22.1.7" type="github" pages="2">
  <diagram name="on-prem" id="ZC7bsTnv69rYFZP5n8Un">
    <mxGraphModel dx="1494" dy="4066" grid="0" gridSize="10" guides="1" tooltips="1" connect="1" arrows="1" fold="1" page="1" pageScale="1" pageWidth="2339" pageHeight="3300" background="#000000" math="0" shadow="0">
      <root>
        <mxCell id="0" />
        <mxCell id="1" parent="0" />
        <mxCell id="3EpMYGW9OJJ_J2EonweR-2" value="" style="rounded=1;whiteSpace=wrap;html=1;fillColor=#647687;fontColor=#ffffff;strokeColor=#314354;" parent="1" vertex="1">
          <mxGeometry x="128" y="180" width="1219" height="270" as="geometry" />
        </mxCell>
        <mxCell id="3EpMYGW9OJJ_J2EonweR-25" value="" style="rounded=1;whiteSpace=wrap;html=1;fillColor=#e6d0de;strokeColor=#996185;gradientColor=#d5739d;opacity=30;" parent="1" vertex="1">
          <mxGeometry x="520" y="252" width="343" height="424" as="geometry" />
        </mxCell>
        <mxCell id="3EpMYGW9OJJ_J2EonweR-6" value="" style="shape=cylinder3;whiteSpace=wrap;html=1;boundedLbl=1;backgroundOutline=1;size=15;fillColor=none;strokeWidth=3;" parent="1" vertex="1">
          <mxGeometry x="163.01" y="227" width="140.99" height="203" as="geometry" />
        </mxCell>
        <mxCell id="3EpMYGW9OJJ_J2EonweR-4" value="" style="shape=image;verticalLabelPosition=bottom;labelBackgroundColor=default;verticalAlign=top;aspect=fixed;imageAspect=0;image=data:image/jpeg,/9j/4AAQSkZJRgABAQAAAQABAAD/2wCEAAkGBxAPEBUSEBASFhAWFxYWFhgYFhUXFhYWFxYXGSEYFRcdHSggGB4lGxUXLTEhJSorLi4uGB8zODMtNygtLisBCgoKDg0OGxAQGy0lHyYtLS0uLS0tNy0tLS8tLy0tLS8tLS0tLS0tLS0tLy0tLS0tLS0tLS0tLS0tLS0tLS0tLf/AABEIALMBGgMBIgACEQEDEQH/xAAcAAEAAgIDAQAAAAAAAAAAAAAABQYEBwECAwj/xABKEAACAgECAwMFCwoDBgcAAAABAgADBAURBhIhEzFBByJRYZEUFRYyQlNxgZOh0SNSVWJygpKisdIIM1QkQ3OUweElNWODo7LC/8QAGwEBAAMBAQEBAAAAAAAAAAAAAAECAwQGBQf/xAAyEQACAQMCBAIJBAMBAAAAAAAAAQIDBBESIQUxQWFRkRMUcYGhscHw8RUiMtEGQuEj/9oADAMBAAIRAxEAPwDeMREAREQBERAEREAREQBERAEREAREQBERAEREAREQBERAEREAREQBERAEREAREQBERAEREAREQBERAEREAREQBERAEREAREQBERAEREAREQBERAEREAREQBERAEREAREQBERAEREAREQBERAEREAREQBERAEREAREQBERAEREAREQBERAEREAREQBERAEREAREQBERAERON4BzE43kfq2s42GofJvrqU9BzsAWPoUd7H1DeASBla13W2xLOawsUYhKaa0DX5Fm25C7noo6bnu79yAOsXm8fJcwx9OpusyrAezaymyuhV8bnZgOZF38O87DvMjdNG2eWNmVk5aJyve3ZpSqliSlahdlG4O4Ho6kziu76lbL927w3heHmuuxaMWyZe/WLjuzY2Gh7kAORdt+s26op+jmnQ3arj+cl1WWo6tW6imxh49nYp5d9u4MAPWJK5ORspZ/kgk7Dc7D1eM4qYsoJBBI32PePpnjq/+Q3XpddNrRnk0vjzfvR0KjHG/MzNB1qnNrL1EhlPLYjDlsrf82xfA/ce8SVlC4hwa6ubMTIGLkqP84sAjDfolynzbF9R6jc7Ebzwr8oD5WPUuGie7GPLcXDvRQVOxPMCO15ztyBTuQwPcDPVWHFKV1RdT+On+WensfVGEoOLwbEnMrPDfEq5Fdi5JqqyabGqtXnAUkAMHTm68rKyn2jrtJv3zx/n6v40/GfSjJSSkuTKGXE8qrlcboysPSCCPaJ6ywEREAREQBERAETpZYFG7EAeknYTy921fO1/xL+MAyInhXlVsdldSfQGBM94AiIgCIiAIiIAiIgCIiAIiIAlb1ziJ8Z2UU8xBRKxzAG62wEhQfkKoDFm67BT0lkkHxRpBy6CtZVb1ZbKmO4AdT3MQNwrKWU9/RjKzzpenn09oKlpPHGTfjsipW+o2ZNtFKhWWpVRUY2nfzjWgcbse89PESQGnY2no2Tfvl5x2U2uAXexyAtdQPSpSxACju7zv1MiuANLNNuVZYpF1TJiLvYbeVUQWnlYgbA9qo6D5PrkrxLW6rTkIpc41wuNf56hHQ7frAOWHrX17zz97xX0dzTtk8Zxqbx16bNr5pZNYwymzMwsBqA9lzc+Zbs1z+A2+LVWPBF36DxO5PUmemLiipeg87br6z1P9TOmnalXlA2VHmq8H8GYjchfTtv19e48JmjvnkOI3VWrXlKosdvBLkvvxOmEcIw9Jyhfj1Wfn1ox+kqCfvkHquj512bVbXmtVRWUPZhQUZQTuG67szenuEzODD/siqO5HtRf2VtcD7gJNFgO89/d6z6pEqkrS5qKmlzlHdJ7Za6kYUkjA1zHe2o1oEPN0PMvMOvT4u/rJ+r1zG4W0tcbHFfKv5Oy4IQvLsvavtsPDpJmcdFHoAmMbqaoehXLOfa/xsTp3yaB8sGDzawEQedalX1sWZP8AoJd9Q4Z02iixziU7V1sdyv5q95+uVjKyF1HiRWTY10+PgeyBO4/fabC1LATJqemzm5HGzbHY7fTP1vgdCSsoKot9K5+z/qPP8SrNVoxTwubx7SxeTHTfcuk4ibbM1QtYbbedb+U2I9XMB9Utc0uOCcYDYW5ew/8AXf8AGcNwTj/PZf29n4zo9Sq9vMv+o0e/kbpifPPDnCjHKyq8jIyLKqigrItsXfmBbrse8Db2yxfAzF/Oyv8AmLv7pWNpUks7Fp31KDxv+TckTTfwMxfzsr/mLv7pyOEccdVty1bwIybtwfSPOl/UqnYr+o0e5uOJ86V6DnZ+ddXmZ19mPjsqb853bdQyqAOgPKRzHvlgXgHB9F/21n4ykLWpJZ+ZpUvqVN4ZNf4hNR7LS1pHffcin9lAXP8AMqSi+TThrGuwjbkUJYz2Nylhvsq7Dp9e/sk+/k909vjJafptc/1MntN0+rFpWmleWtN9hvv3ksdye/qTOihaOM8zwcd1fxnT008p+X1MXycaNQur5b0VIiUUVVeaNvylpZj9eyfeJtifPOg8MNnW3Zt19qVXWM1aVuylkBIDOR6h0EnfgRjfPZf29n4zH1apUepLZnR65TpJQk22uf1N0xNLfAjG+dy/t7PxnTJ4UNCNZh5mXVegLK3bOw3A32ZSdiDtIdnUS6Ex4hRbxubsifO/C/DuVnoMvPzcpu03ZFFr78p+UTv0B8ANukn/AIEY3zuX9vZ+MiFpUkslql9ShLTubpiaW+A+N87l/b2fjMHWuCk7Bzj5OStqqWXe5ypIG+x69N/TLSs6iWSseIUW8bm94mhOG+E67sSmy+7KNroGba6wDzuoG2/o2kl8CMb53L+3s/GRGzqNZ2EuIUotrfY3TE0seCMb57L+3s/GY2bXfohry8TJyDUtiLdRZYzpYjsB0BPRuvQ/95E7SpGLky1O+pTkorOWbyiInMdgnE5le46xsi3TshMYsLim4CnZmUMCyKfAsgYA+uAV7hjUK7crUErbdfdXaqfBg1SVEoflAPSw39MsFq7qQO8gj6Okp3vjiV1Y+ZibCileytRRtyUkjdWXwZGAOx69D6Zc5+a8Ym6lf1hR06uj5px2w/dh+87KawsFX0fUxg0JjZFF621jl3rpssrt6/HRkBHnEkkHYgnr6ZkG/Pyf8sDGr9JVbLz6+p5E+jZp538aYtXa9r2wFTsjt2VhrBB6flNuXfYr4+MkdA1hc2s21rYK99kLqy842B5lBAJHXv8AVL14VoRdw6GM4epvKy91pT8efX29AsPbJ0wME4eMErIJQADm+Vt084jxJ3O8rep8VjM0/IOKti5qBhWvy9xZyGyk/LUEHqO7bY7SwcVZ3Z08i/5thCIPSzdB7OpPqUyN4Q0DFtfKxbaw1dT1XVHqrVvbVs5RhsV5im52PyjOzg9pC7k51f551J+OGtWezzjz3K1JOPIh+CdV1zJIpsNBtVGssF1bK1a7qqc5TuZ/yh2I7k3mbx/RqdGnX335VNSIgAWlXLu7sqAc7HoN267Df1zZGlaVRiIUorVFJ3O3ex9LE9WPrM1r/iJ1DkwKaB323An9mtSf6keyerhwy1jP0miOrnnH05HPrlyyUHyN4e9l9x8FVAfWx3P9BLznYbZ2oYuELba6yl11pqblblUKqjfbp1JkP5J8Ls9P5/G213+obIP/AKn2y3+T+nttUzsg91SU4yfSd7H/APx7Z6Cb0WyXj+T5MF6W8bfJZ/o1x5XMT3pvppxMzMLMjO/aXFthvsu2wG3c3sl34Ya1sOg3MTaa1LE95JHj65rXyp5fu7X7Kx1VXrx1/d2DD+MvNn6nkDFxbHHdVUxH0qvT79pFk3mUn4EcRjHTGEUt2a4r0fP1LMybqLmpxzayh+ZgH5PM81QevRe+Z3wA1D9KN/8AJ/dL1oWF7nxqavzEQH6duv37yo5+ta8LXFWCnZhiF6A7qD0O/N13mzpwgk5ZefDP0MlXqTk1DSkvHHs6mH8AdQ/Sje2z+6X7TKHqprS2znsVQGf84jxlKw9Y19rEV8OtULKGbkHmqSNz8fwEt/EGSacW51G7BG5R6WI2A+skS9LQsyint45Ma/pJOMJOLy+mPoYvCm7UvcR51191n7vOUX+VF9s66DoPvxlZZuyMlMfHdKahS/IC/KWcsdjueq+2SWl4opoqqHciIo/dUCQvCXEGbplFtPvVdZY911psFtYVmc9DseuwAX2TG5Uo04xWftHRZuDqznLC8Mmuc2yz32bExsnINC5BqXmtYsVRuUkkbb77GbX4jyTRh3uvxhWwX9phyr/MRNd8C8K5iagt+VQyKvO/MxU7uRsO4+lt/ql74mHOcaj53IrJ/Zq3tIP08m31xbqUacm+ff77k3coTrQisYW7+/cZ+HUuLjIvctVQ3+hV6/0mJwjwa2p4leblZ2Yll/M4SqwIiJzEKFXlPgJ6cT1W2Yd60je1q2CjxJPo9cabxzbjYdeNXpGZvVStSklAN1QLuTvv3jvlbxSyoxz7ieHqDUpzxlvr/wBNX0ahkrrAx6Mu96lyezHO+5KK+zc3gfNBm0eJcg14lxX4xUonrZ/NA9plB8n3C+WmZ7pyqigUORzbbs77jcD6CfbLvxB5741Pfz3ixv2aQX3/AIuSXt1JUm31/BS7cJV4pYwuePN/AzQExcYDuSmoD92tPwExuFOB21HDqzMrOzVuvXtCtdgRFViSoUcv5u06cYY91uDfXjrzWunKB6QXHMB6+XmnunH19eJ2FOkZiutXZoT2fKGCcoJ6928reasqMcl+H6NMpTxlvrj76mrdG1LJbVxTTlXvSL3VeZy3NUrN1bwO6j75s3iu4ph27EhnAqXbv5rWFY2/i+6UXyacK5NOUcjIqNaojBQ227M3ToPQBvLtrq9rfiU+HbG5v2aELD+crLW6kqTz1/BS6lCVdacYSz9TOy7VxcZm6ctVZP8AAvT7xIGvg8po3vhfqGeLvc5uKiwcvMRuoAI9Y8fGZXHddz4FldFbPY/Kuy9TsSNz7BMbjviXIzdN9w4umZdYPZqS/LsK6yDsOUncnlX6t5S81alGKfI04eo6HKeMt/fzKz5KdRy8jIt7W+x6lr6hiT5xYbEb93QNLlxBV7oysDE+dyVdh6a6Bznf1b7e2Rfk00C3Codr05bbGB5em4Ve7fb17yxcM1dvrxPycXF/nub8APZEswtt+bIjipeZjyXh2X9m04iJ88+sJwZzEA115R+FaWFeTThF7O3qfINQ2sapDuTyAgWHcL39diZ56lxvhCs8uSqPsTy2A1v3d3I4Db7+qbI2nhZi1sd2rQn0lQT98+XxDhVK8cZTbzHy8i8ZuPI16eGrbNEqKoWzC9We6P8A727mFrVMD07vNAPoE728ZUdgt1e5DbKE77TYTy9kE335ubpsZsbaRacP4a3nJGLQMk99nZrzn1822+/rk3/C6N44a9tPh4eHYRm45KVVwvqttgybHxVcqQtL857EN37uvRnI23IHTqASOsn+FOHb8fIuycmys2WJXWFrDcirWWO5LdSxLnw7gJa4nVSs6FKSnCKTSx7vkQ5N7CfPnl6usy9ToxKVZ3Sroq9SWck7benlUe2fQc0Jwqfd/E+ZlHqlJt5T4eb+QT2oCZN3X9XoTqv/AFTf9L3siKy8Hrout2YtVOJ72ZxtSodAi7sF2BYDfu3P3yY4I4xx9PVsbIoyvfC+2y96kqLMOc+ap694RV9kmdL1rDr1bLfIy8eo1VUY6Cy1EJJ57WKhiPF1H1Sk8A2++HEGbm7gonPyEdQQzCtCD60UmZT4nUdgrirFJqOcLvy89vMzp2tOFR6OpSaBfj6smRmYt4ay57QnL57sxYjlB7/PYS78VajmZeJZRTpmcrvsN2rG2wO57jv4TtqJObxVVX3pihSfQDXWbN/42UfVL5l5+Xbmti4Yx/ydKXWNbz7Au7qFHKfQhPX0zhjxm8/86FKEdU4a3ltJZ++5adrTnJVJdHsVDB4izOzXt9Jze12HMUQFSfSNyCJH5HlLxq3Nb4uUtgOxUqoYH0bbyyeTzja7VbchLKq1Snl2ests3MzAdGJ7wpMr9eMmdxVYSoKYyAnpuGeutVBb1h3/AJJtR/yG8hVq07iEVohqeH2WF7+nIwlwy3lhrqyVq4gyHUMuk55U9QeRP+ryJ4uydQysY1UaZmI5dGJdF2ARubwY+IX75cdV4icZj41WRg0dlXWzvlPtzNZzbKih17lUEn9YSs8a8b5WDSpTJ0vIa0sm1BdmQcvxjtYdu+TR4pxe6pKShTUZLq3nD8y0bC3pyys5RjaJxu+Smw07KexPNs7JQyhh39SR7JJfCO/9E6h9mv8AdJvAC6RowYKOaqkOwJ5Q9rbE8zeG7t3+AnmnEFxA/wDEdDBO3Ttz0J8P8yRQ49xG6cnbU46E8Zk3l/fw5ES4ZbLnn3EHbxZYjIraZqAawlUBRd2IG5Cjm69BvIjWc/UbMvGvp0vMFdPNzq9exbnHKdtt9vN7vXNm6Ro2ZZmU5WVZimqquzshTznd7Qo5yWJG3Jzd3plzn16N3c1KS9OkpdccuexSNlRg8xy/b3NPLxBdt10vU9/+Cp+/mnPwgt/Rmp/Yr/fNwROlXtXt5GX6dR7moBrl56LpWpFvAdio3+vm6Sr6rZrNWoVZN2m3CpFZVrXZ/Mbbfzl3HN0Hsn0PONpSd1UnzZrTsqVPOFz8TTa8UOR/5bqX2A/unYcSWfozUvsR/fNxxLq9q9vIy/TqPfzNLahxgceprbdO1BEXbdnqVV3J2ALc/TqZGcD6rZqWXflOvKldYqqXv5Qx5jufEnlXeWf/ABCZbjApoRWJtu3bYE+ZWpPXb9Zk9kpHk71fGwsQpd2q2s7Mw7Kw9OgHUD0S1K4lOa9I9luUrWkadKXo0237y46tr6Y1q0ijIttZC/LSgchQdt26jx39kxfhQ/6M1L7Af3yY8mjjL1DMzFDdktdOPWWVl3+M7EA+s/fNmyZ3k1JqPIUuH03BOWc43NPVa3lX+Zi6XnNaeg7RFqrB9LuW6CXbgThh8Gqx73WzMyGFl7j4oIGyon6qgn6dzLXE5qladT+TOujbU6OdKEREyNxERAEREAREQBERAI7X88Y2LdcTt2dbtv6wp2++ag8hWHtj5GS3xrLAN/Ug3P3sZcPLjqfufR7VB2a5kqHr3PMR/CrSscL6jRhaAoS6o5BpdwgdeY2278q7b777lZ8Tj2uVqqMFlzlFfH+8GlL+WSYyuIMXsmyn0y9qBuxuNFJUqDtzbl9yOnfJPhLVsTLoORi1dnVuVO6KhPJ4+b3gbn75DeVWwafw7Xiqdiy00AekKASPYsjNK1XGwOHgFvp7YY7NyixeY2Wb9Ngd992nzOK8IoUaUYUVLVKSXNvC69jSnUbe5geSOo5OoahnN8p2VT/xLCxHsCy11ah2OJrOf48701H9WmpawR/7jv7JA+RzIxsbTQbL6UsssdiDYobYeaNwT6pIZOg6ZZU1Danb2DMzmsZaisszFz5u+3VmJloXcLbiFapOMsJKEcRzssZ+RDi3BJGB5D8IU6dZe3+8sZv3Kxt/Xm9s8vI3X21ufmnqbbioPqLF+n8Q9kzeKeINP0vS2xsS5C5rNdSI4dgW389yD08Tue/bpMbgDUsfA0Iubqu25LruTnXnLedyry777kKvT1zkrqrVo166g81ZxjHKw9K38tl27llhNLwLD740ZJNiaTkXrzMvaCilgxRih2LOCRup6yl8ZcF52fb7rxMA1JT2arQ6V1vZ3szgKxUjflGxO/Wbj4QwPc2Bj0nqy1JzHxLEbkn1kkzUdXEt+br2VS+pX0YVZsChbuzXesrXsp9bbmeipWFtYJ14qX7V4t/DxMXJy2Lmut3mn/aNJzR5v5ReWl0Gw69TZ5w6eIExuEtU0zVVsbHw0ArKhuempd+YEjbbffuM6X4mJYrI+tZJRgVYHNGxBGxB6+InXR30rRsdkxrVsLMWCK4tuts2ACoq7k9w7hsOpnl7ujZTpuNpSqKbaxs8c9+bfQ3i5Z/djBP+TusIuYlfTGTLsWlR3IAqh1X0AW8/Twlylf4H0x8XBqS0AXNzW2gddrbWLsN/HYtt9UsE9zSi4wUW8tJL4HKIiJoBERAEREAREQBERAEREAREQBERAEREAREQBERAMbKwqrgBbWjgHcBlDAH0jeYy6Fhg7jFo379+zTv9kkogGNl4VVwAtrRwOoDKGAPpG8xveHD/ANLR9mn4SSiARvvDh/6Wj7NPwj3hw/8AS0fZp+EkojII/wB5sXl5fc1PLvvt2a7b+nunA0HD/wBLR9mn4SRiAcASOOh4hO5xaCT1P5NO/wBkkogEb7w4f+lo+zT8J642l49R5q6Kkb0qig+0CZsRkCIiAIiIAiIgCIiAIiIAiIgCIiAIiIAiIgCIiAIiIAiIgCIiAIiIAiIgCIiAIiIAiIgCIiAIiIAiIgCIiAIiIAiIgCIiAIiIAiIgCIiAIiIAiIgCIiAIiIAiIgCIiAIiIAiIgCIiAIiIAiIgCIiAIiIAiIgCIiAIiIAiIgCIiAIiIAiIgCIiAIiIAiIgCIiAIiIAiIgCIiAIiIAiIgCIiAIiIAiIgCIiAIiIB//Z;" parent="1" vertex="1">
          <mxGeometry x="173.74" y="340" width="119.74" height="76" as="geometry" />
        </mxCell>
        <mxCell id="3EpMYGW9OJJ_J2EonweR-5" value="&lt;h2&gt;&lt;font color=&quot;#cce5ff&quot; style=&quot;font-size: 18px;&quot;&gt;On-Premise &lt;br&gt;FinCrime Database&lt;/font&gt;&lt;/h2&gt;" style="text;html=1;strokeColor=none;fillColor=none;align=center;verticalAlign=middle;whiteSpace=wrap;rounded=0;" parent="1" vertex="1">
          <mxGeometry x="287" y="595" width="182" height="30" as="geometry" />
        </mxCell>
        <mxCell id="3EpMYGW9OJJ_J2EonweR-12" value="" style="shape=image;verticalLabelPosition=bottom;labelBackgroundColor=default;verticalAlign=top;aspect=fixed;imageAspect=0;image=data:image/png,iVBORw0KGgoAAAANSUhEUgAAAO0AAADVCAMAAACMuod9AAABblBMVEX////97iEAAAD89qD/9yL/9SL/8iL/8yL/9iL/9zv/8CB0bQb89qT//6f//Nn/9i/56gBtZwdOSgpoYgj/+AD//ev/+Yn//eGypwDIwDf//6jt3x/05QD/+87/+Hz/+qL19fXS0tKUixPl5eWIgBKnnQD89ZZBQUH8832/v7/98FH89Y7IvBrXyhzOxjnU1NT88m69shlZVAzczx18fHyioqL98EijmRVDPwmTk5Pw6pjs7Ozm2R5kZGScnJwhISFUVFQ0MQceHATW0YiwsLCCehEyMjJ5dk398V6FhYVra2tUTwsQDwInJhknJQXQy4QxLgYZGRm4sTOooS6no2qOilpvbEa4tHVLSTByb0ibkhSalCpJSUn/+8IeHRM6OCVbWTra0FFFQywAABKUkFOln0d7el6LiF4WFQMdHiNsaDTg1TuAeyVpZR0nJhCupj3f3sV9eDexrGDQyXVNTDxFQx//+re6uKignXXHv2DfQGUSAAAcgklEQVR4nN2d+1/aSLvASUgCjFAjWCumFUTQIhcFFKilrfdaZbX1Ulvt7e32PW1X2z3n7G7POf/9mUsuk2QCiSS42+eHfiqXkG/mmec2TyahkGdZ4XceLT/emnno/av/PFnjdZlf3lq86dMJVB7yVtlZ3pq96bMKSBZtsET2tn5CvZ4hbE8PVxPhzbPTD6YxfvCTaTWGfXcSTmTC4XAmk0hkVs+e/kIRL8/c9Cn6Jxj2FKPqApEh8bufD5jAToVtgohPXum8Lx7/BHMYG6inDFiVmAZ+9E+fwrOI4kPCAVYDfq/xvvlH82YRQrcHqwq8eapP4Js+5QHkCQLYzPTDhbyZs48q78pNn/R15Q06+7Neemwa4Ncq74PsTZ/4dWQPnfrLqbgrWjyDNYV+lr3pc/csD9B5H0SaS6V43CVxInyizd+s6995uDgzszh7w/5rC591R+KADBaW5lwCJzKeeBdXHhkhyvze46KbLwUgRXwCNZFDAoDM7d4PuyLO6Lz99HlmmbfLm5uIykgmkBM4XSAxVmov+vyg1y/s4I/Uc4VauZCro/+/w/N+fuhOm8CmKFhC7HKIE2HNXj12+gWswamyJIgRSYqIAiiP8PzJ1Obp+6E7baLGdZGzCwCg6WIWJ1Y1f1Rk/QCO0XKKIBkHlqJcoT4Ho+/P8K1hDu9jZ1hVp2O7fXU6sakmwo+yth9AV7OuRAE5XgzaQfyfSBTMwS+eDDVGIWZyJOoAq+v0RG+dziQO1fhqy/ID6Gq2BKAda2GutNSUyWFjcRV3ONqcJQMLz6YXLAEGC70ncSZxRnLgN6Ya1jP4SsVk/5bi8RLhBbsa7qNA8Gb2dt6sPMxCzuzszGOttljpC0vOEzSnMz2AdXf0zPhBGKIdKBHTceQmvGr38WDL9xHuaUC4lHc3ZIyLMOmYwHJP4IzmjjR1hsF3m5OsR+HC4fhcDPHKc2jSfw5EmXdYsGljTrkjhsDOKq25oyfIOj+EaVVbsh8e4YbjC/gNdKDEy17u65qyxoLlkw1RcD24OjCcw068arqwM4OMcRuwriXB/RccdLCAjpP56OS9ri0kFl7fTybXv5iB6wVOsKpbH14AjZbTABvpEXNk8feb8XDmDAU08jQ+Shd+2NcKPf75fUEVUelUarnUhjZ5Kx55kZV29MOJ1afksBsNBwOIzPEqfy6oUzezirTfR9hn+FpTOgtgDBcVuMrkSBcPei3qUaGRH3aKtBKrLwlvXmIfVZ6IJ37hK+hNPHUPfbVUeHWny9kVC8WtndZzNBDeeVWbxeTVwquagxnErofTpi72Q75NXVybaDhoKxCFRh6+f1Dzqs8YeGGCNcAZjbeuMGPw3fgmyUXI1E2g6m3WH1gcmRd6xIeSCGpJqM+e5y+naTSL95AsqkyyhlcuTcGrUY6g/+GPww++8YcWDW29T8gkCR04wPWORwesAjdZNjqTIea5zopgYmhwefxf/Fk0dX1JEPCsVfpSAJiIPedHmJrXn5fbZQxwYhPbQL5sv9Ty0hQMvUYE09T1o2SFDHLLFUNEqNT5cwdD2heYMcCZMLHOuajtYoPwFAwaK5IaMIcTMLlf84EW/toXtwCSoOT5yaj36cuRGWwz0QkSPCftAfNCHNqm52jUge51By9VrSBL4X64gMi19iv2sXD3ZbBgDToSm8QXNaxWEponCFjAShdXr8vgMQaMzrvedDMi1nKdaw0vS6Ezq+9V12v9bDxzRgyVOnV/GdxQoZXKc6+WRxIrZYX8t4niYm/A3FLGzEtc77kFFzrdqVd8Dp0bnroZpAUD0i67Msj2UwYqLbe7NL3AyZ6IgQyjaFqbSeS8bcGFASQExAfGUxd9rFep1oW48LX9uGNL4TmPxFChad4E8bw5i46BORhjlPGcicXVGGMg2BlvNsrp3JHxmZve9UAMiGNRZYrgWj/TjB/yBXx2eplqoMF9fD1Ftp878i6Q+P5uzC2xvETjfsZhhsX2wQCS3yYDTspU3cHCZRQ19qygegBGA4xWASd2m7LsgtiEm0CmKm9V5ebU5wN1nqGpi4z0s/5QjjIP/c9A09bEGyMZHiJeaoK+g2zCRdFD23oqcmlTU2+iy92B4scXMJXzixadkl6zgINcWmr2mcg0Lh5c2/GaU79WVPVuIi90MlBez/tLiwdYiw8zU1NTpemFURFKBIok2SpRauUJfxq504o1aJFLn7VoQNZ87vUHl/dRk3VggFP41bPTly9fPn36+fT006d//348WatUFBhpR0UKGvpUfXDfM+IcsLC5r9oVUqTiBzHLqFnmOjlcH16Y4UGNnkK9ny/1Jioi66lcrRPREws1Ww8TE2R3/fLcO5H6ZGKgihzqllGsv+ATMFrSJs2fm2efXn80MY9V9GtsRJAs/wB2/6NDVEGeUGmvH2EssyaLv8CIg0Afnrw0GkDLKi4qHxsBZMdm1KTDGjk/cF8Np65Pu+I6lb8uMLXemcEtr2p5ldfSKOxaNDtlj+vAUi6i02IrdX2jvDhwnNwfGDSX9MmJym/hs1ekpKuKHkNO/aJFTrRI/6ZoTwYrPqLfDUiTDWBgOFY4vNAxbSLTNaZdZWxtw5iF4Q6ltKrJcN4mXg8WTO0FOHEpXlVbM4lDqMjvX552zWFxXI+nnE0mslIolhpkSWiGkWkFQEuW66bO6MZ8fkOzwNrFSLyyJQYUbQlfjvkBYHHs+CVwWqzJWr3ckIJmk9SpC1XZ+cpDfUfT1tq74U22GJmWv4JrUZDl7ORwc/PwjHJDXR0NZFRVtiUGNC2KpbMD0YZYuYd/pChuVtf6Mqok0P01pDhT0wZX9boQx/FQKE4evKYc4OACp445iIwrq+v6ZSZWG6qq86ngGuTAS307MA8KZuYuTN+fKM2F46xO38xq1+QOiBtadZ64sXji48BFR7LGd+5PAcMqAGqyDLjm7v2SbYxx9Z9qPcO6nPjoOKua8VVfuokeUHFcYNDA1viKF+6MD2Fdhqp81+EYC6hU58eaNdTlduBeCAXN5vYTVFilAmOsy6tOExfsTr3zQZFDZFEzH2i0bADThfPMO5M7wL2NL0bYJwKWNv1Z5SO9pLXgR5cAGytBKKWh6rtIl+F4N5j1bTDx2beO1sCnLi0yp2U9iZem4gwKl+Bk7rCuu1zi/WubesTuqgmKN6bpsznricVxpZWxWM9FfFj0MmTe3DEVtMgLYXVVlm7mAUtxVIzj86JNz8TPvnazPgk6rzcLAGqHwTbt6uW5qaeTlfwXu2WOffW1ER3dmWi7XSJIkVEaCGMME1czfnYuiIJStiS6oMH70YlgCPJDDuY/GAHcHDTCJwV6AoGl1TFkpKxDG5kcrEZjl+yw3K4uqHieODeRyXO/saJY8dxPI3VTuEvx+LRseil2wvqgmPMrtjDj5oaOa34FXFYYnhDRDtiG8DfBvW8eXIlJ2/K7Ax3J0EJmXSCui09JNZ8b0InMDh/3/oTc90NSIxBaUnMdLm6p6eJTPL+TDQAXFaoKQ8Xl7veP0IUkz78I4sbrZWoJbjjS7D+40OFuB6PM6FYoH/qK3AvoTwsn7ng7kFtUZ4NY+ZMi4kAXUOCFlu/xFJYH/q6FAUkUpEYhxXKkrkXMixU+gBAjhFeHfMqHJDEqdGr5Ns/bG4S8SQcoG36nBkSKvsxcOKSRSiulLfsMugADlCve/1sYkewM2qEAoPJWzvfpJb1BV06BkoZHeREAbZFepPEsUH07rbpl/XLg1SagVPd9zuk12bmuKoOIwJW3u1ZUT1PD4e5NJX0MD7MXAO3WtVRZEkWllmKQInGz1gQnAOAUhd2QoKSr68HYqZB3qwJRK/kNB1R3hwPKGOLh3yVzFcbb6epFQE7omUdVjgiN/BdHVChjLsY2CqNh/ttxVZEYoQjg0unqRjCDCwOqlusCsyTcba33QuXtvdasw8D44VsasjIvs1JNk8ENYg+MedeqLAmVMRWpXlD2HWhdmAHxir+oNpx6mjuX6eMr5HKDSA62WG2HNsEmuK2i1jghEm050Lq5W+M7UmLHnwJcp3r8jQ9mCwyofH2mGrSgSkHzq+rmOrjOzZJaX1pQuaj2XowCEneJjhVAKrTXO7KFcWHnvK2xXHCaXREdbFWtb3AhVav974zlkC6v+U87g+4VdfjNSBR6m++YYq34hP8cH9XPU8xfl5ZL9/0EvCR4cAMIqGAmpGjbQgjRqIg2vJLwnlfKpGqW5ley2a/fN6emjUFBhvVamgwa7lweGtzBGgCZgrqX20ks+/v11HZuslxpVMq17QNy/niX6EX+aSJjKpKKbNr+VsodrHTZDWZwHewNHtQH5PegWz7LhE01UgdVdu+9+8lFMIMbmlnZe/PCeto79PbuMHs4zajb6GgXn63KvrXKSpcHwQyuKtmHszPFLSjFmUWzZ0c1nZeJsFkFo99ZtC5iKSLIBMLMAAYt9iV6/L6CUqG1wGgdBe+V8Qtto5Dg5UebuImTOXxvfkHdI6c9Msn+TBU5vuzQafF+tHy8aaYFCot2300cKqF9FzRJHrMzP1BFlmHo2z2SHRD5TavCCba6Be+uFiI0ktQ32jBmZl6SKlJl/5f8+oh6Vr9bra1UZg1uf1plm09+o8oe6UsLLVBpj26AdkU9qRGb/RFZlZr+Q8spnWq1y++8Ub9xUTVrTadBPpVOW2izW3uB7/yoYdjva2HaKRcZFQfSVexbyD51VxZacJRst5Mw2zfTFvEWfjvBwq7oHDZjwrRTbmqOkPZLNqRu8MVfXEZMVwh0SM0rT9NuPVGPH0TAYYjBYQ/4hTHeJm6qejAN2ocePUs2GV6/OjKlu5Gj4hbS8i6ixeGFtskmliD39SwaP2O/IU1iZbluxraRzq1ggu7zv/5qJ+tXZWp05f/UL/KLF9nQ7Ja6C2WuolS+8EHGV/SuiN/tgYOQ5G3iYmkJdNLrfCp/nL7swGgKiFE6nJIqWeOpPUZAm5dEKcIhMx3ECiAR07OCGHeSspxQqu/2RdLR1XH1UgESYOwIo4xtZdXdGA2pNwRU0UgrKHgOzCut0D/JmJLCcwbuutI7fASdo2rHeeebSEdLr5L57e1cLpcvKEIEKJcXV5LyLUjaNyYKu45Gagxanj+XetkqCcYTbFRJAREhGhW4MqLiy1yF7D3JKZfVi1/HoqCD8sCgJm7WDMHwpVF2fapbYFXGtaF1aoAXkRloj7UqkhDloL0XxUL3+PLysnp08Q1v1wQuEW1QT90qmhkY6RxuO2VKTnHa3tWpeiFAP1snFZNWVMI/JzY24KVDejWJNm+TcKYQEKzq/g1hdes50cJ8aPKu4KENI9ric5wgSOWRLp/kakSVpGjlfDtf6KhXLn3l7wamJrFuQVywj5ZYcMaFdqblJpLEIlXwrtVR1al1tUUMCe0boh5ESe8Hs9iJhf9kPvkNhvFh5gaGsNM5lhx04LUUoKrWlE6ldcDaTKBTPQhuT/hZfs5y7zCjpOg8c5FY9wpzFDGPwkc4wPucCIAkbDCyKXCJgsmgEvwinziznD3DmkY3etC6ZIV5Ho6VRX4E7xQKw5Ztu9MmCX5AsKHHyUTCMriMdQUHn+v08V4Szalxp7DP2iEXpPMBJkHL/5XA91jSwvCVgvOiridWmEKuk6sD0w3GQitpQAli0R7L2qcM2YGdEsZZsEs2SMa8tTkIKdUVQ8/LWFACjSofYAr09b/Rff1W5bQTsFIhLN7aiaRyWd3RpMPsFSeVqqBgQ78iWpsu2/t8mXmud0XmCuqRhTozbVRQbBGYtw3xf6CxVfedNMS+sC6w+4k89utoJkEqJ1nGDSry+qBbYfSnxRt+0dK1b5bLrKS7XTiwSYqZQYF0oIoc0p7Ot2qhOLDhRpkrfozNhlyImGO+DDrI/6wFT5vZtGA8t+FyLNrez+FxEKnMzpGkarCKrNOGS9YAYsPyXBh2cnCt7l2Fnf0CJWBFpmjHbR1DDYuWRlk1m+t0jDo0F8GhDdQi07SykLOSWHZ+Zq5e+7dZDBzaQEMLRHuo0+JUzDIrJRMLywvZ79KQolEx4vColZ60VdQOGESTti6/nqm0czKksY3ugWkfc6YXsob20XJ9LNeqNbxuuAgNcvVLwI87+3pC0XKCfZGrRT/IIWq7HDy/brbKIrR2f11dHNdYnbo9JY1mbbAr9W9OExQtJ9jtbpJ+xoTEqGKY4l00/BeXCvCsylIVL28G+2i3R0+1x+GS3iGBkexQ21YwE91JClfc5qucpDi3dDoI0mM0tEGVVoksf1Sf2B3XuhsZ4T9lrJi9CZTtjrYVkZNqB553GEljXxvMY+x0WeFfkomrd8FJXNuG06UecMeqpVO3gt6V8DLoN2+jC/W4mgx8aFHx/P0q4o3HtF8G0W3G5NTW6KQOg9aaq/Jo8nrABY00rkcFPLTk+fObcO7S3UMCY3YeaI/vEpk1KjrIIO0Lx5eutVm/0SDgoVWXgQ4T4fgudW6iYtdmPqfOXrtX5i1laPLSUZ+ObIq2SkxUkEEjEXJmZ4n4En1qgOGK+A119goMTafWQvXmhaO0u82fpMs0LtAMoStOXZk/nbLcBS6y7qIY4TATIwgxSjYRw4cd2fqkmLANqMeoozKI+xgt8kA9s9cly4YGQKgxQolJfM+BUNmwvaPWlcFd6rXjan9thslAuorWcgONkFXRVzRf2XfQATk7bruBQklJOrddChIYm4uTF9V0H1eEYdGSbaDJjyZG28V3+7O+osqInXcMdyHY8yG8HmTNo66qjqv0BiyetMN5HPAT49TsO5sBQWE5X05U3e489W10A13EFngmYfzrPLxSJ53G8XGgJQtK6IfEsx5DJig5O+857sLHj9bLzs4Ui4t4o1DRUrvqHh9AR30Eh9dh9iIDlU5voM8OqW/X1IrQZjy5DohgkhFM8maPgWy7tbpxRHS0DnkbDF7AoRv60rjBPbClH4tY2kxarAcxRoROjmGg6S1J0EWD8SP99pUaNKA7GNOQ15wEAoAGtnqEj7s2JFi8S6BpeJlPeEWP4cxZF/pMK4/ohQoMPL5ptbpuVTW2KnlabRbD+7lKHFZi9QPDcD6qPLYw8NscsyQuiYJS2zYRr1gPo8DBzR8TJwSdLW700njTSG8bHQVK57KKUKtHZIY8CWLfGgeZtavoOXBYAoDEXKWQT2lpH32a+IUONMrrUD+Pj+E/aJSLoaz24PBvkD+tShXKsRqtBR8e0/LECot4OccnE0qRaJSly6SFsFXZriePIMsRZsFPJVjU++2SVxdHR+mjo+OLKy0wfTGMqIKSBzxL8orjg2PRBmBq7ykd26oh98jF8cXFN/VOSPWtReaD4ZEEuA7CFoYqY0mVRXbnl4girBnyIXpk5q1HWDPey67Y3kW3hQ4ZFcnOBwfejfOOELEDCxvwvUU15qSn7p756xYnmi0+o1pI558Vs8OE1GXlIPPZSdOSLcUOjN4ohh4SZaYLDhBIG8InD5iWNju7ODMzs5gdDhnzDPjDqVWn8YUeuNURzK3j6FXkfchMtarjw8WZxZvE6SePPiTCic1Xjrz8Qb4ChIhWiMOVKWxtSQP5cNIX32SRX8UPhunBC8PdViOCiUW89rlGvkoM+tAt60Cy8xotGWSmKk6bXKiSasExVgs12nfJDR8G720upgt3pzRq/NUM3aLeW4jTH/yBv7sbo14KNWNMGZi2iAY3HI7vCg3GDUCWaZwjiTyVoxWXd2BI9IAY2dvjYyOqjMl3Jsr6X61I6JY8ov8Ve3s3pX+wUsIHEs/1Vwqx0GhrxC45cWDa0FeyHjQnS8x8liWWhzdlNRN8e9z4DKQ1+l9To5DW+Ct22/iDP9/F3x3f0F8pTIdGWV1LbWFw2hl1cBcATHcijHyWIQ6Hckk7NhoaN2pYI6Poq9TbfCMeGmXpWdIH2tC8NrjI6sJ81mGzC1ocTJN72qbxI+1x9NW31HK4fC9A2lljcJEAUSz3m8EO3f/uaan3+PHb8KsZo6x1APGDow0tfyAruXrcJAlcrTfwMnPdxj3tD2oF7e49+NXpAv12kLRqw4lpQ28pCsr5gx68Lx7Ygd3TWqZpiFbtwlKwtEWeLOSatwpAe/ZMjm04Az95Vlycffjw4exi0SttaNyohExOwK9Sa+GVTLC0oeXfiC5bUx4QiQpKOVfvuX8aDK4WPdPGjOI8ckG3x42fuPs2YNrQ10/ELjOSWoB2JuUa5VZ+bH/9YGNDO61ne4/W1tb2lh8b6ZsH2iXzPKXe7SKrFSxtlj/NwLkbLzkWaaQIhMaiVhYZZRYPtBmj/rwObTBlteqIiUm77hctqmKchBM9cC1ZH/OWfg+09+7SHw3NGQ4Ix1Y6bZ27a4jsFy3eLP10NRGf67sQKahTzl5r8UBrmaiUYpdLNG1KuHXPEN9oyTrJ682pTLPv/vTkROz37nigDUWNSLgSD8WMFTblrZnWP0KTkPz8/cnqdJ9uNq3bxLZc5YV212gTnrwfGjfyzfE7Q6HVV8E+nO2yKnCULpNzs3X9mGhvl3rSUjM1txAa19eakjhstmryrQBxef63giKIjkOsdbRme9CKAtWNxKCl0oDU6C3DZuWbJlpipeSlAGhJD5UqB/maIjj0Gwtk2KyLkTRtPZUykkcGLfXZg/G44YBwZGX1QK3pIGjNm0Kgc87VKgr0s1FRE+R0uU55A7/9rGgKlmlakzBoQ+NGrAh2DTXo/GDQFoKhtWyUoF38ZGokn8+h/Rq2U/uW1c0XRi3cE20zZxCOG/+Xbw2T1nY7fS/ZMVf9PdFOGOO5biRA69hIDY/WuldCL0mZ/b0n2h/MJlFStxkibSjL0ma2KLs0ryfaOzLrk4WlYdMyFu2dpFseH18o/bh3687t25j2YL2drKfGRka287lWYbJWrpQ7SmdSstOGxlkFP5TcDps2NMtYhLRKjpztWKvcUGQikiBAl8UpHbT76WQrP1KvFzrlFHNs6WjRkLv3boA2ZNsoyCKpGic47E1LSb5BOnKYtNOM/Ra+4JLc8GlD2T37yRDZz5U5tHrPbFc2ZLuiaDupM2njjPsYtLB46LRQnSlr1d143k6mtnOFsmJsN+p4kzm0reVmrGfkCFNchplq7Vpo1/NIykOghc7oyWl4LhaRIhFRFHBEZQokAfNWVYhTVlry7d45EJRxe02zPGehTY0vIJkbBi3k/fopPhGTHfIDkTH1IOpksn/GByVqL8egCpyZNjocTp13/nR1ounAa92kKFXmaiT+dUG7ZO/pV43UMPJbJ1nc+20zsQQHmNF1Qq/FpSY5/akHbmgzNqNeHw/dOC3ac/HPT6tz001gJTaK3qlJOZbxULuA8pZuzccC83ob7S0od4jcHhrw4vLH08N4aXoXIsuAiKTd+zdWk0cnbnmq1IRYgWZtwkpbl1DUMo5F9K/m6EJmnv361+nZZjxTmpiYnp6emPgDdx+NlOXd+B3r6bugpVNcIiS5DTnUk/1YrfYkZG/Nd+///PDnn6hJsp2r7Cb0opFX2gXr/Ta4AudI69tagReZ/Z///XS1vZ37/f/+iL81TSWvtCXLvQhtzUj9jWidxSvtD8v96dt608zPSHvHYqYm9QDxZ6Slm02Q4HVrLD8lbdPc0SLrhZCfkva+Kc4+0I3Uz0lrrsSNGRnAT0l7y5TiFoz1D2Yv3N+OVn06TzLZRn2O+l95RKv91c7rtKHxVFKXtlqBQzKabydtMuZDn6OPclvWn7wkyHdKEf0PkYO09F+axKIC9RWjWsuJgl1E7v8BRdOhw5T0kVAAAAAASUVORK5CYII=;" parent="1" vertex="1">
          <mxGeometry x="196.01" y="262" width="80" height="71.9" as="geometry" />
        </mxCell>
        <mxCell id="3EpMYGW9OJJ_J2EonweR-13" value="&lt;h2&gt;&lt;font style=&quot;font-size: 26px;&quot;&gt;On-Premise Hadoop Cluster&lt;/font&gt;&lt;/h2&gt;" style="text;html=1;strokeColor=none;fillColor=none;align=center;verticalAlign=middle;whiteSpace=wrap;rounded=0;" parent="1" vertex="1">
          <mxGeometry x="541" y="187" width="367.5" height="30" as="geometry" />
        </mxCell>
        <mxCell id="3EpMYGW9OJJ_J2EonweR-14" value="" style="shape=image;verticalLabelPosition=bottom;labelBackgroundColor=default;verticalAlign=top;aspect=fixed;imageAspect=0;image=data:image/jpeg,/9j/4AAQSkZJRgABAQAAAQABAAD/2wCEAAkGBw8NEBUQDw8VEBUVFhUVFQ8PEBUPDxUVGBUWFxUVFhUYHSggHR0lHRcXIjEiJSkrLi4uFx8zODMsNygtLisBCgoKDg0OGxAQGCslICUtLS0tLS0rLSstLS0tLSsrLSstLS0uLS0tLS0tLS0tLS0tLS0tLS0tLS0tLS0tLS0tLf/AABEIAOoA1wMBIgACEQEDEQH/xAAcAAACAgMBAQAAAAAAAAAAAAAAAgYHAQQFAwj/xABTEAABAwIBBQoGDggEBQUAAAABAAIDBBEFBgcSITETIjJBUWFxgZGhM2Jyc7GyFBYXIzVCQ1JTkpOiwcIVVFVjgtHS4TSks9NEdIOUoySElcPw/8QAGgEAAwEBAQEAAAAAAAAAAAAAAAECAwQFBv/EADgRAAIBAgIGBwgBAwUAAAAAAAABAgMRITEEEkFRcZETMmGhsdHwBRQiQlKBweEzI1OSFSSy0vH/2gAMAwEAAhEDEQA/ALxQhauIVbYIpJX7I2OeehoJ/BDwBK7samMY7S0QG7yhpOxgBdIecNGu3PsXG90PD/3v2f8AdR/JDBf0s+SurbyAvIbHchriLE349FtwAOYqae1bD/1OL6i51KrPGNkj0Z09FoPo6mtKSzs0knux8Tle6Jh/737MfzXrT5e4fIQ0yOjv8aSMhvWRcDrXQ9quH/qcX1Fp4lkVQTsLWwNhdbeyRDRc08RtsPQVVq29Ea2hPDVmu268iRMkDhpAggi4INwRtBBUT90bDuWX7P8AuuXm5xCWGSfDpzcwlzmEm4Gi7ReB4ty1w8orkZrsNgq3VAnhZKGiMt3Rula5kvbpsOxS6knq6u25rHRaVPpXVu1HVtbC6l6/BK/dGw/ll+z/ALpoM4WHPIaXvZf4z47NHSRey6ftTw79Sh+zC5GVWS+HR0czxBHCWRuc2Rg0CHAb0attzYW47qn0qV7ozT0KTS1Z49q8iXRyB4DmkEEAgjWCDsIK9FDM1k75MPGnchkj2MJ17yzTboBLh1KR43icdFA+ok4LBe2wuOxrRzk2HWtIyvHWOWrScKrprFp24mpiOU9JS1DKaWTRkfo2AaS1ukbN03bBcrtqlKPJ6pxeGpxF5JeXExsA1SFvDaOYNAa3nFuJTvN1lF7PptCR15obNfc63i28k6wLHnaeVZwqNuz25HTpGixpwvB3ccJdjf42cSYKL4ll3h1M8xumMjhqIhaZADyaQ1X61zs62NupaVsUTi185LS5vCEYF325yS1vQ4psm8gaSCBvsqFs8zmgv3TfMaT8RrdlhsvtPcqlKTlqxIp0qUafSVW8XZJZu2bxPT3S8O5Zfsv7rBzmYaOOX7L+67HtQw39Sh+zCG5JYaCCKKG4IIO5jaNYStV3oeton0y5ryMYtlLT0UEdTOJGskIDW7neQFzS8Bzb6tQK69PMJGNe3Y5ocL6jYi4UEz0G1FD/AMw3/SlUzwb/AA0Pmo/UCcZPWaMp04qjGazbfdY3l41E7Iml8jgxrRdz3kNaAOMk7F7Krc41VNX18GEwu0WnRc8jYSbuu4cYYxpdbjJ5gqnKyJo0ukna9li29yR3585WGMcWh8klvjMhdo9RNrpPdPw3lm+y/ut+gyEwyFgb7FZKRtkmG6PceMknZ0CwWz7TsM/UIPsgp/qb0ba2ibIy5ryOXR5xcPnkbFEJnPe4Na0RbST09/EpkuRRZN0NPIJYaSKN4vZ7Iw1wuLGx6F11UVLaY1XTb/ppriCEIVGQLj5VxOfQ1LWi5MMlgNpOiTZdhCTV1YcXqtPcQvNVVMfQaAO+jkeHDj32/aex3cpoqsxLJzEcIqH1GFjTifthA0y0azoFl7uaDsLdYvblJPbtj37M/wAnVf1LKM9VarR31qHTVHUpyVpY4uzV800/TLTQqs9u2Pfsz/J1X9S8anHsoq9pgjozBpajKyCSA2O33yV1m9I18ifSrczJaHPbKP8AkjbyYlFRjlZNHrY1kgLhsJDmMHaQ49S8cypu+r6IfTMpVkRksMLp3NcQ+Z+uR4G91Desb4ouekknVsEazPYdUQPqjPBJDpCHR3WJ8d7GW9tIC9rjtUKNpRv2nTUrQlTqqLwSgl22eZqZwsBqqImppppjA43ewTSExE9fAPds2WWnk5krJi8QkOJFzARpxEuklY7ks82B5Hawrhlja8FrgHAggtcLgg6iCDtCqvF8nqzA6wVeGxvlhebPp2NdKQNpY4NuSz5rtrePnJUoxd7YBQ0uUoaiklJZPDHsbeT3P07MwrD4qSFkELdFjBYDaeUknjJJJJ5SqpzqZQOqp/YUF3MhN36ALi6W1nahxMBt0k8inWL5RTDDzUU1LOZnjQZA6nkMsch2l7LX0W6zfYbDXrXKzV5NvpYXVVQxzZ576pARIyO99F19ek4749DeRVL4rRiYaPJUr1p4tYJb3tf7OHhOXlXEyKmgwogDRjY27xyAXJbtJ2k8t1546yXJ/Eo61rfeZ77oyO+gCbGeMde/b0W2Aq3lxcq8DZiVLJTusCReN5+JIOA78DygkJum7Z8AjpMFPqWTupYt3vx3EEzuzAihq2HdIt+QW6w6+5vbbpaD2K0IZmyNa9hDmuAc1w2EEXBHUqpyVwuoraKbCa+nmhMZL6ed8L9BjgSC0PIs4Ak2sdbXuA2LUoqvKLBG+xm0vsmJpswiF9TGB4joyHAcztnMlGVnrbyqlNSgqakrxvtzTd7rt7C5kKo/b9lB+yv8jV/1JoMuMoZHtY3CwC5waC+jqmMBJtdzi+wHKTsVdIjH3We+P+SOrnvNqGH/AJgf6Mym+Cf4aHzUfqBQnO7Q1NRh8LGRumkEzS8U8T3/ACMoc4NFyG3PHfaFHqbLbKGJjY24VqY1rRehqybNAAvv9upK9pO5Sg6lGKTWDebSzsXKqQy6woz49uL5twE4i0Ji3SAvFoN1XG17S3bxroNy7yjcQ0YULkgC9FVNFzsuTJYdJUky5yNlxWmik0mNrImjfM0mQvJsXMFySBpC7Tc26yiXxLAqhfR6l5NYpq6adu3mcD3IJ/2l/wCB3+6se4/N+0v/AAO/3VrRZV5T0YEMuHmct1bo+llmcbcr4n6LulN7f8o/2SP/AI+r/rU2p7jZ1dK/uR5x8iZZDZFjCd0e+b2RI+wEmgWBrBr0QC47TrJvxDkUwVZ5LZU4/W1TIZqCOni4Uk0lJUxAMG0NL5LaR2DbtvawVmLWFrYHFX13O83d+t2AIQhUYghCEACEIQAIQhAAhCEACFp1OIQQ+Fnjj85I1npK5lRllhse2rYfNh0vqAqXOKzZcKc59WLfBX8DvoUPlzi4c3YZX+RH/UQtSTOfRDgwznpEbR66l1obzZaFpD+R8reJO0KvHZ0oOKlkPS9g/ml91SL9Uf8Aat/kl00N5fuGk/R3rzLFQq6GdWHjpH9UjT+C9mZ1KT41NOPJ0HelwT6aG8T0HSF8j7ifoUJizm4c7hNmZ5UbT6rit6ny+wt//FBvlskZ3ltk1Ui9pnLRK8c6b5MlCFzaXHaObwVXC/mbMwu7L3XSVJ3yMWmnZoEIQmIEIQgAQhCABCEIAEIQgAQvOR4YC5xAAFySbAAbSSq+ylzitYTHQgPOwzvG8HkN4+k6uYqZzjHM2oaPUrStBX8F9ye1dXFA0vlkbG0bXPcGN7SolimcWihuIg+oPK0bnH9Z2vsBVWYhiM1U/TmldI7leb25mjYBzCy1Fyy0iTywPZo+yaaxqO/DBeb7ia4hnJrZdUTY4RzN3R/1navuqO1mP1lR4Wqld4u6Oaz6rbDuXLulusXJvNnoQ0elT6sEvt53HueVF0l1glJI2cmxrrF0pKUlOxI5KW6UlLdMVx7rF0l0XTFczdYJSkpSUCuO4341tUeK1FP4Gokj5o5XMHYDZaJKLp2Jk7qzJfh+cjEoOFJHOOSZgJt5TNE9t1K8KzrwOsKqnfF48RbKzpI1OHUCqkulJWinJbTkqaHQn8tuGH67j6TwnHKStbemnZLytabPHlMO+HWF018tRzOY4PY4scNYewlrweUOGsKdZM5z6mnIZWD2THs3QWE7Ry32P67HnWsau88+t7NlHGm79m31yLrQtDCMUgrYhLTyCRh4xtB42uB1gjkK31sea007MEIQgQIQhAFS5yspXTSuo4nWjjNpLHhyDhA+K3ZblB5AoLdbmPRujqp2v4Qmkvfyyb9e3rWgSvNbcndn12j0406UYx9dvrhsM3RdKSlulY1uOXJbpbpSVQrjkrBckuglMTZklBKQlLdArj3WCUhKLp2JuZJWCVi6W6dhXHusXXmSi6YhtJLdKSlJQK56XS3SkpbpiuMSi6S6wSgVzvZJZTTYXUCVhLmGwkivqkZ0fOHEfwJX0XSVLJo2SxnSY9rXtcNha4Ag9hXyqXL6QyBiezDKVsgIO4sNjtAIu0dhC2p7jyvaMFhPblxJChCFseWCEIQBV2VWAfpSL2dRjSlaSyaFvCc6M6JLR86wGrjFuPbWx1auTUQdRBG0EKWYflDLh1XK9m+aZHh0bjZrhpu7COI+lS+pwnDMoGGSJ24z23xbZswP7xmx48YdRXDH48s/HgfRa89FVppuGxrHV7H+Hu35KobrF1JcdyEr6O53Pd2D5SAF5t4zOEOwjnUXPJyaiOMFKzWDOuFWNRXg0+HrAclKSkJRdFh3Mkoulul0k7CuPdYukJWLpiuNdLdLdKSgVz0ulJSErF0xXGJRdJdYuglsa6xdLdKSqsFz0JSkpCUpchIm45KCV2MCyUrsQI9j0zi0/KvG5w9Om7b/AA3KsjB83FBhjPZOKzsl0dei7eUrTyWOuQ8gO35qpJswq6TCng3d7liyKZAZEvrnCqq27nSR78ufvd10deiL/E1a3bLahxkXZgWINq6dkzBZr9Is1W3mm4M1cWoBVDlzl6a5vsalBipxqNxovlA2Aj4rPF2njtsVm5vPgum83+Zyqm1rWRw6ZCbgp1MHfBbljn2v8fZSNCELY84EIQgD54xQ+/y+ck9crXimdG4PY4tcNYewlrgeYheuKn3+XzknrlaZK8s+zj1VwJzg2cmphs2paKhvzhvJh1jU7sHSpE7F8Cxb/ENjY48dQ0QSjmEwNuxyqQlKStlUksHjxOKr7PozetG8X2Yd3lYtCvzV0cw0qSpfHfZpaM8fUdTvvFRuvzWYjH4J0Mw5nljz/C4W+8o1RYjNTm8E0kR2+9yOjv02OvrUhos4mJQ6nStmHJLG097NE96rXg81yMXQ0qHUqKS7Vjzx/wCRwavJHE4PCUUvTEzdR2s0lxqiGSI2kY5h5HtMZ7HK06XOw8eGpGu54pDH91zT6V1YM6NC8Wlhmb/CyRvc6/cn8D+buJdXSo9alfg/3IpIOvs19CCVd5yoyen8IyI+eotLv0CEE5MSfFox/wBMRfgE9VbJIT0ua61KS9cEUcSsXV4forJd+w0nVU6HoeEe1/Jjlpf+9P8AuJ6naiffo/TLkUddYurxOC5Lt2+xP+7LvzrIjyWj4qM9kv8ANPVtm0L31bISKLJttKGXcbNGkTsa3fE9ACvP2wZNQa2MpweWKiJPaI1l+c7C4RaKOV/NHE1g+8WotH6h+8VXlRl3+RT9Jk1iM3gqKd3OYHsb9ZwA7136DNbi03CjjgHLNMCeyPSUsq874+Roi7nllDe5oPpXBrs6eJS3Ee4wji0Iy9463kjuReK29wr6XLKKXF/t+B2MMzNNGuqrHP8AEp4w3777+gLsNoMnMGN37i57dfvjjVzg8oZvtHqAVVYllHXVeqerkkB2sMhbGf4G2b3LlXA2auhLXWxcx+6VJ/yVHwWHrkWpjmdrUWUUFuISVFu5jT6T1KusXxiprn7pUTOkdxaR3reZrRqb1BaF0l1Lk5ZnRSoU6XUX328/KyHJX0Rm6+C6Xzf5nL5zuvovNz8F0vm/zOWlLM5PaX8a4/gkqEIW544IQhAHzzlJSugq543ixEjz0tc4uaetpBXMurXxzBY8cp92hc1lTCXRu4g7QJGg/kvtafG7KrraSWnkMU0bmObtY8WcP5jnGorz3G3A+p0auqkdV9ZYNfngeV0XSXQSg6GxrpbpSUt0CuPdKSsXWLppE3MlBKW6UlOwrjErBKQlF0wuxrrBKQlKSmTc9CUixdKSgVxiUEpLrF0CbGJS3WLpSVVhXGui6S6x/wDrDahIVxibL6XyLoX02H00Mgs9sTdJp2hxGkWnoJt1KuMgMgdxtiGJgRsjG6Mgk1EaOvdJQdgG0N28vIrQyexEVlOyoAsJNJzQdujpuDb89rLWmsTydNrKfwxyTxfadNCELU84EIQgCjaTHJ8PrJJYj8o8PY7gObpnUfwPF2g2BBVYZj8ehIwboB4N50KhhtrMbhrI6NXKOJVVih9/l85J65Wq15BBBII1gg2IPKCvOp1HFWzW4+pr6JGslJPVkrWa/O/s27L2wJnj2a2eO7qOUTN+ilIjlHMHcF33VBcRw6ekdo1EL4j+8YWg9B2HqUywbOFWU9mykVLR9IbSgc0g/EFTOhy9w2rboT3ivtZUMDoz/ELtt02Wq6OWTtxOVz0uj14663rP1xRR91i6vKoyIwevG6RRsF/lKOUNbr8VpLO5R6uzRNOunrHDxZow77zC30KnSlsxFH2jReErrivK5Vl0pKm1XmuxOPgbjMOLc5S13Y9oHeuLVZGYrFw6GT/pATf6ZKnVaOiOkUpZTXNHDusXWzPhVVH4SlnZ5cL2elq0XuDTYix5DqKRopJ5Yj3WLrz3QcvesboObtTCz3DkrF0hkHN2pd0HN2pis9x6krBK9YaGeTwcEknkRvf6AujT5JYnLwKGfpfC6MdrrBNGTqRWbXM4xKxdTKjzX4vLwoWRc8szPRHpFd/D8zMpsaitYzlbDE6Q9T3FvqqtVsxlpVFfMvHwKtJTwRPlcGRsdI47GRtL3noaNavXD81mF040pRJPbWTPLos+qzRFum6258qMEwppZC6EW+SomB5J5CWb0HyiFWrbN2MPfVJ2pwcvX3KywDNfiNXZ0zRSM+dNvpbc0TTf6xarFw3JvCcn493lcC8bKios+W9tkTQNR8kX5SVF8czszyXbRQiEfSy2ll6mjetPTpKv8QxGaqeZZ5XSOPx5HaR6ByDmGpTrRWWJSoV638r1VuWfrjyJTlvl3LiRMMQMUAPAPhHkbHPtxcjR0m+q1rZvPgum83+Zy+dbr6JzdfBdL5v8zk6bbldkafTjToxjFWV/wSRCELc8kEIQgD51xU+/y+ck9crTuullRRPpqyeN42SOcDysJLmHsI71ySV5lj7GEk4prcvA9CUt0hKLqh3PWGofG7Sje5jvnRuLHdo1ru0OXOJQbKlzx82ZrZfvEaXeo3dYJTWGRnOEJ9dJ8VcsGlzq1Q8LTwv52acR79JdemzsQHwlJK3zb2SenRVTEpSVaqTW05ZaBo8vltwbLriznYa7buzPKiB9UlbTM4GEybai3M+GUeliolYV9NIxfsyh2815F8nKjBH7Z4D5Uf8ANqX9P4F9LS/UZ/JUPdYJT6V7kR/plP6n3F8+2TA2bJqYeTGD6GoOXWDR7Klv8EUh9DFQhKLo6V9gv9MpbW+7yLylzn4W3gySP8mFw9ay59Rnbox4OmnfzuEcY9YnuVN3Sko6SRa9nUVv5/pFm1ed6Y+Bo42chkkdJ3Na30rhV2crFJtTZmwjkhjaO92ke9Q4lBKlyb2msdFoxygvHxubmIYpUVRvUTyS80sjnjqBNh1LSulusXSN07KyHulului6aQrmbr6Lzc/BdL5v8zl85A8mvmGsnmC+mMkMPdSUNPDJqeyJoeORxF3DqJIWtNYnne0X8EV2/g7SEIWx5AIQhAEAxTCocepy5hDKmFzoi7l0XGzX2+K61weIk84NWYph89JIYaiN0bhxO2EfOadjhzhdyLF56KsklhdY7pIC062ObpneuHGFYdBjeHY3GIahjRJ9DKbO0uWJ+o36LHmXDFqa3PuZ9A+l0TFLWp59sb48rvbh2p3KVukurLx3NW7W6imBH0NRqPQ14GvrHWoHi2BVdEf/AFFPJGPnll2fXbdveiUHHNHRS0qlV6svtt5eWHac8lYJWFi6LG1zJKLpLpSUJCuPdKSsXS3TFcclYuvMlBKZNzJKwSlusXQFx7pSUt1i6aRNzN1glKSsXTsK490pKUle9BQzVTtCnhfK75sTHSEdNtnWmS3tPK6GNc9wa0FznEBrWgucSdgAGsnmU/wDNLW1FnVb20rPmappiOhp0R1k9CntNhuD5NR7o6zZCLCSQ7rVv5QwcQ8kAcqrVe05Z6ZBPVh8T3IjWQuQjaFv6RxS0e5jdGQOIIjtrEknjDibxG3HqFj5N4iaymjqLaO6aTg07Q0vdog84FlSuWmW0+KO0ADDA03bFe7nEbHPI2nm2Dn2q283fwXTeb/M5VCSvZHJpVKagqlTrN5bEscCSIQhannghCEAfPGKH3+XzknrlamkvbFT7/L5yT1ytW68tH2cX8KJPguXNbSWbp7uwfJzXcQOZ/CHXccym2G5yaGYaNQx9OTtuN2j7Wi/a0KoSVi61jUlHJnJW0GhVxcbPesP13F2S4BgmJguZHBITtfTOEcl/G3Mg36Vw6/NJTOuYKmWLkEjWytHZonvVXBxBBBsRsI1EdBXXo8rMQg8HVyW5JHbq3skutOki848jl9yrw/jq/Z5fldx2qvNLXM8FPDIPGL4ndlnDvXGqs3mLR/8LpjljlicOwuB7l26XOhXs4bYZR40TmO7Wut3Lq02dr6Wj645vwLfxTTpveT/AL2Pyxly80V1PkxiMXDoageTBI8drQQtKXDqhnCp5W+VE9vpCuSHOrRHhwTs6GxuHrrbjzm4YdrpW9MRPqkp2j9Qun0lZ0uV/wBlCvBG0W6dSTdByhfQjc42FHbUEdMMv9Kb2/YP+st+xl/oT1Y/Ug95rf2Jd/8A1PnkOvs19C9Y6SV/Aikd5DHO9AV/nOJhDdlT2QTf0LxfnNwobJZHdELx6QEWj9SE9Jr7KMu/yKShydr5OBQ1Luimlt26K6FPkDjEvBoXjy3xx+s4K0ps6+Ht4MdQ/ojY0feeFzanO/E3wVE9/lzNZ6A5Hwb+4npdKeVPn/6iL0uaTE5OG6CEcelM57h1NaR3qQUGZlm2orXO8WCIM+88u9C59ZnarXeCghj53acp9LR3LhV+XuKT7at0Y+bE1sP3mjS70a0FvDo9Lnm1Hl+Lln0mb7BaFunLE19tslZLpN62khncsVuX2EUDdzgcJLbIqOMbn1O1M7CqPqaqSZ2lK90jvnSPc93a4krxujpLZKxS0DWxqzb9dtywcczqVk920rG0zfnn3ybtI0R2HpUFqal8zzJK9z3O2vkcXvPSTrWuSsXUNt5nXTpQpq0Fb1vz7x7r6Izc/BdL5v8AM5fOd19F5ufgul83+Zy0pZnF7S/jXH8ElQhC3PHBCEIA+fcrcPfS1s0bx8Zz2nla4lzSO23SCuPdXtlfkvFicVjvJGX3Oa17eK4cbT3bemlcaweooJNyqIy13EdsbxytdsI7xxgLiqU3Fn0uh6XGtBL5ksVw2r1h46RKCV53QSoOy5m6xdKSsXQTce6W6S6LpoTY11i6UlKSnYVx7rF0pKW6YhiVi6S6wSmIclKSlulugVxyVi6S6xdAmxrrF1i6UlVYkclYukJTU8L5ntjiY6R7jZsbGlz3HkACYrg25IABcSbBrRdxJ1AAcZK+mclMPdR0NPA/hRxND7axp2u4DrJUNzdZuvYbm1daAZhrjhBDmxH5zjsL+jUOc6xZa1hG2LPH03SI1GoxyW0EIQtDhBCEIAFp4hQQ1MZinjbKw7WPaHDp5jzrcQgCtMczWRvu6im3M/RT3czoDxvh1hygWLZK4hR33Wmfoj5Rg3SPp0m3sOmy+iELJ0YvLA76XtGtDCWPHPn53Plu4OxYJX0biWTVDV65qWJ5+foBsn122d3qMV2anD5NcT5oeYOEjPvgnvWbpSO2HtOk+smu/wBcilyUEqyKzNBOL7jWRv5BLG6LtLS70LjVWbHFY+BHHL5uZv8A9mip1JbjdaXRllNeHjYh5KQld+bInFo+FQyfw6MnqOK0ZMna9nCoakf+1lt26KVrGnSweUlzRzSUXWy/C6kbaaYdMLx+VeZoJ/oJfsnfyQPXjvPAlLdbQw2oOynmPRC8/gvVmA1zuDRVLvJpZT+VMl1I7zn3RddqHI7FZODh838ce5+vZdGmzaYvJtpQwcss0QHY1xPcmkQ61NZyXNESJQSrFpMzta7w1TDEP3enK7sIaO9d+gzOUjbGeqll5RG1kLD6x71ai9xhLTaK234erd5TBct/CsGq602paaSXxmMOgOl53o6yvoHDMhMLpbFlGx7h8ea87r8o3Qm3UpGxgaLAAAbABYBUqb2nNP2gvkjz/XmUzgOaCoks6umbC36KK0s3QXHet6tJWdk/kvR4a3RpYQ0kWdK7fzO8p5125tnMu2hWopHFV0ipU6zw3bAQhCoxBCEIAEIQgAQhCABCEIAEIQgAQhCABCEIAEIQgAQhCABCEIAEIQgAQhCABCEIAEIQgAQhCAP/2Q==;" parent="1" vertex="1">
          <mxGeometry x="319.5" y="464" width="113.01" height="123" as="geometry" />
        </mxCell>
        <mxCell id="3EpMYGW9OJJ_J2EonweR-17" value="" style="rounded=1;whiteSpace=wrap;html=1;fillColor=#6d8764;fontColor=#ffffff;strokeColor=#3A5431;" parent="1" vertex="1">
          <mxGeometry x="568" y="264" width="244" height="143" as="geometry" />
        </mxCell>
        <mxCell id="3EpMYGW9OJJ_J2EonweR-15" value="" style="shape=image;verticalLabelPosition=bottom;labelBackgroundColor=default;verticalAlign=top;aspect=fixed;imageAspect=0;image=data:image/png,iVBORw0KGgoAAAANSUhEUgAAATgAAACiCAMAAADiKyHJAAAAxlBMVEX///88Oj7iWhw5Nzs1MzcuKzAlIijhTwDm5uYzMTUoJSsrKC0wLTLgTADiWBg1Mjf39/dAPkIgHSP5+fmDgoThVQ6JiIp8e33s7OzV1dViYGNMSk6Qj5G0s7RGREi9vL1vbnCbmpze3t5ZWFvJycryu6jGxcb20cT99PCjoqRUU1a3treYl5ntoYbwsp11dHb42s/0xrbkaTX65d7rlHX87+nqi2kTDhfnek7og17mdknvqI/mcUP2zsHsmHvjYCYAAArzwbAHQYfrAAAXFUlEQVR4nO1dZ2OrOhI1EWCaDe7gEuOSglOcfvvN5v//qRV9RhLFuclz2vmy9ymApWE0c6aIbTQ+IXpPDzff/57sexrvDk+PzUG7PWjdfIluJ1y02gcR2q3Lfc/lPeGydZChdbTv2bwfXAG5Ucl97da6uGlDwbXbp/ue0DvBZfMAYfCw7xm9EwzaWHBfm7UerhmFo5v1Zt9zehf4MWAFd9D8te9JvQP0OIULJXe/72m9fWAukvqHH/ue1tsH61MT//Bn3/N683jgTVzoHx73Pa83jxuWjCRW7mLfE3vjOD0QC+6gdbvvqb1t3ApNXOgfvu97am8bf4DgcAjRvN733N40fuWCGzwge9ce7HtubxrAqTb/nCBOV8M/nF5dfr95vPnx6/MZxMdcyag7+I64SbNcHLdHD81WmHFvD5qtu/9ovm8FpzD322jcN+FmHfwsvO/++m7QbAKj2PxkiQEQcEU5kV/IybaE/uH0z9/fSGix5D5XYuAJ+Ia/4cAj8g+PPeb606tfv1uc0OJr9zD9/eEv8A1RfavMP1BPcNBqFhDmT5ZR+Ql8Q5z3xbFrFj9QTzAQq9qnFNwp2JnJwhn/EMYPp9d3j7xRY7fqwWeq8dznJi6zUTjP1Ly7KDBqDD5XiAYCrnzhOF8yqCG0EGIP/FEBtGuQ+QFhTrgK7YN9ruM/Bwy4co25E+Y2KxTuc6WMQTKudZWNnu6ucs1PFnLBgAtwXXEdAqDN2L3B7/2tYR+4ZQKuDL/LHEK72Tpg2k0+FRVpoCI+bhgp9A9hIuTm4gpGHKEkP1tW6QL4BhyjC/0DFdrjw1PIky9xY9jncgwN1P3QxIu/Z9lbe9Bqfb+8jQ3hH5xD+XxNnDDgYnbbUQsKrdn8eZF73dsWlOqnKySeXgOFa7fZPyf+IRTa499raPzvD7ho9vPg9ugHjUCBUnF8gvqH0BM83j2xlv8G2r/BDZuy+8C4vQwzuNju/+Wuums9/jgSuEvUFtYefJpk0tWvG0EysinoNRdzjL/QMbRBvPGR0Tv5e9AUpnBrC4AhIk+vOt83gpO7x1ZRjqhVk/r/2bXy+t5x+uehLB1Zt+v3Cqlr86O3p1Pi0W6WpopqdmBiWlxSdv0IuI+IR2kWl0YFtYqiPURE2gcfmYicfB+U61pI1g7u6gWbDBH5wJH9yU2hN0hWTxnuRV2H+hdHqB/3FMnpj1aF1Jq/f9XnYQwR+biHDG8fS/ZolFe73GWzMSV+PtL4KLgv7FUIE2vNH0e7xUq3mIh84HMQvwv0LUx3/HjaNdV9ippxBh+4p+uPMPlNiQd1oc+gEQwR+cCRveDcRzvMrF09i3w94Mj+AxMRwbmP9s0OLhTjoka74QdBjxfc4NkE4gk71P+qxOA4DjfgOPyO4a4Lx5ZLV3wNeoSrJcivFFRGm+2/z9tjP5GB+68cw6Jrdqdo5FA1TdOQp1h2Y9X8NkcjvdmhQS/srLOR9TfDiiXn2Ma3fJzQ68JnfstvFtX3wg+y7OxPG0xhn69OvA5cmUj2GI3YRKIgygZKzutKkrWA13kTM7rQPMuGAoskj9IMycr0y9GlCPIqv/tEXFJuN9t3u1s6zOH+m5hhaFEZdeCIZ0hEVQ0imQEYXVEh2VswMOsSSTcsw1S9bKwv2/34X8dUqNnw0pSILdu2CTW74FRgpHZHO6rdE1I5rqP6NaDRNUlAOShmCpk4jicRAhRxTqUpkcN8gGogUYZLxzk+zK3ciiiz+F9U93L1mitkwxnOq+LGmXZzsKPaobfwn3iHkU0mE8lcg6GpLvvR/5BJPnhIxUikbu4eJoQQr4HRsyQjGdvaeq5e5zrS1QSXJc1aodpd7sBir+Gz2s3XV7mlKhlrn1h4U0b/OSbA9M1MSdFysUQD5rHgaWoyZynTPQpfxtYxwUVpmxulww/1M0PISf/DWRBtPZ8Fi2B2rJVf58t0+/VluQ/GqFmfuVpAJZMtvdcher+xAcLYoI2cYG5K9mgbYmQDIYfquhmPx6s5c/1leVrpgKpd3dNrJ1jlnhVyLWdjnfp+xbIsxTTJkN1QAGsj1JuZRTb5mKZKEr3foi4j0/hAkbou3daZgB2qgWcNFgvqPW05hE2dbbatHfpEurGJys3k9qYkRRKi9bMus0PH4wTl60rMVoZCpBxENzbsm86wivRmbUpqPkb/K7yNWOYyHXJkIg+p+PTM4FM/iexiDF+WbCUCdSS5gQzddEjj/scT6MaRuIyaalz9sijumNtV5XoBlloiO3Us3rGhq1yNtj6B+yqguibbZDPNlzmlQ/52OyakkwxqimTyr+OQ2MNZiLMxkXN3ELppb00hnPLlY8GGbbceIlbi+IUvHgIVHHb8btW6o3BSi5mnxe+rRugZqVTtkO8q+dxGtt3voejKNaT0OjN5A44i6UP2ca4sGcnffVk/z8aHOrKhHK5/i+o1g3Ycq8+l7rLs7hT48P5OCZKhymtbCnXKX089I0k2FuAO1KnO8HUjXZKT6zI129B/x1qar8qjpDfmdL1DAnwu/0QWVw9s0abduovUzfVVYrvldydAiaodPoXjrgrULYbBS84mZHUWbiwfuEiHEBMbcWrP9FF03SHRU1pxRne5FWja3B9lF9ItmdhAqqO5hQxd8nQ+n59x9AXg/mIAjV3zMWYigW5T2l2Plt3jo0p1GbTbkcvkRiV3ztwRuspYRJTmZ5OjXMzCb5hSFjveudRy+enomIZqlqqaRk4BKXNOpEgdjJkNU/4n6VRf1VzEIpxeHrQGqbrFXnE5jozEqvS+HKhhum4/oSYVb9N0t+L9QmN53Y//OTeJkroP+m+CrvO6REn0bGoROx12VnGID546lpVEioECnOqxQSIokGULcf0zEl3zJtaWhRrpgiyIOoQ4fUZd1TmslBv1AMjIntsdO9mTS6tjpS5vYUs+evRY6qS+9MzuGLnXCCTVMKDDlrKn9AnJ3UEgdyJYQq+KQY1dM2l3WG7MeNo6u1UKgRLBfA+nCCu7Wm5UJwVE6l/gaBWByTNwHzdZ9qbdVBWUWmwkxCk6UFMngz4t9QsZ9HIr84awPrSyWQuYNlVj4W04o1l9CP9YrSU3SfompHNvDyNIrFSBWo/CGPH2O1fqH+yW0SSMgSO6QkNVzuoRY/g+Gp/WXThtlb9gapJeeIgwrCf+gUnPo50ymoHCyGcynR/Pz1ddTFBkq7ax2DNmcEEwe5ogUGM1PGhHPSY/L04y4T3ukNF0scLJk5Roar4JxpVNPQL+BjDV4Xp89s9n1DJFgUkSK4RNE+muZTKapSl4rHD6CujneWb8SFcQc71VjOBW4WLidciKo1wrPHjebN3chedrdshodlAWCdPswEheGymLd94aVnBFFuNAvchxRKwYn3WLO8Mu8GerStJLngEVzmCShaPIrZvjd7NNG1FwC1bEpK+02DBFkcktl3tne7DLMpqBBX6Ft6R0EkQVZfzfLlzErkwU77ipUIlT8v1MoIXFVm4LDQJfCFirulSSPEfohdhtkfBubT0/m83O5t4/Bih4D+mQxvU26Wqj+PFnleDKvgeJDAKs6CUY+TXW4a4X201HNlQanfvT4503tjbrb0zVNMOsnWl0D/tn/2Ab5pAMgMoHxTjzt9EOFn8juOZenSAywtPsahVaBivLtOSE1RBZN63xbAet0YKJosjo/cmKsq0R09Nw1zsLzocJ+vEt2PiAOlJjm/8lCv0rvwZRkl3q4bwIz3qqZh6sDEGQYcrDmjqz9k3+/nAm6rjKRNDfVgzF0lN0Yz/QhxkLuKAhUMXIrZ5UCq64d4kRnGTuxNfcqSpcdfhKu4sa9m59aBQmZuTuqExvnfMu89tG7AfGiI3kSaUFtH2RG7yv/HJLu/hY0opZuLpDYBXIllQMZVKlMsuxUZoHtDrFT5h3uN9OigtIFfIa+Az5DCXK9JQVF+OtWvyFmxGbMjfrOtH1oaCWCEG65UnboFuRrqdPKCrT5Pm2/OJJpOIO+kOWVMIpIMuPBu9/fa/42l6xVw3YF1e3KjQtKYpl0y5JW7tjs/J+Qakjhi/IICZcaokWlHo7D/2YldOu+6fw6GFRz1jJN7w8bvrypA4B2dRKfirjIkPnSVXqlkhOxL59kYlISj2Yxpm9RJrwLes4sDw9uXgUfxuztBWAzcbR5/L9MNyySb1lFz5rXkNfY6j8fp8KdTWpPeKkUkxMcQZIXvFvU/ABhKqDSSgJE8OqypGvzbrLLnhWYFTfmcJgGd1anLFOigvniMZF783ZwNdsFxRa74+wwWtXfG5aE+w5s7TnoHHc5W8pXrfAQwR1k/XR4hVsdJ2CUmYi4D4UUtw8sYGUxy6xRKfXD4/xV7rDMzpV1Zo+r3LldG4t3ClR8VP0B5OLRuYifSOybeu26Am2j+6eFnCgxA9gGhduX2QRCSn3fadXlz8eBwc/L6pPNjmiZajF1cilgAnopjFZjTeSKmAoNmvmPP4HbXr/dtQfjla6oXOPMCC3dIqsa1Jc4JJKI2T05BcsSZ6JJGcWcTC3wy5MNyc0sA9fUE+bjRVOgVWcBXXYBxDL2s6zkyHekKPVoAOdMf5S1AcVQY973x2cVPIaCxTzK3VZai30RdSiiHuyxWtZHaKU17LPaiQKtNPkaA6LBIwRW7ABBcxG+kjjiDEZ9WPETnWJtMByZyq6+kXlRoUhUn9VKLkFNnDEGHG6700YpUM1YcbAEaXPG+vlIZ4QzBMisdsbVhLHaH4dlGMSF6f/BeLeEVHYusRy0yVRMcJhCKoOnLSDI3NZFuqAOxHG7424xzgXKJ8/ZHYyegHdl6+caEKHqPI/tEHXWX6B6xljnVPyvwyRTK1VATdw8frzkgty6YK4eijgCOnVr9GI4ImYFW9KseYrhaFoD2tMblqwxpbEKDN0YW4mzxTRaA6/MKQRhCAvgWMht7IYA4a2dNofJ8ISvYisE7OxRVnGTQlXwvkuM/UfMNCRBVHJpiimEQa9L4GZUOcO0VZCapCkcQowglsmM+7YQsllXJQx66nOQo3SeVlwXCeFVbtNbmcsRDono0QC2oBmaTe3hmPtRMaI9fOHkhBQZJWdJ4EaJWh90wrCCtGufjFMRZJTQPCFDHPVK0TGJsnxoTCzqscUZR/S01xIowSsTBCVJOt4zV6EkSgIBbNDHsuqiOUQL0gOMCBDKmpcg0CvKT0QgBRZ8IR5UZqwKkb9N2wFig64EjTsbE8GB0ThE+nD6ndlU7OLHFHSO4M0qsvfxCW0M3Ah84tiLPjd7BQgoixW5QuEuaeEskO2WM3ioQtPj05DPcYns2OU0DhRfuvlsOJ/OGsogW9TdPSWwYSTEkzTM139IsAEUapxCzA/Jt3E3cOi3Jv9I5wJTyDTFCw094JTkywgZYsFB9WlhuRhZTllHiM4JkgaMklO9F+C5swXhCC/mvJMqEJq9dsbc/4P7qNKG4ndano5ZCOiR6DctDXHMbjFHbx7SSy5LGySDnOhbxC0JLNAxCHyf1CUFSQuBKwepIkl6DQFj8ABi+oyDfXGq/ZHrrmKQnymBrpJlFoUowcfE3MBqLJGtcpCjUsiBwc+VPAInNWnXneLbDaRX/iMC8aMpXOxhaoKrxlA4hBTmh5U5SoW18D2LDHsiOMIIjacVLL51nB/J0nsij5DSuIGjAUYFXyKgAX0wfF8e7vQ3wbe2UmlC2qU6DzllIuQz5jNWnH09R/BpBFjKwy9ZA2NW3FmHG3eGklsOAs9HprBlyc4T4mSLzGF2eJU/6tyEib/nHAB6KGqWRhKvMVSQhpXfTatB/x7+qKgXxYRGkHDuYu3z6tG+6zKxTNAPqNbZWVRtdaKhnpwCdVpHk2QeYNUUvAEXAJI3g1TxFNe6MSGK4zVcV9EZOOYZu6KgAldncZLkKAIygUMoM6myRGoUQIOjrUr9bpMUvhFKjbOoisMAbB3irgATtjY5U0S2LKkWUi0kZQq7wDtRdIfiJJKAgGwtcF4FL/yl+AkvcCyxHv+DAkuSqDjhE3FqV+UP8p+YsSb7hJAt5wIya3wy3N8/C2dIsOv9LqHzYswOwx/R8imcctPlIVYMIWrspDJRdFHll7BOR++pwQDmotESEjrBcELbjjPve4Ye9Z/4yTHnbhXS6hyyMjG23LEVPDV4rySg3xLHlvjJsYSMuqGexvRn1h5EAcXhOzDgnODLpMXrkEii+CtsjYDgcrhbRlnR9iEjVzIgV3UVgXKmT0se6Wo7uRKoVkH8Xxas4AaRXz+RjRHmDxhNmvtT2qw8HzQ38FUshrsTosPpzCV0nDdBf7Bs3F3B5jkFvu3guZqz46+IioQEkoqCWwkiq8UuCGZzfo8TqKNTPQYizGWLmpgTPiSoLtKLLlzplsThuJs8dYULL5HHxB+nsQFvDH9uFJVUqmYMWlM/M21edYBlx/HEvA6+O3ExkwTlF0truWlsWa/NGSi/ciqrbVhFzCnHitSUugIUiGh4qKgNojeC04ZBsxmfc63QI65Ypa1yqylO2I0Jsn+CdswiTFCs1tzJz4YS8g2t9EnjIHolsFh+OuRN4IF6URIDuob4YNO7Hy6zIeI8ZZ5Difp8UleW+mvXcfRjkcWU3RIy+3ckhPBqKvAC69wl/Mpf76IsDUdvrnHNib9s7XnrYP+JDngFCkYdARJRgDFvzrvGRH7ZMNpjTETz+Ekoi5a2TQoTM6Spc9fFNXdiGUaqqoahsL3oPI5EFGLCpGV8IuEVnaCMAoyYRO0KkgqdfhYUdBwDsBsVqm7Oydx63eNZy0Q3NGlOhB02G2L63cZInFDapEUUFFtUBDrIqrJf62P6cd5DifZ1pVCXv8u7AIqgain0xG3piNEId4EEqb4XtSp5PPP5hvOEZaMtXkGJ2EfUbz0bKs9Q+HEFWCv8rejT2m6YCAVEnzfgtogPkIq+uwr89P8d14rMSzsFMBLz1TGqSvqfPlqQel1XmUooiAQEq9USCipxGsznqMoxcywoexjp/XBnu8VA6jMUsRGymDbha9TeD4EIFIw6AgSGoe+i1FZG2R7IqMrmNefcRJtEVA01mH/ey8oK7YLW1cx0HFT8WmaYpirkt6SihNwkYJBR5AICR1hEFTEET8Va9M5IzkjkZEbnNuzWWP6jS7Z+1ZaiRKeCoGQCST1iMYVffY2g10Yv8fQDstMRbQLIbUwBEklg5fLDLERcYaZDV2y3JYWOqDplN61nZaX8Gb8ySL0RKwyuDgcFJ+kl6JooKqU5AxLfj1K10D6k7j2eUVt8BwyHVFHToNvPMzo1jIS3Mz3nMm6ovZ5bBeunlg64xGhQ6MvW9uqRW5WVjd1Gg3Wq4L9Sozoa8AoqRTfElQUdlFtoSjBzG7WlJMkgluPZoFXVTR2ffG3BIhin7MWagVZVfiyPd8URAo0jPDr5h3WY0VhpS+b1nge6VLXyNBNtGJoyhlMQcM52oaFH11mN2vCSWLBBY1Jx6nSOIrjlcqunljqhv/cCqpxJs/1pkS17JTPEiJbJg1cd4lj3MA3aaQmhwc2ZZveLo/m6RvzAJKNv+jnGAk8X1cF+F+R2nvoMlXtxmZuGaay+kHj3G8c1ym9etOJYlrR3GXdUgyyWojsEywU2fnL9oLtpKObYZzamfjnu38bqNHzZkN/vNqM/VFQ9f8eUQUNobBF2dUYRLPuhT/uOo2e03BqLkM7Dqbb8WrsDxdny4J7UHIMF4IdTVsuNe1V24DeL2ARokYz5hdSoBrnC5/5/NCAybHKEvwXcsCETdXJkC8AgJxAjS7WL6SAh1xqNGN+IQVMx1Q2y3whx1pQ4/xCDaDk2Hv55PlbAEwq1Tig8IUU6MTBe/oK9b4Bk0q7Fzg+MSAbeW5r2WcEPEH1yod6Pha8b1YK3fiicfWhBdH/CeUsrD0K85yfA/8HyvayNS4AWw4AAAAASUVORK5CYII=;" parent="1" vertex="1">
          <mxGeometry x="582.5" y="326" width="127.11" height="66" as="geometry" />
        </mxCell>
        <mxCell id="3EpMYGW9OJJ_J2EonweR-16" value="" style="shape=image;verticalLabelPosition=bottom;labelBackgroundColor=default;verticalAlign=top;aspect=fixed;imageAspect=0;image=data:image/png,iVBORw0KGgoAAAANSUhEUgAAAOEAAADhCAMAAAAJbSJIAAAAllBMVEX///80bJn/zTr/zDQuaZf/1mtmiq3/yiMaYJL/9eDg5uz/1F1Xgqhqjq/S2+X/8dQjZJT/9Nr/yy3/2XJdhqr/yh///fn/2nevwNKKpb8bYZJni63/78f/8c75+vz/341zlbTCz9yAnbqPqcLk6vD/01j/6LGgtcr/5aPN1+L/+ev/7L7/0Ej/6rX/24H/4JNCdJ5LeqL2FztaAAAFx0lEQVR4nO2c/Vu6PBSHEaZgmiGKr6Vo+VKW1f//zz2yafEUjEPKxvx+7t/qCq7d19kL2znLsgAAAAAAAAAAAAAAAAAAAAAAAAAAAAAAAAAAAAAkuRmNo347jX40Ht3obt65dJbM81k2vseWHd2NPINO22O1PJjXNtVxFhH8hGM0093Yv9BhPskvxmcGhnExoQXwGMbJQneDi7LwCvjFeIYp3hQVPCgatXDMakz0Pc87LBY0Q1YzabqJ+CTj958PsotP4ozjR7qbTafD++hkc/xxSVT0zJlQ23HHZMuvn/vEdbGtsc2FECH0vofVzeTKgjjmIewnfvNBM2RjbW0uxu/WErtpraatzYUQa2FiGFrWJ9HQkDVx5P+Mx4waQn+kr9kFeBSGk+ev34yo3+D+o8Z204lOETtNpk/kTQaLdDaczPRoyD7E5P/MyLsMNtXcdhqNkxCbNDajTZu4GPInGrobT6LxHTLm+9QPb0MNiwLDigBDGFaftidBvnQYYvh0I+MaDOVcv6F0M1xNw9lis7ydNmhMp8bFcNT2J7L02S/yDeetI/X99n6gV2+2IZ/30uCGvcA5Ebjhaq1RclEgu1TE0LETOEHwrstxXDw38QfDA4Fzr0WwfekAZhradri/EsFMQztoKReMyhDMNlSvuClwNHERQzvoKRV8uvwkIwxvDy+vpxra7lalIfmUvqhhdHh5K93QDpvqBJ9LCqE4EX7NMHQUDsVpSSHkp/qDDMFDP31QJVjWKBSZmaabZejUVRmS0xDFObx9F2QZ2uGLIsPbsjopzzkOM3upHawVGZazFtZEJ80ehuq66aysYcgT47vMYRjPNWoM/1DvRINngFeSGKoaiJ2SDP04L34XSgRtV82iX5KhqPqShtB270w25H10LRuFhht6cdr/JXstNN2QibqGrE9S8w39Gi+k6eWE0FhD5i152cY+T9BQQ3/SEJVQ9VzB6hpmXyjxvY9H4feyyhespCHzPa/WbtymES0fF0/Hl66DnEmmmobMZxHpZtPDq3wdrKgh89oLSnH6YLdyKQGsnOHk8zn/XVbzredQ/aplyL4KKZu7932vnsrKDl3S+Kugof8pppDm+2sYfGfLflJArmKGvqgx7NaLhcgcQ77Tswb78KJ6FTL047N5q2kTlnAzDdlH/FcP9BnSOEM/nmTupacRZhtO4mWiWYpgNQzZZ/w3dgldVJ2h/DSR313K3+lV2lB6Iszvn3XL6aPKThOlp/r8xnJWjvNsVKVmZJkZ3yoxhKpO9WXZNZ6mnpc0CtUlECUZUr6jKMlPYXZNkuX2nmRJ3HNRliGVVCqww6b+zfhOamVXm/BP0veyDNVVKmSPRJ7jlKSpz0JltUlm1ZespulsVFYMHbhNXTHKNFRb9WVlVF+WaKi4ci+mn6JYnqGGAlPLWv6ebkoz1CKYVslelmE41yIY30b4cQm2HENdlezCcdT2EjdK/MsbOoG71X2tJL4V1D8yzjfMPABPIXCD1ptevTRyDNNTGGn09N8KSifHUHfzLsA/b9iUorvxJHIMXQmhnoW9KGesFir3uGcAQxhWHxj+3ykIEqn+KzR0W9u3bf0rXXx1ho4jzge7p8pZQwzpp4nB6RNmcMyoOkOtLadCPhFOpCEeRCYgeNfYbjrkU30nsTU6OldwM5gCNTPjrBIP7Xk3VZXjPRdqCJOf2XMxELW1uRhz4lTzmniGJ8YdXUdqRaFmud3u1yMD/kjYlby1UhArFRLdlA9Dtcmls5BfQPsmOP27iy2fnEI11TIXYUhcMILV/cAaPIibFoEZy71gQBOMP7zDMDx9llby5DCLP5TUmDPNCHZFFcOd7iYX5b5YBa2rMfnyV7oOvSYjcAzrooLBkFjJ7oRDoyaZBHctQld13JZB6+Av7vaOK7lREgSuszfZj9Ndz4etdIbztZHjDwAAAAAAAAAAAAAAAAAAAAAAAAAAAAAAAAAAAErkPw5afT+R8NfPAAAAAElFTkSuQmCC;clipPath=inset(20.67% 20.22% 21.56% 20.22%);" parent="1" vertex="1">
          <mxGeometry x="735" y="339" width="39.06" height="37.9" as="geometry" />
        </mxCell>
        <mxCell id="3EpMYGW9OJJ_J2EonweR-21" value="&lt;font color=&quot;#ffffff&quot;&gt;&lt;font style=&quot;font-size: 18px;&quot;&gt;Application&lt;/font&gt;&lt;br&gt;&lt;/font&gt;" style="text;html=1;strokeColor=none;fillColor=none;align=center;verticalAlign=middle;whiteSpace=wrap;rounded=0;" parent="1" vertex="1">
          <mxGeometry x="635.75" y="279" width="107.5" height="30" as="geometry" />
        </mxCell>
        <mxCell id="3EpMYGW9OJJ_J2EonweR-26" value="" style="shape=image;verticalLabelPosition=bottom;labelBackgroundColor=default;verticalAlign=top;aspect=fixed;imageAspect=0;image=data:image/png,iVBORw0KGgoAAAANSUhEUgAAAT4AAACfCAMAAABX0UX9AAAAulBMVEX///8rsuAkPo8hsN8Zr98AK4gdOY0gO44ArN695PSo3PEAKYcZN4yZ1u7X7/lcweb3/P4PM4xXaKVzyOlPvuagqMk8UppCuuTq+Pzz+/3N6/cALYgAJ4f4+fzf8vrP1ORwfrDH6Paa1u6Ezuvq7PSy4PKnr82xuNO+xNp9zOpnxOfi5e+WoMRpd62FkLs6UJnGy99GWp1cbKcvSJWNl799ibcAIYVldKsAHIVEWZ1QYqLY3OkAD4Dv8fYgAFwFAAATG0lEQVR4nO1d6WKqsBIWEwQVUaoVFXerVuy+nN7W2/d/rZtJCCQhWHvqrR7x+3NO2QpfJ7NlMikUzjjjjDPOOOOMM84440AYbJYv47e327vFaHDod/nX8Ll88qqe55RKjkP+M3449Av9SxiNg8ApCnCq99eHfql/BaOPP17JKsqw+k9Xh36xfwHri//cXzx9PAemI1PoeGcB/BKLu8hQfD68lgJLFsCbA7/c0WMjGtnB8jmQBLD6crAX+zdxWS2J/DH56zUO/Vr/DK7ePZG/P1T/+eVDv9ZxojN0O6povZoifybY3449O8TbHTW687phE2B/Ve6KJy6rov29gEMTu36YlzxaTDFGBgVCGDV7wqmlyF+VDt+Z3TrQex4lhj42RCC7NUnOLvuC+9Kmhwx8lr8YEy55IoH1YXxeHL/VERzp2Xh1sNc9MvTS7FECEwNxl9gP544eCZE9P9T7Hhc6WvYIsBGrwHHsQFv37CYb4c7BXvmY4GewJwngOJY/j0UmK4TO6q8ANjeLPRDAFndi7rj9CFjqpWMb9tl9JkN3C3tEAOMBvIgCuEj6iPZD/sHe+miw2k6fgTA3EZu2aRH2bqMfy/gsfoWuvZ09gkQBLtvV/v0nvxMZZ/GrfSF8VAEmLt7VOrm1jgzbPcArHxMManZJoEaAskwwDnW3zrCBmr/9vseFHoxdZBuryrxSCw07wwXUhmgVIrgo37k/IkHEOYm9Y7dm6AnEfjd17xzunaQO5wnEZban0pFyy9aGcEYqxgD6UK4zf8TpS4euE19nThBSzQRIbr5t7wTjqeZwRWdEEgcwAg32ch34TrE+7dlt6kawLeWoelRGifJzc8tgM9NxK+sEEPtJDjDKNOAKeUrtV172+NBKHLrOpFKrTcuxJHXrGg2I8Ix7KiE7jUAifT+fAsjzAZ2ajxnseuyK1HQDGKMaUOVy84LgD9BF+XRgmN0chqK7bMeRRM/QuTDYNlp+zCyiynNi25UDfcIhAUqru1KkLDEn2gEMPkxyQ+S51JGdQwU4BBuRoggnkax2AEtUMvpcW3W/84GZ1kNJpnkn2gEs0BdFwxC+5G7uqJExOoVESsYAji+NbDckvuye/recKrra8AwCXPGqrQMYR0HvBCI4lM4rnDAamXNstsSD3gJH9EUj1oU/RK7m3rLZM+yhfGWYmdLnV7IQLk+TH1uUWiqWq2TkUeOMS5k+TB71J40ZHW4s1lC5SRsBtYiIj13urczYI3BevOcyjEfsT91OB3LMX9GX4eJgriQj9ZgX8YPZcZTIykzmT5uI6akkE/Z4qDHnp+x8BL8hIpIiGIi6JFqK6YjQSAkg13yN2DajXNStkaGLpNkfV7KtdkYCqidpQIT4Zc34cD5Gr0+iftnHlXw7O9P/neKYKRxLb03gPg/Ze6Kq1PEpjV6cPX3bnSGMCLC94hdNRcnNQ+GBn64NXUlqbdvNjXnT9+uVWMpm0rjHpx/49myUKruYCfR9Z/pRTSnkgL6VprBWpM/YPXYtq/Gw3mifEhqGZna3KUrfrpU/nTDlS59+1UvP1ui2ujgAdyu9aNQ0CxpOP+ky5fM6V8tFXK8npl92ilwb03QUkiSwThghYv++mEHwZ8T+3xCpwF/nnbo1pEvCIOPkx27BYJrvA9ZqlN7ZsaHku31lPd0m1me78pBxYWmSD7ZSt8pqlcsiHVkxW4S5n5W+px7PeuvN/zy61Od7jdYJVTf0oFTjvCXoKHSyKiiBPeoPnXjTly7klB74KheTKT/R8G4J+2HUZk98sEF/k4OuQ/e8S0aVjTVJiLIW6871laex7LFc39Pp07eMl6iZVPdJlkPvNXen2aOW3oWYwRkEp09fmwufZdGf55Lq03jNw5XWURFu4kVqy/4vfsdhMIrXN5docwI535L2Ptx0cKYgqRB6LP7ihxwGd3F7EY+1BpKmfNVivV79C/KQ3YoTBdf99q9+yiEQG47I8HYlJ1hOmvRaXyx7Q9hIopSB5Tz98sf8Oq6StfUePTCR6MNCqt79UvKwIYa5T060Wv+E8RDT57DlpRVpBihx+1Klk5phK8XHxBn3lr/7Mb+Py1j1BayrnJjsE3LNmtJJRfBm8swGtDwwN7/7Mb+PxHJEPlpLoo8n8rV1BQl3KCzLwd3Vowee0Mm7fa+8tWbpjR2QiYncvlmmyUDYNlZlNTC+9JxEHZwyxpw+b0F/lvsZRJn8chZ7yDZm6YwWb/Znnn6TyVj6onSLK9PHLKm++o+MWQ1365ti1GoyB2O38MJ1X9QVQ/FbqC0d6oRPNbSAwejmve9xR9LLQYfOZUSf9ch+nsv0TdLHIvLqSgnB1fL1Pah6Qo9T71P9ZacHHvI6Y/ZzRaaPDs50dxzsy8Hc5qZdDZT+usHit7/lABhEus+LAoTpLvRhOY11/SFJXWTJH3/9Ww6BW0dSVDr61MErZ7HWH3JT2EgZBPnojX3Nojbvkv041eg+ueBPKXsZBRryisX+6Pc/5SB4tkTpq+gcF7l4RZr+HjipYQuyVz3xSaIELFnPkyMKfSxbqoikmMS6NjXsOdbJB7sJ3mH08ZhNmuTlQVtDEj8suiyjfoo8q397+v5ygjUwYD2zHxQ9F020SVGbXLvyJndjL5aq7dwMXIYF+H7VqJWhYmWjZIDYm06pp3xN4gzLCYK3nJFXYGUGUcpAMRNxebJYOIrlssf1S9szAd79eJmDSCONNy+O2pqylY1nzcKEv3TB7udmNBqtc0kdxW3APTXZRxay9ULGFNdPv/bse7jrR1FWVynvTuzEJKmBREY+FlztjmW1zwIPefRKRY61uJQP2f48V+vFv8T6/b90+CrZPSk9IBSSImz7s0rZHXaGw165MqvP8k7nZZ8GC0oDXTlB0CjX49ac0KfTjtA8+UUIX+PzFWYnGsr6DBzKFabd8sxHNm1wyhqdGs3UXFFOsYbxO1QKqBCauYyfhjtn/+m65els1WyuZpXJWe4UuGrLOSJhrTCs+zj3Cm4ndDS1o9hGsxysMN0P5oadiCCsOcVhjjqL7AG9mY9t2scPG/Xa6S+O3D8aw95k0hue9d0ZZ5xxxhlnnHHGGWecccYZv4DG0HXdYWrb6+PF4GpDcHUMRS/uzEcwuYAx8pvzfyDJu775cEyzWoUChNvLw1ZduS1hMwOYZPCnx50KWT8l1S9Fy/GqzzeHqzjlfQWTPQrQcffHW/ZZ2a9FEFH452BLBOmyKAS9K3zfYP2BhVKTSfPoJgov/9CiVdN7vn8m/9C6e2dHFXgzHu/3Zea0N7AxZSR13XnTwMK2DiE+NkkcAXuO87KhjA02y3HRDF53vNnxzP2+DYxY3BQNbmNSjyduGlgu+TwCvIOwfUg1V6PbHcvFR2a0NHtfgJLZLf3cJkdH36ZPVN3fdjJ48fZMH3S3wNnabYaOjb4bL15f/X20rT3T52/fP9g4Ovpgnav3l77y2iz+H+jLHrswtLNl0y2XJ64UpnR65XIv6/qu29s6uaa5eTghh+QZ9LdSXGy+DeuH6+uR6gzCIk8dfevRNbn6b5qyAX1Z3aTKPvVp/Ai0bntOvBs6M9tZ0blawUgPVwabvTVWKYHtzEPDptfbvlRRMCEPhoLIRsVn51F8s7tC7A5DvOPWKVpf9cAZjb2+GQRmv3iXcDK4LMIaT+u9TXEfLXYqLC8CuJhcHTy+fHfFUj2zl9mEd5NCESjLFYzodiPTqNYi7gEJO04mbrdkyguTup3sCk2iQ6EwrWwjqHKeJK2rEDvdSHawROIfCVZZb1+QenXR5yuxLe8P71hywxcXWgwBW+x0XRKWfllev/i91ZrQCliv3aYxHYw9HNFHFwStqFwSyeXdbIZGvDMHZVXcabdCiYj21oazdrIAgagHFNIrktOwzXbHwMLjhJ3fF1+ZjlFAux14gUf58t6ZorzwHLbKy2EwX+DoS9+iYV8QeA6lsfo9q0SXpWiVXzlsNkP4HPIvxYzTV4NIBWHUgsoopsuGQDXC4XQ+n9Zp4CJ0q+9iIMJvkpOVJm07kmz3B/T5PXhcfVap1EJKoD2nNguFNXKozg7xWg5YamM9Z9uOERDiebeXy+XNhwk+Iuv8+TIejz+AqzHDLYR5C3iY2X5dLJeLuwvHdL7UCyoMlFpFm2CYMh2EPjQjn4sNVo8XkeTTp0QSN2wpzmTT9qf8KQ0oMU30RbR/Tnxvp073M24S9mrRs4e04UGsoB9L4DZn8fcJImfeRaN7cw9DPQ5JForpgFWH1nO82mYwugsuC98DC9p8vXcC7RvkoQ301X0iZ5Jyo7uPCxsgQmt/YUcmVyqhApGONyxh9In3QrsXIstCizBalBr3vGJBWzFjkD0RvswkfzCAJnjxEtZLhT5YdRhIBnfwbZeIrkpBdqirdNLSB1pMXj3VsZV2hg057yBjKHJN6ZMWY7GOG1LLcbq/e7yO4c6kC1MfdQTCOkLvRTgArl6J9wtT6SMueOnHvcTqNjN4fiXlk+npSzFDhU9yz+h+fln+NjhLnDBKn9xNzUCqN9CQ93d/pWstS6Ymy/dUUt0acLPN6DqVvjsn7rTwA0Q79BH/QC1UzKBPbblMvlbZ/wbWIOCs7Uybgq9ZTm/dDss/lN6SLSRJ6IIaV/AzPpbSaIOubZ6svh4CMkCj0ayRvm/bCg2GvAEcsg2pqWPG4FX87J6d3gLCyDLoBSasIn0KVyC5SnNEUJfiL70aV5lrVwocsYfuknDVl6OHzyrRlJHxUOmDJm/ePlrZuWHkc0ltBjPoU/tm0mPKwAd5yWotnKJPlvlaShVI8sqwfvWYv2t5XuLpvmpCEsJz6YP9V6VvQK4uBm/7SPR3KlHRNrEisVXNoE9Rak1N2iE0shtbz5BCnyy5QJ+yo0SaPiJWyw+TBRLmIyfg0UrbgmfinNyz/6r0Fa5BizrB617mmkiQyayez18+g760pBmGL4M+R7yuU57OwnqLnZHpUzYvob3F5d+go68A630tSqBTjPiD5hPPbRnCgvYUfYXLPr2/qujQv0SXbY6BudbK0H2KVPlIiIwjyPS5MyNaK8TPSfTJI3V3+iAPUAIlWGLiNfCEoJZjK32Fh2faVqwUeON9NDihXn/s8u5GX8bWsIjvJNap04lQFO1VaaP90UcoG4MbyBIAn9D9wCql4GTTR8z4s0mVqFN93Mdq/1BwJXanz6+n0WL0lSl32Pabtcq8POkNQ7RH+kg0G/DG2p/QWPL+6SKFSB9q6SMa8IJNG5f6F3uwIjREYl+08+BNb4oVo8eiQmGR7mq/9BUgE1CFoQeDd1tP3Qz6iCMUtQZ0zJ+P4Gnid+1OX3bC30h5wfum7zruN0E03ba+nJn0wUPaQKBV/bH89ZIIczf6aFor62lzNR5mYcU+6VtXeauntrV1Fm4bfcTnpvPtb9m37wboV/Mt+mrbZkSaKMVPfc/0gcVgeQIa4Ga7INvpK1yB32P+tGsHjcGY6d2NPmirqdmUjcFPhx97dFworqo80l0EW1PRX9BH4+Mfa79Kki1xU4kTHX1b01PpuSiakdonfRC6MtIgZRBtz6AD0Bdkni3QAO+v55A5wAuOdgkbpqJ3HX1srj1j+6q0XQn36vcVWJ/FPlP5FzB6M903yDZXtw1O6+f0geHl6aeOnGgrZNDXob6JPr0Hik6K3ljTrz3Sd11NGnJCutQqZVlPMNHBFt94HcRtknfDPDUlS6v94iiUpi7Fj9fSR3MoSEkydZj1qSkZKZgb+gF9m1QjsCWE/X1+9BY856JMwZon78FE8+wLvVXRc5BstdRv24a5bRurucsJ6lToxtbJtCokR1BL4E9PH8sa2CH/WzTcSt1m30ubt8SZ087KJhH1Dyzv5o/p3S42fAReLR9pzDbmVw6KJfDe4hwKNHz+E7uCsIVIMnNUuPlP+zLJDm4uPB797Yo5ZuvhjRYEWQYr0rWTzPGQzefOKvPpiuZhMuhr+GzGxKivZqsQFosjni2lW4pjgzyiMmuRw/asg39AnwlzuGZQfLx4evooVmmwEAhJqjWdr3Wqz2+vr+On+8D0rCQhvwCuveeX5eJm/ATZZsurFt9eFsvl5WsbMrDO/XfYY/Ns0Yx3FPkjyQdhlbss2N9CX6HBNhpCRpxT4coqYpbPgsOE90+kL+opaUFmgNXmlvpSnHb1Tim16GQ4656aBCJ010LLA3ywai2iKumP9FLv/nten+sL5RPsI0PZAY7bmyFGn42QPg0qt3jASdq/EQrlFgg0YgvjmD5yU4o+8gdQ6MMI+xE5fU/sCVvy+heqp3ZZCkqWcEE7MaaDi35Uk+EQY/NQNIVnOV7wUvguhpXQR1G/I2yElVRHELfJThs08ipDKiUji1yGul4K1KqJJqkXskfgFivZr9TrXD9MiNZoyb+zAr9CfnKNHOGB33oxbnuwJAEWJjgXN5rCqMHyzaJX0AtkO3L9EdB7n6mSe7h79/iVT4u/DDganaHb62UWjzWGvZ67W6OVLn2O5toOOTHc25qbwdV6RLDZEt9fbbIuGJAzm4SpQfaVZ+wL/wMQeE4aslCLPgAAAABJRU5ErkJggg==;" parent="1" vertex="1">
          <mxGeometry x="576.6800000000001" y="495" width="229.64" height="114.82" as="geometry" />
        </mxCell>
        <mxCell id="3EpMYGW9OJJ_J2EonweR-27" value="&lt;h2&gt;&lt;font style=&quot;font-size: 18px;&quot;&gt;&lt;font color=&quot;#1a1a1a&quot;&gt;On-Premise &lt;br&gt;Data Lake&lt;/font&gt;&lt;br&gt;&lt;/font&gt;&lt;/h2&gt;" style="text;html=1;strokeColor=none;fillColor=none;align=center;verticalAlign=middle;whiteSpace=wrap;rounded=0;" parent="1" vertex="1">
          <mxGeometry x="167" y="190" width="131.5" height="30" as="geometry" />
        </mxCell>
        <mxCell id="3EpMYGW9OJJ_J2EonweR-29" value="&lt;font color=&quot;#cce5ff&quot; style=&quot;font-size: 20px;&quot;&gt;Orchestration &amp;amp; Schedule&lt;/font&gt;" style="text;html=1;strokeColor=none;fillColor=none;align=center;verticalAlign=middle;whiteSpace=wrap;rounded=0;" parent="1" vertex="1">
          <mxGeometry x="572.5" y="463" width="239.5" height="30" as="geometry" />
        </mxCell>
        <mxCell id="3EpMYGW9OJJ_J2EonweR-35" value="" style="shape=image;verticalLabelPosition=bottom;labelBackgroundColor=default;verticalAlign=top;aspect=fixed;imageAspect=0;image=data:image/jpeg,/9j/4AAQSkZJRgABAQAAAQABAAD/2wCEAAoHCBUVFRgVFRIYGBgZGBUSGBgZGBkaGBkaGRgZGhgaHBkeIy4lHB4rIRocJjgoLDAxNTo1GiQ7QDs0Py40NTEBDAwMEA8QHhISHzQsJSs7MTQ6NDY2ND40MTY0PzQ0NDQ0NjQ3NDQ0NDQ7NTY1MTQ0ND00ND00NDQ0NDQ0NDQxMf/AABEIAQsAvQMBIgACEQEDEQH/xAAbAAEAAgMBAQAAAAAAAAAAAAAABQYDBAcBAv/EAE4QAAIBAgIECQcJBQYDCQAAAAECAAMRBAUGEiExBxMyQVFhcYGxIjRCcpGhwRRSc3SCkrPC0RViorLhFiQzQ1PwI0TDF1RjZIOj0uLx/8QAGQEAAwEBAQAAAAAAAAAAAAAAAAMEAgEF/8QAKxEAAgECBQMDBAMBAAAAAAAAAAECAxEEEiExQTIzUXGBkRNSYbEUIkKh/9oADAMBAAIRAxEAPwDs0REAEREAEREAEREAEREAEREAEREAEREAEREAEREAEREAEREAEREAEREAEREAEREAEREAEREAEREAEREAEREAEREAEREAEREAEREAPIiROc59QwovVqWJFwg2u3YvR1mw64JNuyONpK7JaYMTiUpqWd1RRvZmCqO87JzbMtO8RWJXDpxY6bB6hHTtGqvsPbIJ8urVm1q1Qlul2Lt2bTsHfKYYWX+nYTKulsrnRcdpzg6dwKjVCOampPsY2U+2QWK4Sv8ATw2zpd7H7qg+Mr6ZRSUXck+s1h7rT7FbDpu1PsrrH22j44emvyJdeT/BtVNPsa/JSmvqozH2liPdNVtJMzb/ADXHZSRffq3ny+cINyse4AeMwtnPRT9rf0jVSgtoow6knyZGzXMz/n1fao8J8/tHMv8AXrffH6zGc5b/AEx7TH7Zb5i+0zv019qDO/LMwzrM13VqvsRvEGZael2ZpynZvXopb2qomqM5P+mPvH9J9rnI56Z7mv8AATjpR+1HFOXlklR4SMUptUo0m7A9M+0lvCS+E4TaJtxuHdOtGVwPbqn3StjNabbGDDtUEe688NLDPzJfq8g/AzEqEHwbVaS5Oj5fpbg61gmJQE7NV702J6AHtfuvJy84pX0fQ8h2Xtsw+B98x4U47CbaFV9Ueih1k76bbPYO+JlhftfyNjXfKO4RObZNwlbQuLpavMalMGw9ZDtHcT2S/wCBxtOsgelUV1O4qbjrB6D1HbJp05Q3Q6M1LY24iJg2IiIAeRErumecnDUCUNqjni0Pzdl2buHvInYxcmkjkpKKuyL0t0w4kmhh7NV3M9rhD0Abmb3Dr3Sl0MtZ2NSszFmOsbkl29Zj4eE+sowmzjG2k31b+9j1mYMfmJYlUNl3X52/pPTp0lBWXyQTm5O7N6pjadIaqgEj0V3d5/2ZG180dtxCjq3+0/0mlEaooxc9dyTckk9JNzPIiaOCIiACIiACIiACIiAGSlXdOSxHYdns3TfoZww5ahh0jYfZuPukZE40mFyeelRxA3AnpGxx/vvEjKZxGAfjaDnV2Am11Ycy1F5x19ewgzVRiDcGxG4jfJzL8cKg1HA1rHsYc+zp6piUdPwaUjoGielFPGobDUqrtemTfZ85T6S+G4817HOCYjXwWISrRbVsddOj95G6Vsbdh6Z23KMxTEUUrJyXUNbnB3Mp6wQQeyefWpZHdbMspVMys9zfiIiBx5OacKFQ8bRXmWm7DtZrH+QTpc5lwn+cU/ovztH4fuITW6Ga+Y4XUwxK8yIO4lQfcZVJ0bRzUxGH4txcqnFuOlbWBHds7R1iUzPclqYV9VwShJ1HtsYfBhzj4S6nUV3F7ksoaKS2IyIiOFiIiACIiACIiACIiACIiACIiACZcKTrpbfrLb2jZMUt2h2jbOy4iopCDyqYI2ueZ7fNG8dJtzb8VJqEbs1GLk7I0dL8IFoBucOoHeGv/vqlp4KaxbBup3JXdF7CqP4sZWNP8YrHiUNwh8sjdrk2t9ke8kc0sfBJ5pV+sN+FRkla7pXY+npOyL5ERIis8nMeE7zin9F+dp06cx4TvOKf0X52lGG7iE1uk1NHsY1KorKeaxHSLToi1KOJTUdFZWG1WFwezoI9onMsu5S9nwk/hcSyHZu5xzH+sdXhd3W4mlKytwfOc8H7C7YZ7jfxbmxHUr8/YbdspuNwFWi2rVpuh3DWFgfVbc3cTOsYDM2IuDcbrNzd8kPlaMLOuw7CCNYH/fZMRxE4aPU3KjGWq0OHROuYrRHBVtq0wh6abalvsjyfdITFcHK/5eJYdTqG96lfCPjioPfQW6Eltqc+iW2vwf4peS9Jx6zKfYVt75o1NDcav/L63Wr0/iwMYqsH/pGHTmuCAiTDaL4wf8s/dqnwM+f7NYz/ALrU9g/Wa+pDyvkzkl4ZExJpNFMad2FfvZB4tNijoTjW30lT1nT8pM46kFyvk7kl4ZXYlyw3B5iDy61JfV1nPsIXxkvhODuiLGpWd+pQqKfE++Yliaa5NKjN8HNSZK5Xo9ia9uLpNqn028lLdOseV9m86ImGy3CbQtIMOc3qVAe+7D3TTzDTgC4o0iT859g+6NpHeIt4iUuiPybVGMep/B7k+hVDDjjMSwqMvleV5NJbc5B5Xa2zqE1NJNMhY0sKd/kmru7Qg/N7OYis5pmtaub1ahYXuF3IOxRs798jHnI03J5pu7/4EppK0VY1sdyT3eM6LwSeaVfrLfhUZzrHck93jOi8EnmlX6y34VGaxXbCh1F8iInnFh5OY8J3nFP6L87Tp05jwnecU/ovztH4buITW6SMy7lL2fCTCyHy/lL2fCTCyqpuTxJjKeSfW+AkiJG5SfJbtHhK7mGl9atWOFyygMRVGypVP+DT2233APPtJAuNmtI5blMdi7LPt8UyC5ZrbunxlDraIYo2bMc+NMkf4dJhTXuN1B+5Nf8Asdlx3Z3iAek1lt/KPGYs3sjd0t2dA/bZHSfsj9Z4dIbehf3fGUWloVirE4LPRV6EqWdR1FtZ/wCWYK+Cz5DxXyai5JAXEIy6o+cxBYW71HYd05tuG+xfzpL/AOF/F/SYjpS3+iPvn/4yj1dAwNuZZ0wdhc06bBB16oblDsQTWXQXJb+RmWIVukugHt4oeM0k3wcbtyXuppW43UlHax/SRWK0/wBU2NXDKeguL+9vhIrLuC3DVrls0q4ikCNVUdPJ6QzXYHuAjMdG8kwjalTAV2YbiWq2brBLqrDsnVq7JHG7K7ZmbTlnNlxtLbzK1MHu55rYjG1Kg8qo7g9Llh3C9pg+QaPvvwVWn+9r1NnctRvCfC8H+HqXfKszZH2txVQ3B6ARYMo6yrTabjvEzZS2Z8tMTyLr4+vhKooZhR4tzyao/wANx8642W3bRuvtAkmxlMJqWwmcXHcxNMLzM0wvHIUzWx3JPd4zovBJ5pV+st+FRnOsdyT3eM6LwSeaVfrLfhUYrFdsbQ6i+RETziw8nMeE7zin9F+dp06cx4TvOKf0X52j8N3EJrdJG4DevZ8JLrIrAb17PhJVZVU3J4ENpVmdVaaYPDn/AI+LdaKkbNVTYMb819YC/RrHmknj6yZVQXA4OwqaoetWsNYsw3+sevkra28ERujNMV8+JYebYYsvRrMFH/WPs6pFZvijVr1ahN9d3YereyDuUAd0npwU5u/A6pJxikuTVdyxLMSzHaWJJYnpJO0mfMRKyQ2stwLV6qUk5TsAD8220seoAE90umk+kBwqLgsPUYsqgVKzEs4J26oY7mN7k7lBAFvR1NCVFChicaQCUU00B52sGI7yUHtlOqOzMWY3ZiWYneWJuSe0mJtnnrsv2MTyx03f6PGYkkkkkm5JNyT0k85nkRHCz7o1WRgysyMNzKSrDsI2iW3K9KlrL8nzBA6NsFW1ip5i1t3rCxHPfaRT4mZQUtzUZuOxOaTaPNhHDK2tRfkPs6L6rW2a1tt9xG0c4EIjEEEEgg3BBsQekEbjLjofmCVkbL8R5SODxRO9SNuqDzWtrL0EEc4Eq+ZYFqFV6L8pG1b8xG9WHUQQe+ZhJ3yy3/Z2SVs0dv0WXLc1pY+n8hzBQ4awpVTYMH3L5XM+2wbnvY3ub1FMLVwOKbL67awUa9B92uhuRs5tgOzmKsLkWnySRtBsRtB6JYOFYD5dl9S3lOhRj1BhYfxt7YqcVCaceR1OTnFp8Gi0wvMzTC8qQhmtjuSe7xnReCTzSr9Zb8KjOd47kHu8Z0Tgk80q/WW/CoxeJ7Y2h1F8iInnFh5OZcJ/nFP6L87Tps5lwn+cU/ovztH4buITW6GR+A3r2fCSiyLwG9ez4SUWVVNyeBHcHrD9sY4ekaKEdg4q/iJVUGwdgli0eqijn6/+ZwzL1XVb/wDQEjc6w/F4islratRwPV1iV9xETQ6pI3X6UzRiIlJOXs4Oo2U0aVKmztWqazBRza71ASdwHkKLnZumlh9AMSwu7Uk6iWZh22FvYTJTGZvVw+WYZqJCs+rSJIuVGqxJAOy915wZVcqzGk1fWxqtXQqR5RZirEizWJ2jeLdezdJlns2vL9R8sl0n4Xoe53o1XwoDVFVlJsHQkrfmBuAVPdbrkNOjZJiqOKXFYSirCjxYakrksVYhgxW5OqobUIW+w33XsOcKbiNpybunuhc4pWa2Z7NvLcuq4hxTpLcnaeYKBvZjzCakuuiTmngMbWTZUF1BG8BaYKkdhdj3TtSTiro5COZ2Z7S0Iamys+PpU6gKuo1b2YEEEEspO3qn3wl4VdahWBBLIyMRubV1WUj7ze6V7GZ1TbDCkMHSV/JLV9jOxWxLXK3DNbaSx2E9Oya4QF1FwdAehSIt3Io/lMSlLOsz8jW45XlXgqNCiXdUG92WmO1iFHjJfhPq8Zm+GpDdToa56iTUbwVfbMmhGD43GU9lwmtWb7PJ/iKyDxOL+U5rjcQNqo3EJ0ELamCOoimT9qFT+1RRO0tINm80wvMzTC8rQlmvjuQe7xnROCTzSr9Zb8KjOd47kHu8Z0Tgk80q/WW/CoxOJ7Y2h1F8iInnlh5OZcJ/nFP6L87Tps5lwn+cU/ovztKMN3EJrdBoYH0ez4STWRuB9Hs+EkllNTcniVnSut8nxOAxl7LTrqjn9wlWI+6HHfJXhCwupjCwGyoiP1XA1CP4Ae+a2muC43BVRzoBWHVqG7fw63tm5mtf5XleCxl9ZlUUah67ajk/bpj70ni8tT1HSWan6FUiIlZIXPPtmVYMdNQN3alX9RKZLnpXf5BgLbtRL+txS/8A2lMiqXT7s3U6vZFs4Nmti2HTRcfxofhK1jEC1HUbg7qOwMRLXwd0wjYjEvsWlSKk823y27wEH3pTmcsSx3klj2naYR65ex2XQvc8lv4PsQrNWwtTk16ZAHWoYMB1lWJ+xKhM2CxT0nSohsyMHHdzHqO49RmpxzRaMxlaSZ5jsM1JnpsPKQsjdq3Fx1Hf3y38JgvWosNzUjbuYn8wnxpvhFqpTx9EeTVVVqfusBZSevYUPWqjnmxpdhXrLl1NR5b02TsJWjcnqG0nqBis93F+ozLZNehp5PifkWW4rHHY7KaVH1rlEI+223qSU7RXB8Xh1J3veoew8n+EA98m+E6utSthcponyKAWpV6jq2W55mCEnrNQTwqBsAsBsA6pyl/aTkMmssFExNMLzM0wvK0Ts18dyD3eM6JwSeaVfrLfhUZzvHcg93jOicEnmlX6y34VGJxPbG0OovkRE88sPkmcw4TDfEU/ovztOkVnnM+ERr10+j/O0fhu4hNbpMOB9HsHhJFZH4L0eweEkFlVQniZCoIIIuCCCOkHYRILg5pa1LH5S58pGarS1jtINgGtzKGWm32zuk6sq+d4g4DH4bMVB4tiMPiLc6kWuQN51No66ayWflD4eGRZUjYRYjYQd4I3gzyWXTnLBTr8cljSrjjVYbV1jtcXHTcN16x6JWiZXCWZJoklHK2mXXR4rjMI2BdwtVCalFjzi5I9lyp/dYWlRx+Deg5SqhRhzHnHSDuYdYlpy6hRy2h+0MaPLtahR3OWYG2w+mR90XJ27Bq6GafYvMK3EPgKVZCxLPtVKSEk+XcMGIGwDYTYdZkzqqEmlqihUnOKb0ZIZ1/c8uo4cbHr/wDEqdNtjMD7UTrAMpM6hm+MwOJxIwtVC1S3FiquwI206gYG979RF9h6JzvN8AaFepRJuUa1+kEBlNuYlSDGUpcPfcXVjrdbbGnERHii4aEY1HWpga58isCU27mt5Sg8xNgw61POZZ9IcamEFXHVlstCnxFBPnO9iSvRrEqm7YEY7jKhohllJlq4qvrFMPZgqkgl1GvfYQbjybC+0nqm/nOb5bmKKmMFamEYstme1yLXIS4Jt85dlzY7TeOqm5PKVUmlFZigZFU/xMZiaiCpiGZyWYLYFr8+655ugLJijjKdS+pUVrb9VgSO0CTWUaH5HUbVpUq+IPPtrKq9ZbyAO8yv8IeVYTCY7C08CoSqSTXRGZgFJTUuCTqkrr3HRY223JCo42i0blBSu0zO0wvMzTC8tRIzXx3IPd4zoPBM9sLU+sN+FSnPsdyD3eMvXBc9sNU+nb8OlF4jtjaPUdFBns16LzYnnFhHV2nN9Pz/AMZPo/ztOiV5zrT3/GT6P87R+G7iE1ukYL0eweEkFmhg/R7B4TfWVVCeJkWYc0y9cRRei/JcWvzqd6sOsGxmZZlWTSHRKvoxnlNabZRmp4vU83rsbKFF9XyzsW23VY7LXU2tYza5Ng8B/ecZjKbovlU0UC7kbVsusSx6hs5ybT6zXJaGJUJXphrX1W3Ot9+qw2js3SFwfB5gkbWIqVNtwruNX2Kqk9hMVnlFNJ6DMsZO7WpM6JY7DZua2Jr06daujOlHDVSClKjZdUhCCCWNyz6pN9mwACSmYVM0K8VQwlOgnJ1kemSB1EldXuS/RaVXONCqFV+NpM2Gqjc9LYt7WB1Bax9Uian7DzNRqjOa2r0l6mt3HWJHtnIu3FzrWblotmQZBRwdWm+LrJxztq0KQN/KOy/S5F99rLvudhFc03P9/r9tP8JJF4HIThsxwFV8Q9epUxGq7v1Aau8kk7ecyU03H9+r9tP8JI+jJubb8CK0VGCS8kDERKyYu2Q5hTwmV4jEVqXGU+NAZNnlq3FU7WbYdpJ7pBf9oWUejlTs3MpSlb+Y+EyaYVOKyCmp31q4X+OpUB9iCfaiwA6AB7BIrOUnZ2LE1GCujUxunuYV14rBYNcGh2a9vKA/dJCquzoUnoIkXlWTCiWd3NSs5Jd2uTdjdrX23J3k7TJt5ieOhSinfkxKbasYWmF5maYXlKEM18fyD3eMunBm393f6dvw6cpeP5B7vGXHg183f6dvw6cXiO2No9Rf6DTeTdI6hJClunmlhH11nPNP6RD035ijJ3q1/wA06TXSV7SXKflFIoOWDroT84cx6iCR335o2jJRmmzFWOaLSKjg3uiMOgfoR7byRQys4DFGmxRwQLkG+9G3G46OmT9J7dYO3q7RLZojizcWZVmFGB3TMsmkPRlWZFmNZkWTyHRPhpiaZWmJoIGV7SA6uIy991sfh1J6mYX9wM909p2xtQ/OFNv4FX8s80xpMcOaiga9B0xSX6abXJ+7rTf04prXShj6PlUqtNFJHokksl+gnWKnoKgbzHUnaYqsrw9CnQYkto5kj4uqqqp4sMOMb0VXeRf5xGwDftvuBljaSuyRJt2Rm4TUthsrwhG1yrMOtUpqffUb2GZmmvpLjRjc1LIb0cGnEgjktVOtrW7L2/8ATHTNhpLS5fkqqcIwvMTzK8xPKUKZhaYiJmYTDWcILkxiFs1Mxey26T4S98HWHK4YsfTqO47AFTxQyhYHB1MVWVEG/eeZEG9j/vabCdjy3BrTRKaCyooRewDn65PippRUR9COuYkKCzepjZNegk2pCVHy6XmlWpSQnw63gBSNJNGlr+WlkqAb/Re24N+vjKQKlbDPqOhHPqNu7Ub4i4nY6tCRmYZalVdR6Ydegjd1g7wesSinXcVllqhM6Kk7rRlGweYo9rNqt81th7juPdJNKpG+aeZ6FHaaFT7D/Bx8R3yDqJi8NsdXVR0jXTubaB3ER1oT6X7MV/aO6LglUdkzKZUMPpGfTpg9aG38J/WSFHP6B3sy+sp8VuIidCS4GRqryTrTE000zGm3JrIerXF/YTMvGX3G/ZYzH02tzeZMVFBBBFwbgg7iDvErWW5hisqL01oHF4FyWFPe1LW5QGw+T0ggg2v5JJvYmczEzGdyXOZrEUmm2VE3TKK7VPmGkhW/RbWP8s+cdpLmWLTiqNFcBQI1Sb3qkG91XYur3BT+9JN2M16lVRvYDtIE2qbe7uZzpbI1Mvy9KFMU6Yso2knex52Y85/pMrTDVzCkN9Re7yvCadXOEHJDN7h7/wBI+MH4FSkbjTE5A2k26zIurmrsbKoF9g9Ju7/8m1hNHsXiCCaZUfOqEqO5eV7BGWUdZOxnWWxgxOYqNi+Uenm/rGV5PiMY11FkvYu2xF6QPnHqHfbfLllOg9JLNVJqt0Eaqfd3t3m3VLjh8KAAAAANgAFgB0Ac0TPEpaR+RsKLesiMyHI6eGTUQXJsXc8pz19A6Bze2T1GlPulQmyq2kbbbuyhJJWR6q2n1ETh0REQA8ImJ6IMzRACPqYaaz4aTM+GQGAFSxuj2He5eilzzgare1bGQuJ0JonkO6dVww94v750I4cTE2FjFVmtmYcIvdHMK2hDjk1lPrIR4EzSfQ3EjcaZ7Gb4rOsNheqYjheqbWJqLkw6MTlJ0YxY3Adzief2bxnzf/cH6zqpwvVPPknVO/ypeEH0Y/k5X/ZLFNvCd738AZlpaFVzynpr2Fif5ROoDC9U+1wvVD+TP8B9GJzqhoJ8+uexUt7yT4SUwuhWGXlK7+u58FtLquF6plXDTEq03ybVKK4ILBZRTp8imieqoBPad5kimGkiKAn2qARbbe5tKxq08NNlaQEyxOAeT2IgAiIgAiIgAiIgAiIgAiIgAnlp7EAPnVjVHRPqIAfOrPbT2IAIiIAIiIAIiIAIiIAIiIAIiIAIiIAIiIAIiIAIiIAIiIAIiIAIiIAIiIAIiIAIiIAIiIAf/9k=;clipPath=inset(11.05% 7.14% 12.55% 2.91%);" parent="1" vertex="1">
          <mxGeometry x="358.01" y="56" width="87.51" height="105" as="geometry" />
        </mxCell>
        <mxCell id="3EpMYGW9OJJ_J2EonweR-38" value="" style="endArrow=classic;html=1;exitX=1;exitY=0.25;exitDx=0;exitDy=0;entryX=0;entryY=0.5;entryDx=0;entryDy=0;rounded=0;strokeColor=#CCFF99;strokeWidth=4;" parent="1" source="3EpMYGW9OJJ_J2EonweR-14" edge="1">
          <mxGeometry width="50" height="50" relative="1" as="geometry">
            <mxPoint x="432.51" y="577.5" as="sourcePoint" />
            <mxPoint x="563.5" y="344.5" as="targetPoint" />
          </mxGeometry>
        </mxCell>
        <mxCell id="3EpMYGW9OJJ_J2EonweR-39" value="" style="endArrow=classic;html=1;exitX=1.035;exitY=0.543;exitDx=0;exitDy=0;exitPerimeter=0;entryX=0;entryY=0.5;entryDx=0;entryDy=0;strokeColor=#CCFF99;strokeWidth=4;rounded=0;" parent="1" source="3EpMYGW9OJJ_J2EonweR-6" target="3EpMYGW9OJJ_J2EonweR-17" edge="1">
          <mxGeometry width="50" height="50" relative="1" as="geometry">
            <mxPoint x="511" y="307" as="sourcePoint" />
            <mxPoint x="561" y="257" as="targetPoint" />
          </mxGeometry>
        </mxCell>
        <mxCell id="3EpMYGW9OJJ_J2EonweR-40" value="" style="endArrow=classic;html=1;exitX=1;exitY=1;exitDx=0;exitDy=0;strokeColor=#CCFF99;strokeWidth=4;rounded=0;entryX=0;entryY=0.5;entryDx=0;entryDy=0;" parent="1" edge="1">
          <mxGeometry width="50" height="50" relative="1" as="geometry">
            <mxPoint x="458.8499999999999" y="162" as="sourcePoint" />
            <mxPoint x="563.5" y="324.5" as="targetPoint" />
          </mxGeometry>
        </mxCell>
        <mxCell id="3EpMYGW9OJJ_J2EonweR-41" value="" style="shape=image;verticalLabelPosition=bottom;labelBackgroundColor=default;verticalAlign=top;aspect=fixed;imageAspect=0;image=data:image/png,iVBORw0KGgoAAAANSUhEUgAAAOEAAADhCAMAAAAJbSJIAAAAllBMVEX///80bJn/zTr/zDQuaZf/1mtmiq3/yiMaYJL/9eDg5uz/1F1Xgqhqjq/S2+X/8dQjZJT/9Nr/yy3/2XJdhqr/yh///fn/2nevwNKKpb8bYZJni63/78f/8c75+vz/341zlbTCz9yAnbqPqcLk6vD/01j/6LGgtcr/5aPN1+L/+ev/7L7/0Ej/6rX/24H/4JNCdJ5LeqL2FztaAAAFx0lEQVR4nO2c/Vu6PBSHEaZgmiGKr6Vo+VKW1f//zz2yafEUjEPKxvx+7t/qCq7d19kL2znLsgAAAAAAAAAAAAAAAAAAAAAAAAAAAAAAAAAAAAAkuRmNo347jX40Ht3obt65dJbM81k2vseWHd2NPINO22O1PJjXNtVxFhH8hGM0093Yv9BhPskvxmcGhnExoQXwGMbJQneDi7LwCvjFeIYp3hQVPCgatXDMakz0Pc87LBY0Q1YzabqJ+CTj958PsotP4ozjR7qbTafD++hkc/xxSVT0zJlQ23HHZMuvn/vEdbGtsc2FECH0vofVzeTKgjjmIewnfvNBM2RjbW0uxu/WErtpraatzYUQa2FiGFrWJ9HQkDVx5P+Mx4waQn+kr9kFeBSGk+ev34yo3+D+o8Z204lOETtNpk/kTQaLdDaczPRoyD7E5P/MyLsMNtXcdhqNkxCbNDajTZu4GPInGrobT6LxHTLm+9QPb0MNiwLDigBDGFaftidBvnQYYvh0I+MaDOVcv6F0M1xNw9lis7ydNmhMp8bFcNT2J7L02S/yDeetI/X99n6gV2+2IZ/30uCGvcA5Ebjhaq1RclEgu1TE0LETOEHwrstxXDw38QfDA4Fzr0WwfekAZhradri/EsFMQztoKReMyhDMNlSvuClwNHERQzvoKRV8uvwkIwxvDy+vpxra7lalIfmUvqhhdHh5K93QDpvqBJ9LCqE4EX7NMHQUDsVpSSHkp/qDDMFDP31QJVjWKBSZmaabZejUVRmS0xDFObx9F2QZ2uGLIsPbsjopzzkOM3upHawVGZazFtZEJ80ehuq66aysYcgT47vMYRjPNWoM/1DvRINngFeSGKoaiJ2SDP04L34XSgRtV82iX5KhqPqShtB270w25H10LRuFhht6cdr/JXstNN2QibqGrE9S8w39Gi+k6eWE0FhD5i152cY+T9BQQ3/SEJVQ9VzB6hpmXyjxvY9H4feyyhespCHzPa/WbtymES0fF0/Hl66DnEmmmobMZxHpZtPDq3wdrKgh89oLSnH6YLdyKQGsnOHk8zn/XVbzredQ/aplyL4KKZu7932vnsrKDl3S+Kugof8pppDm+2sYfGfLflJArmKGvqgx7NaLhcgcQ77Tswb78KJ6FTL047N5q2kTlnAzDdlH/FcP9BnSOEM/nmTupacRZhtO4mWiWYpgNQzZZ/w3dgldVJ2h/DSR313K3+lV2lB6Iszvn3XL6aPKThOlp/r8xnJWjvNsVKVmZJkZ3yoxhKpO9WXZNZ6mnpc0CtUlECUZUr6jKMlPYXZNkuX2nmRJ3HNRliGVVCqww6b+zfhOamVXm/BP0veyDNVVKmSPRJ7jlKSpz0JltUlm1ZespulsVFYMHbhNXTHKNFRb9WVlVF+WaKi4ci+mn6JYnqGGAlPLWv6ebkoz1CKYVslelmE41yIY30b4cQm2HENdlezCcdT2EjdK/MsbOoG71X2tJL4V1D8yzjfMPABPIXCD1ptevTRyDNNTGGn09N8KSifHUHfzLsA/b9iUorvxJHIMXQmhnoW9KGesFir3uGcAQxhWHxj+3ykIEqn+KzR0W9u3bf0rXXx1ho4jzge7p8pZQwzpp4nB6RNmcMyoOkOtLadCPhFOpCEeRCYgeNfYbjrkU30nsTU6OldwM5gCNTPjrBIP7Xk3VZXjPRdqCJOf2XMxELW1uRhz4lTzmniGJ8YdXUdqRaFmud3u1yMD/kjYlby1UhArFRLdlA9Dtcmls5BfQPsmOP27iy2fnEI11TIXYUhcMILV/cAaPIibFoEZy71gQBOMP7zDMDx9llby5DCLP5TUmDPNCHZFFcOd7iYX5b5YBa2rMfnyV7oOvSYjcAzrooLBkFjJ7oRDoyaZBHctQld13JZB6+Av7vaOK7lREgSuszfZj9Ndz4etdIbztZHjDwAAAAAAAAAAAAAAAAAAAAAAAAAAAAAAAAAAAErkPw5afT+R8NfPAAAAAElFTkSuQmCC;clipPath=inset(20.67% 20.22% 21.56% 20.22%);" parent="1" vertex="1">
          <mxGeometry x="137.5" y="105" width="57.72" height="56" as="geometry" />
        </mxCell>
        <mxCell id="3EpMYGW9OJJ_J2EonweR-43" value="" style="verticalLabelPosition=bottom;html=1;verticalAlign=top;align=center;strokeColor=#9673a6;fillColor=#e1d5e7;shape=mxgraph.azure.user;" parent="1" vertex="1">
          <mxGeometry x="1407" y="385" width="64.47" height="57" as="geometry" />
        </mxCell>
        <mxCell id="3EpMYGW9OJJ_J2EonweR-44" value="" style="endArrow=classic;html=1;exitX=1;exitY=0;exitDx=0;exitDy=0;entryX=-0.02;entryY=0.381;entryDx=0;entryDy=0;entryPerimeter=0;" parent="1" source="3EpMYGW9OJJ_J2EonweR-41" target="3EpMYGW9OJJ_J2EonweR-35" edge="1">
          <mxGeometry width="50" height="50" relative="1" as="geometry">
            <mxPoint x="510" y="303" as="sourcePoint" />
            <mxPoint x="560" y="253" as="targetPoint" />
          </mxGeometry>
        </mxCell>
        <mxCell id="3EpMYGW9OJJ_J2EonweR-49" value="" style="endArrow=classic;startArrow=classic;html=1;entryX=0;entryY=0.5;entryDx=0;entryDy=0;strokeColor=#FFCCFF;strokeWidth=4;" parent="1" target="3EpMYGW9OJJ_J2EonweR-35" edge="1">
          <mxGeometry width="50" height="50" relative="1" as="geometry">
            <mxPoint x="203" y="109" as="sourcePoint" />
            <mxPoint x="560" y="253" as="targetPoint" />
          </mxGeometry>
        </mxCell>
        <mxCell id="3EpMYGW9OJJ_J2EonweR-51" value="&lt;h2&gt;&lt;font color=&quot;#cce5ff&quot;&gt;DQ Analyst&lt;/font&gt;&lt;/h2&gt;" style="text;html=1;strokeColor=none;fillColor=none;align=center;verticalAlign=middle;whiteSpace=wrap;rounded=0;" parent="1" vertex="1">
          <mxGeometry x="109" y="14" width="126" height="30" as="geometry" />
        </mxCell>
        <mxCell id="3EpMYGW9OJJ_J2EonweR-52" value="&lt;font color=&quot;#33ffff&quot; style=&quot;font-size: 20px;&quot;&gt;configs &amp;amp; secrets&lt;/font&gt;" style="text;html=1;strokeColor=none;fillColor=none;align=center;verticalAlign=middle;whiteSpace=wrap;rounded=0;" parent="1" vertex="1">
          <mxGeometry x="577.5" y="612" width="231.5" height="30" as="geometry" />
        </mxCell>
        <mxCell id="3EpMYGW9OJJ_J2EonweR-53" value="" style="shape=cylinder3;whiteSpace=wrap;html=1;boundedLbl=1;backgroundOutline=1;size=15;fillColor=none;strokeWidth=3;" parent="1" vertex="1">
          <mxGeometry x="1026.01" y="233" width="140.99" height="203" as="geometry" />
        </mxCell>
        <mxCell id="3EpMYGW9OJJ_J2EonweR-54" value="" style="shape=image;verticalLabelPosition=bottom;labelBackgroundColor=default;verticalAlign=top;aspect=fixed;imageAspect=0;image=data:image/jpeg,/9j/4AAQSkZJRgABAQAAAQABAAD/2wCEAAkGBxAPEBUSEBASFhAWFxYWFhgYFhUXFhYWFxYXGSEYFRcdHSggGB4lGxUXLTEhJSorLi4uGB8zODMtNygtLisBCgoKDg0OGxAQGy0lHyYtLS0uLS0tNy0tLS8tLy0tLS8tLS0tLS0tLS0tLy0tLS0tLS0tLS0tLS0tLS0tLS0tLf/AABEIALMBGgMBIgACEQEDEQH/xAAcAAEAAgIDAQAAAAAAAAAAAAAABQYEBwECAwj/xABKEAACAgECAwMFCwoDBgcAAAABAgADBAURBhIhEzFBByJRYZEUFRYyQlNxgZOh0SNSVWJygpKisdIIM1QkQ3OUweElNWODo7LC/8QAGwEBAAMBAQEBAAAAAAAAAAAAAAECAwQGBQf/xAAyEQACAQMCBAIJBAMBAAAAAAAAAQIDBBESIQUxQWFRkRMUcYGhscHw8RUiMtEGQuEj/9oADAMBAAIRAxEAPwDeMREAREQBERAEREAREQBERAEREAREQBERAEREAREQBERAEREAREQBERAEREAREQBERAEREAREQBERAEREAREQBERAEREAREQBERAEREAREQBERAEREAREQBERAEREAREQBERAEREAREQBERAEREAREQBERAEREAREQBERAEREAREQBERAEREAREQBERAEREAREQBERAERON4BzE43kfq2s42GofJvrqU9BzsAWPoUd7H1DeASBla13W2xLOawsUYhKaa0DX5Fm25C7noo6bnu79yAOsXm8fJcwx9OpusyrAezaymyuhV8bnZgOZF38O87DvMjdNG2eWNmVk5aJyve3ZpSqliSlahdlG4O4Ho6kziu76lbL927w3heHmuuxaMWyZe/WLjuzY2Gh7kAORdt+s26op+jmnQ3arj+cl1WWo6tW6imxh49nYp5d9u4MAPWJK5ORspZ/kgk7Dc7D1eM4qYsoJBBI32PePpnjq/+Q3XpddNrRnk0vjzfvR0KjHG/MzNB1qnNrL1EhlPLYjDlsrf82xfA/ce8SVlC4hwa6ubMTIGLkqP84sAjDfolynzbF9R6jc7Ebzwr8oD5WPUuGie7GPLcXDvRQVOxPMCO15ztyBTuQwPcDPVWHFKV1RdT+On+WensfVGEoOLwbEnMrPDfEq5Fdi5JqqyabGqtXnAUkAMHTm68rKyn2jrtJv3zx/n6v40/GfSjJSSkuTKGXE8qrlcboysPSCCPaJ6ywEREAREQBERAETpZYFG7EAeknYTy921fO1/xL+MAyInhXlVsdldSfQGBM94AiIgCIiAIiIAiIgCIiAIiIAlb1ziJ8Z2UU8xBRKxzAG62wEhQfkKoDFm67BT0lkkHxRpBy6CtZVb1ZbKmO4AdT3MQNwrKWU9/RjKzzpenn09oKlpPHGTfjsipW+o2ZNtFKhWWpVRUY2nfzjWgcbse89PESQGnY2no2Tfvl5x2U2uAXexyAtdQPSpSxACju7zv1MiuANLNNuVZYpF1TJiLvYbeVUQWnlYgbA9qo6D5PrkrxLW6rTkIpc41wuNf56hHQ7frAOWHrX17zz97xX0dzTtk8Zxqbx16bNr5pZNYwymzMwsBqA9lzc+Zbs1z+A2+LVWPBF36DxO5PUmemLiipeg87br6z1P9TOmnalXlA2VHmq8H8GYjchfTtv19e48JmjvnkOI3VWrXlKosdvBLkvvxOmEcIw9Jyhfj1Wfn1ox+kqCfvkHquj512bVbXmtVRWUPZhQUZQTuG67szenuEzODD/siqO5HtRf2VtcD7gJNFgO89/d6z6pEqkrS5qKmlzlHdJ7Za6kYUkjA1zHe2o1oEPN0PMvMOvT4u/rJ+r1zG4W0tcbHFfKv5Oy4IQvLsvavtsPDpJmcdFHoAmMbqaoehXLOfa/xsTp3yaB8sGDzawEQedalX1sWZP8AoJd9Q4Z02iixziU7V1sdyv5q95+uVjKyF1HiRWTY10+PgeyBO4/fabC1LATJqemzm5HGzbHY7fTP1vgdCSsoKot9K5+z/qPP8SrNVoxTwubx7SxeTHTfcuk4ibbM1QtYbbedb+U2I9XMB9Utc0uOCcYDYW5ew/8AXf8AGcNwTj/PZf29n4zo9Sq9vMv+o0e/kbpifPPDnCjHKyq8jIyLKqigrItsXfmBbrse8Db2yxfAzF/Oyv8AmLv7pWNpUks7Fp31KDxv+TckTTfwMxfzsr/mLv7pyOEccdVty1bwIybtwfSPOl/UqnYr+o0e5uOJ86V6DnZ+ddXmZ19mPjsqb853bdQyqAOgPKRzHvlgXgHB9F/21n4ykLWpJZ+ZpUvqVN4ZNf4hNR7LS1pHffcin9lAXP8AMqSi+TThrGuwjbkUJYz2Nylhvsq7Dp9e/sk+/k909vjJafptc/1MntN0+rFpWmleWtN9hvv3ksdye/qTOihaOM8zwcd1fxnT008p+X1MXycaNQur5b0VIiUUVVeaNvylpZj9eyfeJtifPOg8MNnW3Zt19qVXWM1aVuylkBIDOR6h0EnfgRjfPZf29n4zH1apUepLZnR65TpJQk22uf1N0xNLfAjG+dy/t7PxnTJ4UNCNZh5mXVegLK3bOw3A32ZSdiDtIdnUS6Ex4hRbxubsifO/C/DuVnoMvPzcpu03ZFFr78p+UTv0B8ANukn/AIEY3zuX9vZ+MiFpUkslql9ShLTubpiaW+A+N87l/b2fjMHWuCk7Bzj5OStqqWXe5ypIG+x69N/TLSs6iWSseIUW8bm94mhOG+E67sSmy+7KNroGba6wDzuoG2/o2kl8CMb53L+3s/GRGzqNZ2EuIUotrfY3TE0seCMb57L+3s/GY2bXfohry8TJyDUtiLdRZYzpYjsB0BPRuvQ/95E7SpGLky1O+pTkorOWbyiInMdgnE5le46xsi3TshMYsLim4CnZmUMCyKfAsgYA+uAV7hjUK7crUErbdfdXaqfBg1SVEoflAPSw39MsFq7qQO8gj6Okp3vjiV1Y+ZibCileytRRtyUkjdWXwZGAOx69D6Zc5+a8Ym6lf1hR06uj5px2w/dh+87KawsFX0fUxg0JjZFF621jl3rpssrt6/HRkBHnEkkHYgnr6ZkG/Pyf8sDGr9JVbLz6+p5E+jZp538aYtXa9r2wFTsjt2VhrBB6flNuXfYr4+MkdA1hc2s21rYK99kLqy842B5lBAJHXv8AVL14VoRdw6GM4epvKy91pT8efX29AsPbJ0wME4eMErIJQADm+Vt084jxJ3O8rep8VjM0/IOKti5qBhWvy9xZyGyk/LUEHqO7bY7SwcVZ3Z08i/5thCIPSzdB7OpPqUyN4Q0DFtfKxbaw1dT1XVHqrVvbVs5RhsV5im52PyjOzg9pC7k51f551J+OGtWezzjz3K1JOPIh+CdV1zJIpsNBtVGssF1bK1a7qqc5TuZ/yh2I7k3mbx/RqdGnX335VNSIgAWlXLu7sqAc7HoN267Df1zZGlaVRiIUorVFJ3O3ex9LE9WPrM1r/iJ1DkwKaB323An9mtSf6keyerhwy1jP0miOrnnH05HPrlyyUHyN4e9l9x8FVAfWx3P9BLznYbZ2oYuELba6yl11pqblblUKqjfbp1JkP5J8Ls9P5/G213+obIP/AKn2y3+T+nttUzsg91SU4yfSd7H/APx7Z6Cb0WyXj+T5MF6W8bfJZ/o1x5XMT3pvppxMzMLMjO/aXFthvsu2wG3c3sl34Ya1sOg3MTaa1LE95JHj65rXyp5fu7X7Kx1VXrx1/d2DD+MvNn6nkDFxbHHdVUxH0qvT79pFk3mUn4EcRjHTGEUt2a4r0fP1LMybqLmpxzayh+ZgH5PM81QevRe+Z3wA1D9KN/8AJ/dL1oWF7nxqavzEQH6duv37yo5+ta8LXFWCnZhiF6A7qD0O/N13mzpwgk5ZefDP0MlXqTk1DSkvHHs6mH8AdQ/Sje2z+6X7TKHqprS2znsVQGf84jxlKw9Y19rEV8OtULKGbkHmqSNz8fwEt/EGSacW51G7BG5R6WI2A+skS9LQsyint45Ma/pJOMJOLy+mPoYvCm7UvcR51191n7vOUX+VF9s66DoPvxlZZuyMlMfHdKahS/IC/KWcsdjueq+2SWl4opoqqHciIo/dUCQvCXEGbplFtPvVdZY911psFtYVmc9DseuwAX2TG5Uo04xWftHRZuDqznLC8Mmuc2yz32bExsnINC5BqXmtYsVRuUkkbb77GbX4jyTRh3uvxhWwX9phyr/MRNd8C8K5iagt+VQyKvO/MxU7uRsO4+lt/ql74mHOcaj53IrJ/Zq3tIP08m31xbqUacm+ff77k3coTrQisYW7+/cZ+HUuLjIvctVQ3+hV6/0mJwjwa2p4leblZ2Yll/M4SqwIiJzEKFXlPgJ6cT1W2Yd60je1q2CjxJPo9cabxzbjYdeNXpGZvVStSklAN1QLuTvv3jvlbxSyoxz7ieHqDUpzxlvr/wBNX0ahkrrAx6Mu96lyezHO+5KK+zc3gfNBm0eJcg14lxX4xUonrZ/NA9plB8n3C+WmZ7pyqigUORzbbs77jcD6CfbLvxB5741Pfz3ixv2aQX3/AIuSXt1JUm31/BS7cJV4pYwuePN/AzQExcYDuSmoD92tPwExuFOB21HDqzMrOzVuvXtCtdgRFViSoUcv5u06cYY91uDfXjrzWunKB6QXHMB6+XmnunH19eJ2FOkZiutXZoT2fKGCcoJ6928reasqMcl+H6NMpTxlvrj76mrdG1LJbVxTTlXvSL3VeZy3NUrN1bwO6j75s3iu4ph27EhnAqXbv5rWFY2/i+6UXyacK5NOUcjIqNaojBQ227M3ToPQBvLtrq9rfiU+HbG5v2aELD+crLW6kqTz1/BS6lCVdacYSz9TOy7VxcZm6ctVZP8AAvT7xIGvg8po3vhfqGeLvc5uKiwcvMRuoAI9Y8fGZXHddz4FldFbPY/Kuy9TsSNz7BMbjviXIzdN9w4umZdYPZqS/LsK6yDsOUncnlX6t5S81alGKfI04eo6HKeMt/fzKz5KdRy8jIt7W+x6lr6hiT5xYbEb93QNLlxBV7oysDE+dyVdh6a6Bznf1b7e2Rfk00C3Codr05bbGB5em4Ve7fb17yxcM1dvrxPycXF/nub8APZEswtt+bIjipeZjyXh2X9m04iJ88+sJwZzEA115R+FaWFeTThF7O3qfINQ2sapDuTyAgWHcL39diZ56lxvhCs8uSqPsTy2A1v3d3I4Db7+qbI2nhZi1sd2rQn0lQT98+XxDhVK8cZTbzHy8i8ZuPI16eGrbNEqKoWzC9We6P8A727mFrVMD07vNAPoE728ZUdgt1e5DbKE77TYTy9kE335ubpsZsbaRacP4a3nJGLQMk99nZrzn1822+/rk3/C6N44a9tPh4eHYRm45KVVwvqttgybHxVcqQtL857EN37uvRnI23IHTqASOsn+FOHb8fIuycmys2WJXWFrDcirWWO5LdSxLnw7gJa4nVSs6FKSnCKTSx7vkQ5N7CfPnl6usy9ToxKVZ3Sroq9SWck7benlUe2fQc0Jwqfd/E+ZlHqlJt5T4eb+QT2oCZN3X9XoTqv/AFTf9L3siKy8Hrout2YtVOJ72ZxtSodAi7sF2BYDfu3P3yY4I4xx9PVsbIoyvfC+2y96kqLMOc+ap694RV9kmdL1rDr1bLfIy8eo1VUY6Cy1EJJ57WKhiPF1H1Sk8A2++HEGbm7gonPyEdQQzCtCD60UmZT4nUdgrirFJqOcLvy89vMzp2tOFR6OpSaBfj6smRmYt4ay57QnL57sxYjlB7/PYS78VajmZeJZRTpmcrvsN2rG2wO57jv4TtqJObxVVX3pihSfQDXWbN/42UfVL5l5+Xbmti4Yx/ydKXWNbz7Au7qFHKfQhPX0zhjxm8/86FKEdU4a3ltJZ++5adrTnJVJdHsVDB4izOzXt9Jze12HMUQFSfSNyCJH5HlLxq3Nb4uUtgOxUqoYH0bbyyeTzja7VbchLKq1Snl2ests3MzAdGJ7wpMr9eMmdxVYSoKYyAnpuGeutVBb1h3/AJJtR/yG8hVq07iEVohqeH2WF7+nIwlwy3lhrqyVq4gyHUMuk55U9QeRP+ryJ4uydQysY1UaZmI5dGJdF2ARubwY+IX75cdV4icZj41WRg0dlXWzvlPtzNZzbKih17lUEn9YSs8a8b5WDSpTJ0vIa0sm1BdmQcvxjtYdu+TR4pxe6pKShTUZLq3nD8y0bC3pyys5RjaJxu+Smw07KexPNs7JQyhh39SR7JJfCO/9E6h9mv8AdJvAC6RowYKOaqkOwJ5Q9rbE8zeG7t3+AnmnEFxA/wDEdDBO3Ttz0J8P8yRQ49xG6cnbU46E8Zk3l/fw5ES4ZbLnn3EHbxZYjIraZqAawlUBRd2IG5Cjm69BvIjWc/UbMvGvp0vMFdPNzq9exbnHKdtt9vN7vXNm6Ro2ZZmU5WVZimqquzshTznd7Qo5yWJG3Jzd3plzn16N3c1KS9OkpdccuexSNlRg8xy/b3NPLxBdt10vU9/+Cp+/mnPwgt/Rmp/Yr/fNwROlXtXt5GX6dR7moBrl56LpWpFvAdio3+vm6Sr6rZrNWoVZN2m3CpFZVrXZ/Mbbfzl3HN0Hsn0PONpSd1UnzZrTsqVPOFz8TTa8UOR/5bqX2A/unYcSWfozUvsR/fNxxLq9q9vIy/TqPfzNLahxgceprbdO1BEXbdnqVV3J2ALc/TqZGcD6rZqWXflOvKldYqqXv5Qx5jufEnlXeWf/ABCZbjApoRWJtu3bYE+ZWpPXb9Zk9kpHk71fGwsQpd2q2s7Mw7Kw9OgHUD0S1K4lOa9I9luUrWkadKXo0237y46tr6Y1q0ijIttZC/LSgchQdt26jx39kxfhQ/6M1L7Af3yY8mjjL1DMzFDdktdOPWWVl3+M7EA+s/fNmyZ3k1JqPIUuH03BOWc43NPVa3lX+Zi6XnNaeg7RFqrB9LuW6CXbgThh8Gqx73WzMyGFl7j4oIGyon6qgn6dzLXE5qladT+TOujbU6OdKEREyNxERAEREAREQBERAI7X88Y2LdcTt2dbtv6wp2++ag8hWHtj5GS3xrLAN/Ug3P3sZcPLjqfufR7VB2a5kqHr3PMR/CrSscL6jRhaAoS6o5BpdwgdeY2278q7b777lZ8Tj2uVqqMFlzlFfH+8GlL+WSYyuIMXsmyn0y9qBuxuNFJUqDtzbl9yOnfJPhLVsTLoORi1dnVuVO6KhPJ4+b3gbn75DeVWwafw7Xiqdiy00AekKASPYsjNK1XGwOHgFvp7YY7NyixeY2Wb9Ngd992nzOK8IoUaUYUVLVKSXNvC69jSnUbe5geSOo5OoahnN8p2VT/xLCxHsCy11ah2OJrOf48701H9WmpawR/7jv7JA+RzIxsbTQbL6UsssdiDYobYeaNwT6pIZOg6ZZU1Danb2DMzmsZaisszFz5u+3VmJloXcLbiFapOMsJKEcRzssZ+RDi3BJGB5D8IU6dZe3+8sZv3Kxt/Xm9s8vI3X21ufmnqbbioPqLF+n8Q9kzeKeINP0vS2xsS5C5rNdSI4dgW389yD08Tue/bpMbgDUsfA0Iubqu25LruTnXnLedyry777kKvT1zkrqrVo166g81ZxjHKw9K38tl27llhNLwLD740ZJNiaTkXrzMvaCilgxRih2LOCRup6yl8ZcF52fb7rxMA1JT2arQ6V1vZ3szgKxUjflGxO/Wbj4QwPc2Bj0nqy1JzHxLEbkn1kkzUdXEt+br2VS+pX0YVZsChbuzXesrXsp9bbmeipWFtYJ14qX7V4t/DxMXJy2Lmut3mn/aNJzR5v5ReWl0Gw69TZ5w6eIExuEtU0zVVsbHw0ArKhuempd+YEjbbffuM6X4mJYrI+tZJRgVYHNGxBGxB6+InXR30rRsdkxrVsLMWCK4tuts2ACoq7k9w7hsOpnl7ujZTpuNpSqKbaxs8c9+bfQ3i5Z/djBP+TusIuYlfTGTLsWlR3IAqh1X0AW8/Twlylf4H0x8XBqS0AXNzW2gddrbWLsN/HYtt9UsE9zSi4wUW8tJL4HKIiJoBERAEREAREQBERAEREAREQBERAEREAREQBERAMbKwqrgBbWjgHcBlDAH0jeYy6Fhg7jFo379+zTv9kkogGNl4VVwAtrRwOoDKGAPpG8xveHD/ANLR9mn4SSiARvvDh/6Wj7NPwj3hw/8AS0fZp+EkojII/wB5sXl5fc1PLvvt2a7b+nunA0HD/wBLR9mn4SRiAcASOOh4hO5xaCT1P5NO/wBkkogEb7w4f+lo+zT8J642l49R5q6Kkb0qig+0CZsRkCIiAIiIAiIgCIiAIiIAiIgCIiAIiIAiIgCIiAIiIAiIgCIiAIiIAiIgCIiAIiIAiIgCIiAIiIAiIgCIiAIiIAiIgCIiAIiIAiIgCIiAIiIAiIgCIiAIiIAiIgCIiAIiIAiIgCIiAIiIAiIgCIiAIiIAiIgCIiAIiIAiIgCIiAIiIAiIgCIiAIiIAiIgCIiAIiIAiIgCIiAIiIAiIgCIiAIiIAiIgCIiAIiIB//Z;" parent="1" vertex="1">
          <mxGeometry x="1036.74" y="346" width="122.54" height="77.78" as="geometry" />
        </mxCell>
        <mxCell id="3EpMYGW9OJJ_J2EonweR-55" value="" style="shape=image;verticalLabelPosition=bottom;labelBackgroundColor=default;verticalAlign=top;aspect=fixed;imageAspect=0;image=data:image/png,iVBORw0KGgoAAAANSUhEUgAAAO0AAADVCAMAAACMuod9AAABblBMVEX////97iEAAAD89qD/9yL/9SL/8iL/8yL/9iL/9zv/8CB0bQb89qT//6f//Nn/9i/56gBtZwdOSgpoYgj/+AD//ev/+Yn//eGypwDIwDf//6jt3x/05QD/+87/+Hz/+qL19fXS0tKUixPl5eWIgBKnnQD89ZZBQUH8832/v7/98FH89Y7IvBrXyhzOxjnU1NT88m69shlZVAzczx18fHyioqL98EijmRVDPwmTk5Pw6pjs7Ozm2R5kZGScnJwhISFUVFQ0MQceHATW0YiwsLCCehEyMjJ5dk398V6FhYVra2tUTwsQDwInJhknJQXQy4QxLgYZGRm4sTOooS6no2qOilpvbEa4tHVLSTByb0ibkhSalCpJSUn/+8IeHRM6OCVbWTra0FFFQywAABKUkFOln0d7el6LiF4WFQMdHiNsaDTg1TuAeyVpZR0nJhCupj3f3sV9eDexrGDQyXVNTDxFQx//+re6uKignXXHv2DfQGUSAAAcgklEQVR4nN2d+1/aSLvASUgCjFAjWCumFUTQIhcFFKilrfdaZbX1Ulvt7e32PW1X2z3n7G7POf/9mUsuk2QCiSS42+eHfiqXkG/mmec2TyahkGdZ4XceLT/emnno/av/PFnjdZlf3lq86dMJVB7yVtlZ3pq96bMKSBZtsET2tn5CvZ4hbE8PVxPhzbPTD6YxfvCTaTWGfXcSTmTC4XAmk0hkVs+e/kIRL8/c9Cn6Jxj2FKPqApEh8bufD5jAToVtgohPXum8Lx7/BHMYG6inDFiVmAZ+9E+fwrOI4kPCAVYDfq/xvvlH82YRQrcHqwq8eapP4Js+5QHkCQLYzPTDhbyZs48q78pNn/R15Q06+7Neemwa4Ncq74PsTZ/4dWQPnfrLqbgrWjyDNYV+lr3pc/csD9B5H0SaS6V43CVxInyizd+s6995uDgzszh7w/5rC591R+KADBaW5lwCJzKeeBdXHhkhyvze46KbLwUgRXwCNZFDAoDM7d4PuyLO6Lz99HlmmbfLm5uIykgmkBM4XSAxVmov+vyg1y/s4I/Uc4VauZCro/+/w/N+fuhOm8CmKFhC7HKIE2HNXj12+gWswamyJIgRSYqIAiiP8PzJ1Obp+6E7baLGdZGzCwCg6WIWJ1Y1f1Rk/QCO0XKKIBkHlqJcoT4Ho+/P8K1hDu9jZ1hVp2O7fXU6sakmwo+yth9AV7OuRAE5XgzaQfyfSBTMwS+eDDVGIWZyJOoAq+v0RG+dziQO1fhqy/ID6Gq2BKAda2GutNSUyWFjcRV3ONqcJQMLz6YXLAEGC70ncSZxRnLgN6Ya1jP4SsVk/5bi8RLhBbsa7qNA8Gb2dt6sPMxCzuzszGOttljpC0vOEzSnMz2AdXf0zPhBGKIdKBHTceQmvGr38WDL9xHuaUC4lHc3ZIyLMOmYwHJP4IzmjjR1hsF3m5OsR+HC4fhcDPHKc2jSfw5EmXdYsGljTrkjhsDOKq25oyfIOj+EaVVbsh8e4YbjC/gNdKDEy17u65qyxoLlkw1RcD24OjCcw068arqwM4OMcRuwriXB/RccdLCAjpP56OS9ri0kFl7fTybXv5iB6wVOsKpbH14AjZbTABvpEXNk8feb8XDmDAU08jQ+Shd+2NcKPf75fUEVUelUarnUhjZ5Kx55kZV29MOJ1afksBsNBwOIzPEqfy6oUzezirTfR9hn+FpTOgtgDBcVuMrkSBcPei3qUaGRH3aKtBKrLwlvXmIfVZ6IJ37hK+hNPHUPfbVUeHWny9kVC8WtndZzNBDeeVWbxeTVwquagxnErofTpi72Q75NXVybaDhoKxCFRh6+f1Dzqs8YeGGCNcAZjbeuMGPw3fgmyUXI1E2g6m3WH1gcmRd6xIeSCGpJqM+e5y+naTSL95AsqkyyhlcuTcGrUY6g/+GPww++8YcWDW29T8gkCR04wPWORwesAjdZNjqTIea5zopgYmhwefxf/Fk0dX1JEPCsVfpSAJiIPedHmJrXn5fbZQxwYhPbQL5sv9Ty0hQMvUYE09T1o2SFDHLLFUNEqNT5cwdD2heYMcCZMLHOuajtYoPwFAwaK5IaMIcTMLlf84EW/toXtwCSoOT5yaj36cuRGWwz0QkSPCftAfNCHNqm52jUge51By9VrSBL4X64gMi19iv2sXD3ZbBgDToSm8QXNaxWEponCFjAShdXr8vgMQaMzrvedDMi1nKdaw0vS6Ezq+9V12v9bDxzRgyVOnV/GdxQoZXKc6+WRxIrZYX8t4niYm/A3FLGzEtc77kFFzrdqVd8Dp0bnroZpAUD0i67Msj2UwYqLbe7NL3AyZ6IgQyjaFqbSeS8bcGFASQExAfGUxd9rFep1oW48LX9uGNL4TmPxFChad4E8bw5i46BORhjlPGcicXVGGMg2BlvNsrp3JHxmZve9UAMiGNRZYrgWj/TjB/yBXx2eplqoMF9fD1Ftp878i6Q+P5uzC2xvETjfsZhhsX2wQCS3yYDTspU3cHCZRQ19qygegBGA4xWASd2m7LsgtiEm0CmKm9V5ebU5wN1nqGpi4z0s/5QjjIP/c9A09bEGyMZHiJeaoK+g2zCRdFD23oqcmlTU2+iy92B4scXMJXzixadkl6zgINcWmr2mcg0Lh5c2/GaU79WVPVuIi90MlBez/tLiwdYiw8zU1NTpemFURFKBIok2SpRauUJfxq504o1aJFLn7VoQNZ87vUHl/dRk3VggFP41bPTly9fPn36+fT006d//348WatUFBhpR0UKGvpUfXDfM+IcsLC5r9oVUqTiBzHLqFnmOjlcH16Y4UGNnkK9ny/1Jioi66lcrRPREws1Ww8TE2R3/fLcO5H6ZGKgihzqllGsv+ATMFrSJs2fm2efXn80MY9V9GtsRJAs/wB2/6NDVEGeUGmvH2EssyaLv8CIg0Afnrw0GkDLKi4qHxsBZMdm1KTDGjk/cF8Np65Pu+I6lb8uMLXemcEtr2p5ldfSKOxaNDtlj+vAUi6i02IrdX2jvDhwnNwfGDSX9MmJym/hs1ekpKuKHkNO/aJFTrRI/6ZoTwYrPqLfDUiTDWBgOFY4vNAxbSLTNaZdZWxtw5iF4Q6ltKrJcN4mXg8WTO0FOHEpXlVbM4lDqMjvX552zWFxXI+nnE0mslIolhpkSWiGkWkFQEuW66bO6MZ8fkOzwNrFSLyyJQYUbQlfjvkBYHHs+CVwWqzJWr3ckIJmk9SpC1XZ+cpDfUfT1tq74U22GJmWv4JrUZDl7ORwc/PwjHJDXR0NZFRVtiUGNC2KpbMD0YZYuYd/pChuVtf6Mqok0P01pDhT0wZX9boQx/FQKE4evKYc4OACp445iIwrq+v6ZSZWG6qq86ngGuTAS307MA8KZuYuTN+fKM2F46xO38xq1+QOiBtadZ64sXji48BFR7LGd+5PAcMqAGqyDLjm7v2SbYxx9Z9qPcO6nPjoOKua8VVfuokeUHFcYNDA1viKF+6MD2Fdhqp81+EYC6hU58eaNdTlduBeCAXN5vYTVFilAmOsy6tOExfsTr3zQZFDZFEzH2i0bADThfPMO5M7wL2NL0bYJwKWNv1Z5SO9pLXgR5cAGytBKKWh6rtIl+F4N5j1bTDx2beO1sCnLi0yp2U9iZem4gwKl+Bk7rCuu1zi/WubesTuqgmKN6bpsznricVxpZWxWM9FfFj0MmTe3DEVtMgLYXVVlm7mAUtxVIzj86JNz8TPvnazPgk6rzcLAGqHwTbt6uW5qaeTlfwXu2WOffW1ER3dmWi7XSJIkVEaCGMME1czfnYuiIJStiS6oMH70YlgCPJDDuY/GAHcHDTCJwV6AoGl1TFkpKxDG5kcrEZjl+yw3K4uqHieODeRyXO/saJY8dxPI3VTuEvx+LRseil2wvqgmPMrtjDj5oaOa34FXFYYnhDRDtiG8DfBvW8eXIlJ2/K7Ax3J0EJmXSCui09JNZ8b0InMDh/3/oTc90NSIxBaUnMdLm6p6eJTPL+TDQAXFaoKQ8Xl7veP0IUkz78I4sbrZWoJbjjS7D+40OFuB6PM6FYoH/qK3AvoTwsn7ng7kFtUZ4NY+ZMi4kAXUOCFlu/xFJYH/q6FAUkUpEYhxXKkrkXMixU+gBAjhFeHfMqHJDEqdGr5Ns/bG4S8SQcoG36nBkSKvsxcOKSRSiulLfsMugADlCve/1sYkewM2qEAoPJWzvfpJb1BV06BkoZHeREAbZFepPEsUH07rbpl/XLg1SagVPd9zuk12bmuKoOIwJW3u1ZUT1PD4e5NJX0MD7MXAO3WtVRZEkWllmKQInGz1gQnAOAUhd2QoKSr68HYqZB3qwJRK/kNB1R3hwPKGOLh3yVzFcbb6epFQE7omUdVjgiN/BdHVChjLsY2CqNh/ttxVZEYoQjg0unqRjCDCwOqlusCsyTcba33QuXtvdasw8D44VsasjIvs1JNk8ENYg+MedeqLAmVMRWpXlD2HWhdmAHxir+oNpx6mjuX6eMr5HKDSA62WG2HNsEmuK2i1jghEm050Lq5W+M7UmLHnwJcp3r8jQ9mCwyofH2mGrSgSkHzq+rmOrjOzZJaX1pQuaj2XowCEneJjhVAKrTXO7KFcWHnvK2xXHCaXREdbFWtb3AhVav974zlkC6v+U87g+4VdfjNSBR6m++YYq34hP8cH9XPU8xfl5ZL9/0EvCR4cAMIqGAmpGjbQgjRqIg2vJLwnlfKpGqW5ley2a/fN6emjUFBhvVamgwa7lweGtzBGgCZgrqX20ks+/v11HZuslxpVMq17QNy/niX6EX+aSJjKpKKbNr+VsodrHTZDWZwHewNHtQH5PegWz7LhE01UgdVdu+9+8lFMIMbmlnZe/PCeto79PbuMHs4zajb6GgXn63KvrXKSpcHwQyuKtmHszPFLSjFmUWzZ0c1nZeJsFkFo99ZtC5iKSLIBMLMAAYt9iV6/L6CUqG1wGgdBe+V8Qtto5Dg5UebuImTOXxvfkHdI6c9Msn+TBU5vuzQafF+tHy8aaYFCot2300cKqF9FzRJHrMzP1BFlmHo2z2SHRD5TavCCba6Be+uFiI0ktQ32jBmZl6SKlJl/5f8+oh6Vr9bra1UZg1uf1plm09+o8oe6UsLLVBpj26AdkU9qRGb/RFZlZr+Q8spnWq1y++8Ub9xUTVrTadBPpVOW2izW3uB7/yoYdjva2HaKRcZFQfSVexbyD51VxZacJRst5Mw2zfTFvEWfjvBwq7oHDZjwrRTbmqOkPZLNqRu8MVfXEZMVwh0SM0rT9NuPVGPH0TAYYjBYQ/4hTHeJm6qejAN2ocePUs2GV6/OjKlu5Gj4hbS8i6ixeGFtskmliD39SwaP2O/IU1iZbluxraRzq1ggu7zv/5qJ+tXZWp05f/UL/KLF9nQ7Ja6C2WuolS+8EHGV/SuiN/tgYOQ5G3iYmkJdNLrfCp/nL7swGgKiFE6nJIqWeOpPUZAm5dEKcIhMx3ECiAR07OCGHeSspxQqu/2RdLR1XH1UgESYOwIo4xtZdXdGA2pNwRU0UgrKHgOzCut0D/JmJLCcwbuutI7fASdo2rHeeebSEdLr5L57e1cLpcvKEIEKJcXV5LyLUjaNyYKu45Gagxanj+XetkqCcYTbFRJAREhGhW4MqLiy1yF7D3JKZfVi1/HoqCD8sCgJm7WDMHwpVF2fapbYFXGtaF1aoAXkRloj7UqkhDloL0XxUL3+PLysnp08Q1v1wQuEW1QT90qmhkY6RxuO2VKTnHa3tWpeiFAP1snFZNWVMI/JzY24KVDejWJNm+TcKYQEKzq/g1hdes50cJ8aPKu4KENI9ric5wgSOWRLp/kakSVpGjlfDtf6KhXLn3l7wamJrFuQVywj5ZYcMaFdqblJpLEIlXwrtVR1al1tUUMCe0boh5ESe8Hs9iJhf9kPvkNhvFh5gaGsNM5lhx04LUUoKrWlE6ldcDaTKBTPQhuT/hZfs5y7zCjpOg8c5FY9wpzFDGPwkc4wPucCIAkbDCyKXCJgsmgEvwinziznD3DmkY3etC6ZIV5Ho6VRX4E7xQKw5Ztu9MmCX5AsKHHyUTCMriMdQUHn+v08V4Szalxp7DP2iEXpPMBJkHL/5XA91jSwvCVgvOiridWmEKuk6sD0w3GQitpQAli0R7L2qcM2YGdEsZZsEs2SMa8tTkIKdUVQ8/LWFACjSofYAr09b/Rff1W5bQTsFIhLN7aiaRyWd3RpMPsFSeVqqBgQ78iWpsu2/t8mXmud0XmCuqRhTozbVRQbBGYtw3xf6CxVfedNMS+sC6w+4k89utoJkEqJ1nGDSry+qBbYfSnxRt+0dK1b5bLrKS7XTiwSYqZQYF0oIoc0p7Ot2qhOLDhRpkrfozNhlyImGO+DDrI/6wFT5vZtGA8t+FyLNrez+FxEKnMzpGkarCKrNOGS9YAYsPyXBh2cnCt7l2Fnf0CJWBFpmjHbR1DDYuWRlk1m+t0jDo0F8GhDdQi07SykLOSWHZ+Zq5e+7dZDBzaQEMLRHuo0+JUzDIrJRMLywvZ79KQolEx4vColZ60VdQOGESTti6/nqm0czKksY3ugWkfc6YXsob20XJ9LNeqNbxuuAgNcvVLwI87+3pC0XKCfZGrRT/IIWq7HDy/brbKIrR2f11dHNdYnbo9JY1mbbAr9W9OExQtJ9jtbpJ+xoTEqGKY4l00/BeXCvCsylIVL28G+2i3R0+1x+GS3iGBkexQ21YwE91JClfc5qucpDi3dDoI0mM0tEGVVoksf1Sf2B3XuhsZ4T9lrJi9CZTtjrYVkZNqB553GEljXxvMY+x0WeFfkomrd8FJXNuG06UecMeqpVO3gt6V8DLoN2+jC/W4mgx8aFHx/P0q4o3HtF8G0W3G5NTW6KQOg9aaq/Jo8nrABY00rkcFPLTk+fObcO7S3UMCY3YeaI/vEpk1KjrIIO0Lx5eutVm/0SDgoVWXgQ4T4fgudW6iYtdmPqfOXrtX5i1laPLSUZ+ObIq2SkxUkEEjEXJmZ4n4En1qgOGK+A119goMTafWQvXmhaO0u82fpMs0LtAMoStOXZk/nbLcBS6y7qIY4TATIwgxSjYRw4cd2fqkmLANqMeoozKI+xgt8kA9s9cly4YGQKgxQolJfM+BUNmwvaPWlcFd6rXjan9thslAuorWcgONkFXRVzRf2XfQATk7bruBQklJOrddChIYm4uTF9V0H1eEYdGSbaDJjyZG28V3+7O+osqInXcMdyHY8yG8HmTNo66qjqv0BiyetMN5HPAT49TsO5sBQWE5X05U3e489W10A13EFngmYfzrPLxSJ53G8XGgJQtK6IfEsx5DJig5O+857sLHj9bLzs4Ui4t4o1DRUrvqHh9AR30Eh9dh9iIDlU5voM8OqW/X1IrQZjy5DohgkhFM8maPgWy7tbpxRHS0DnkbDF7AoRv60rjBPbClH4tY2kxarAcxRoROjmGg6S1J0EWD8SP99pUaNKA7GNOQ15wEAoAGtnqEj7s2JFi8S6BpeJlPeEWP4cxZF/pMK4/ohQoMPL5ptbpuVTW2KnlabRbD+7lKHFZi9QPDcD6qPLYw8NscsyQuiYJS2zYRr1gPo8DBzR8TJwSdLW700njTSG8bHQVK57KKUKtHZIY8CWLfGgeZtavoOXBYAoDEXKWQT2lpH32a+IUONMrrUD+Pj+E/aJSLoaz24PBvkD+tShXKsRqtBR8e0/LECot4OccnE0qRaJSly6SFsFXZriePIMsRZsFPJVjU++2SVxdHR+mjo+OLKy0wfTGMqIKSBzxL8orjg2PRBmBq7ykd26oh98jF8cXFN/VOSPWtReaD4ZEEuA7CFoYqY0mVRXbnl4girBnyIXpk5q1HWDPey67Y3kW3hQ4ZFcnOBwfejfOOELEDCxvwvUU15qSn7p756xYnmi0+o1pI558Vs8OE1GXlIPPZSdOSLcUOjN4ohh4SZaYLDhBIG8InD5iWNju7ODMzs5gdDhnzDPjDqVWn8YUeuNURzK3j6FXkfchMtarjw8WZxZvE6SePPiTCic1Xjrz8Qb4ChIhWiMOVKWxtSQP5cNIX32SRX8UPhunBC8PdViOCiUW89rlGvkoM+tAt60Cy8xotGWSmKk6bXKiSasExVgs12nfJDR8G720upgt3pzRq/NUM3aLeW4jTH/yBv7sbo14KNWNMGZi2iAY3HI7vCg3GDUCWaZwjiTyVoxWXd2BI9IAY2dvjYyOqjMl3Jsr6X61I6JY8ov8Ve3s3pX+wUsIHEs/1Vwqx0GhrxC45cWDa0FeyHjQnS8x8liWWhzdlNRN8e9z4DKQ1+l9To5DW+Ct22/iDP9/F3x3f0F8pTIdGWV1LbWFw2hl1cBcATHcijHyWIQ6Hckk7NhoaN2pYI6Poq9TbfCMeGmXpWdIH2tC8NrjI6sJ81mGzC1ocTJN72qbxI+1x9NW31HK4fC9A2lljcJEAUSz3m8EO3f/uaan3+PHb8KsZo6x1APGDow0tfyAruXrcJAlcrTfwMnPdxj3tD2oF7e49+NXpAv12kLRqw4lpQ28pCsr5gx68Lx7Ygd3TWqZpiFbtwlKwtEWeLOSatwpAe/ZMjm04Az95Vlycffjw4exi0SttaNyohExOwK9Sa+GVTLC0oeXfiC5bUx4QiQpKOVfvuX8aDK4WPdPGjOI8ckG3x42fuPs2YNrQ10/ELjOSWoB2JuUa5VZ+bH/9YGNDO61ne4/W1tb2lh8b6ZsH2iXzPKXe7SKrFSxtlj/NwLkbLzkWaaQIhMaiVhYZZRYPtBmj/rwObTBlteqIiUm77hctqmKchBM9cC1ZH/OWfg+09+7SHw3NGQ4Ix1Y6bZ27a4jsFy3eLP10NRGf67sQKahTzl5r8UBrmaiUYpdLNG1KuHXPEN9oyTrJ682pTLPv/vTkROz37nigDUWNSLgSD8WMFTblrZnWP0KTkPz8/cnqdJ9uNq3bxLZc5YV212gTnrwfGjfyzfE7Q6HVV8E+nO2yKnCULpNzs3X9mGhvl3rSUjM1txAa19eakjhstmryrQBxef63giKIjkOsdbRme9CKAtWNxKCl0oDU6C3DZuWbJlpipeSlAGhJD5UqB/maIjj0Gwtk2KyLkTRtPZUykkcGLfXZg/G44YBwZGX1QK3pIGjNm0Kgc87VKgr0s1FRE+R0uU55A7/9rGgKlmlakzBoQ+NGrAh2DTXo/GDQFoKhtWyUoF38ZGokn8+h/Rq2U/uW1c0XRi3cE20zZxCOG/+Xbw2T1nY7fS/ZMVf9PdFOGOO5biRA69hIDY/WuldCL0mZ/b0n2h/MJlFStxkibSjL0ma2KLs0ryfaOzLrk4WlYdMyFu2dpFseH18o/bh3687t25j2YL2drKfGRka287lWYbJWrpQ7SmdSstOGxlkFP5TcDps2NMtYhLRKjpztWKvcUGQikiBAl8UpHbT76WQrP1KvFzrlFHNs6WjRkLv3boA2ZNsoyCKpGic47E1LSb5BOnKYtNOM/Ra+4JLc8GlD2T37yRDZz5U5tHrPbFc2ZLuiaDupM2njjPsYtLB46LRQnSlr1d143k6mtnOFsmJsN+p4kzm0reVmrGfkCFNchplq7Vpo1/NIykOghc7oyWl4LhaRIhFRFHBEZQokAfNWVYhTVlry7d45EJRxe02zPGehTY0vIJkbBi3k/fopPhGTHfIDkTH1IOpksn/GByVqL8egCpyZNjocTp13/nR1ounAa92kKFXmaiT+dUG7ZO/pV43UMPJbJ1nc+20zsQQHmNF1Qq/FpSY5/akHbmgzNqNeHw/dOC3ac/HPT6tz001gJTaK3qlJOZbxULuA8pZuzccC83ob7S0od4jcHhrw4vLH08N4aXoXIsuAiKTd+zdWk0cnbnmq1IRYgWZtwkpbl1DUMo5F9K/m6EJmnv361+nZZjxTmpiYnp6emPgDdx+NlOXd+B3r6bugpVNcIiS5DTnUk/1YrfYkZG/Nd+///PDnn6hJsp2r7Cb0opFX2gXr/Ta4AudI69tagReZ/Z///XS1vZ37/f/+iL81TSWvtCXLvQhtzUj9jWidxSvtD8v96dt608zPSHvHYqYm9QDxZ6Slm02Q4HVrLD8lbdPc0SLrhZCfkva+Kc4+0I3Uz0lrrsSNGRnAT0l7y5TiFoz1D2Yv3N+OVn06TzLZRn2O+l95RKv91c7rtKHxVFKXtlqBQzKabydtMuZDn6OPclvWn7wkyHdKEf0PkYO09F+axKIC9RWjWsuJgl1E7v8BRdOhw5T0kVAAAAAASUVORK5CYII=;" parent="1" vertex="1">
          <mxGeometry x="1059.01" y="268" width="80" height="71.9" as="geometry" />
        </mxCell>
        <mxCell id="3EpMYGW9OJJ_J2EonweR-56" value="&lt;h2&gt;&lt;font style=&quot;font-size: 18px;&quot;&gt;&lt;font color=&quot;#1a1a1a&quot;&gt;On-Premise &lt;br&gt;Data Lake&lt;/font&gt;&lt;br&gt;&lt;/font&gt;&lt;/h2&gt;" style="text;html=1;strokeColor=none;fillColor=none;align=center;verticalAlign=middle;whiteSpace=wrap;rounded=0;" parent="1" vertex="1">
          <mxGeometry x="1030" y="196" width="131.5" height="30" as="geometry" />
        </mxCell>
        <mxCell id="3EpMYGW9OJJ_J2EonweR-57" value="&lt;h2&gt;&lt;font color=&quot;#1a1a1a&quot; style=&quot;font-size: 20px;&quot;&gt;source RAW data&lt;/font&gt;&lt;/h2&gt;" style="text;html=1;strokeColor=none;fillColor=none;align=center;verticalAlign=middle;whiteSpace=wrap;rounded=0;" parent="1" vertex="1">
          <mxGeometry x="318" y="372" width="153" height="30" as="geometry" />
        </mxCell>
        <mxCell id="3EpMYGW9OJJ_J2EonweR-59" value="&lt;h2&gt;&lt;font color=&quot;#1a1a1a&quot; style=&quot;font-size: 20px;&quot;&gt;write results &amp;amp; update Metdata&lt;/font&gt;&lt;/h2&gt;" style="text;html=1;strokeColor=none;fillColor=none;align=center;verticalAlign=middle;whiteSpace=wrap;rounded=0;" parent="1" vertex="1">
          <mxGeometry x="868" y="279" width="131.5" height="30" as="geometry" />
        </mxCell>
        <mxCell id="3EpMYGW9OJJ_J2EonweR-60" value="" style="endArrow=classic;html=1;exitX=1;exitY=0.5;exitDx=0;exitDy=0;entryX=0;entryY=0.5;entryDx=0;entryDy=0;strokeColor=#CCFF99;strokeWidth=4;rounded=0;entryPerimeter=0;" parent="1" source="3EpMYGW9OJJ_J2EonweR-17" target="3EpMYGW9OJJ_J2EonweR-53" edge="1">
          <mxGeometry width="50" height="50" relative="1" as="geometry">
            <mxPoint x="319" y="347" as="sourcePoint" />
            <mxPoint x="574" y="346" as="targetPoint" />
          </mxGeometry>
        </mxCell>
        <mxCell id="3EpMYGW9OJJ_J2EonweR-61" value="" style="shape=image;verticalLabelPosition=bottom;labelBackgroundColor=default;verticalAlign=top;aspect=fixed;imageAspect=0;image=data:image/png,iVBORw0KGgoAAAANSUhEUgAAASIAAACuCAMAAAClZfCTAAABNVBMVEX///8vtXEhNEv///0hM0scMEhyeoUpOlAVLEX9//8vuHIhMksdMUgZLkf///w8SVxmb3z19vcRKUNhbn47SFDp6+3N0dYhOEzX2t7Bxsze4eTv8PLHy9FIV2sAID3r7e+epa5TYXJDU2YxRFp/iZWSmqWmrbWIkZ0phWIiRVAlYFeiqbIiPE0soWsncFwgLkoyPEI1SUyiqKlaaHkqiWMnd14tqW0jSFArk2YmZ1kodl6yuL8kV1RFTldaY2dLWFsnOz25vsU+fWza8OW85tBWxYrr+vEjUFMtpGyg27xqyJiD0Kee2rp/kJaanJ8uPEgeKS8pQURka294gIJAS00ySFQeLTn56tzWu6W7u7pTWWH/8d/UelrncEPZcFRueHvzcTXv0L/rbEkcKCoAJzLTloHShnNXmeWgAAAQFklEQVR4nO2dC1vbyJKGhazWxZawJVtCkq+62RBIsHFIIA423ltmzy44CZcMOXNOzu7s7v//CVvVLYMNBBJHjGONvidDZKnV435TXV1d3RIclylTpkyZMmXKlClTpkyZMmXKlJyqru2aVdO1batWc2LVLFNf9hdbtpq2PY5Ez6v7xSAo+nU/CCSeEE2WNc2QCSGB79c9T4zGtm0u+8v+0dKr1nan5EuaYQAOQlRVJShV4GeFpzRNNgxNKpY627Xqn8Wq3HGrLBkAh0yBCABDRRo3IkyqGpcgAMqQyq2xu+yv/9TSrVCSp3SACjbcaDQIdLGgXi6Vr9WvU/nIEjsdohJUDTmFVnqNSXdEX5VJbBQyLxW9Uhh2orGrMyn6bTXtdicMS15REuQYLJGJLzrppGSVGwahbZQlX2w7MIh9Y0MVHQY7py36kiyjORGj0a897ZddhmxRlqF10FWCcOwqi1XijsMAnDeYoWyU7GS/4NIVSQb4EkP2WtYP1mS1+jJaoyxEqeptZZXwRJNCO4lW6XYoaURQSTmByn4WtRvQxbx2cgO22/ag2zZaiVW4bDUDlSf1aqJ16p7GEyk1QXfLgFEoae9qQ8RpRAlXujSJMq9KiddaJLxcSrzWJSlD9KgyRI8qQ/SorhFZTiL11ejsI52IBo3Q+dFxuumEjTYepBURTGGDcm3REKlqlQKYyjYG+CGtiASYqcmSJ3baVlPXv3U2q+h602p3RE+SMXOUZityijzOQGkOUS16ZTFqDxyr+cCtStV12pFY9opqnIkjcOcYL6UTEcxAIx+bytOkoyYbDUw6apLv9ft9zDp6TPWgKIYifPQDCcrIGk07wkzYMPwongunFBGHudlWuaixrP40d42Za/of+0GT1tMDgaZkCV0ZKZZbN1nZ9CIC6aYdhX3fD2RDixdA2NqHECf8BUEV2CkVk/6yHPh+P4zsuTRlqhExNU3bicIwLEuChH0ILItCgj9SEEiShC5LKkOJjmObdx3WnwDRjHTTdC1cf7VqVJZtW3BsNx/KwP25EC2kDNGjKmrEyBA9qKLUr2eIHlQ/mTnxz6GnQTROvMYl6mkQpUqAiDwRorHXScWCo2jwpPgUFZtjka+nYqEoIjzxn6Bet1zktXQg4kJB5QeJ1+qWCRG2/umfE694Gar6Agm2E/7ntvu8wL9+mf+XZKtdlrbBG/F+J5FdD7HcsqQKW5tra+lAVA3Yzim+lFi41yzzamEHCKUDUTMkvEQI3TnlRc6PrO5b8QqKGRKhwL/MA6JU+KIOOA2pVZam2/i8cOB+/wZh3bS2+z4zQzOU1MLGPhDK/+u/Jf59lyDRkHiJczt1VcMEvQCY+LrYiaKBqeuPoVJ0veratXboBUTW2LjYDAMivMZelv/lsP30DXh6iTIigpZZosSS+wLbSG1Ivt/vtB2nZruuazZN+Gnb8WMONcuynHZU8ovFAI1PI6SxTeurhoFQeHeANvTq2a6fhq3YMAERphMQp1UKABPbc45pe81ogGRwVSwdC52yIFMRQcPVD0z1Yx4bSrLtRGafJ4Wt50jol2e7ghwur2WJaX4aq+iDsEQ3UhuyBm2/fqhBpZp7xCFeHMEcf8Evtej9ZgmI77ykNnQoCIXXmylw2PfM9E3XbrE95zKAwl4EpkLYCoiAZkPByJpUxGdovLDVnj5X5PYJLxT212gv2wBCB/l/X0KbEtYDyZCqDU7H2RZL5brvg2mhZRE+qPfLJVEMt8cWOqjZ1Q/bBxvafUMJvd0VChsH+ZQj+l7ZZXBWhRcYD706LEBotJlfS8MUJDlEtgf9sHC4htrcgH5JO1yG6EamCOFCTOjljsBc0lo+ne56IVl96GW7tJeBDRUKuxher+X/kkDVy1ZCiDD7IQiHjNCOAJNYepiKeWwyiExRUsFTMz+0VShsHTBC/7HgY0k/lRJBRP0Qzwitbe3uvntOCaVlGpsAIlfUhMLWS2Y4+YO3b9bYYSq6GVskCn6sCrsMo/3U+czpP5P5jksWLhL92AqIW9d4YWPzLqC1tb+kwRVxtUAlxR9JW7ueLAi799kQDPmp8EXcQFJJuDgjtyRjmHgfIWCUDkRciQh8abAgJNeDuT3/5l5Aa/mXJ8k+C7gsdWR8uLrYWiRBaHrTuf19hF69NVpJf9tlqCapPKHP14vf/aoG1zP4r/ey588KmpeCjQ+1PuGlooQJRU2ql6KHt3nOyy1r/HU8dEcQZQuknAJEEBfxkt0JMLGvEtng/VLkuI8vfoDMMuELG/eOZWBDmzsFnhTT8E6DeAXE6hQNAz0vj8sfUuD7pbZTsx/ytmZZ5gss5XEPoQOoSzZSsZ9vukgEXa7lE5m9WUUg7MUzWuD1vbrXL4tiGLW22+32ditqszVXFwltfMUPYT6E17w02ND8HE13B52i3DA0TcXUBn2RU/y6Io0IEopXtRYtWy1hL3vzFUIvNgSepGR30Z1prGk5YrnOXk2kxQ/D4CptvPpBiMSCg4gIwsbXetmLQgFqTcsLaO6f6bu42Nop+8V6HZcYCfCiS2u8FPTRkSsDQeULX/HUay92BV5tpGbX7GPJEFy0t8Zt6ofajhW/XM7ywbXvPEBIC370LTY/jxbKF1UxVBB2frl37roPHZME6fDUVAshGtBQs3D4/C6j/D72MpIWP4RaBJFZx3Vpgd/dObjDiBIy0kRoIUQDzKFt7Qh84fVtO9rH0T4dEeO1FkCkeETY2Hy+/7pwm1F+n4dZxxPsUV6qFkBUk1Th7av82ib45d23M4zyL3eBUGrioakWQBQZAk9Dok1cl75hlD/YQEIpGsuYvh9RFfpZ3L9gNg+MXk1Xh15jL0ubDS2CyCqSeHcDjRKFwiGNj2j2Q22kzA+hvh9RBBO26bLi2gs+7msQD4ENGamZdcwoNKDF35MaNKGfbd3E1fu4kwhiyJfvhDT6IZSl8fx37Wu1JHV32s9Ar/bfQZD07vA1D7OO9MzL5iTiWwtbD71hZl5lTdidC6oPtgQBY21NTlfEeKMmD1NSWfJq37a4rMuCsPVqNlxce0f30sp+KnsZlV3WCK/Kqtdyv8EnjQ1BeDE36wArQkJpyTHeq2ZHkgVcbuS96NGltI7BNudPTeg5+CIeJq79NDzK8IDcUKNvwNKMhlRq1R5YStM9bRoU5fNrrw6e4YBGDC1dL2++V7YYGPS96apsyBJ9T9jAsuw7Xc8OCI85ffgD9rODbpo0/KSfG/05pTRroa/J9KEXAZ9foL96IOiL+Ab+qO1YFsUwgKvP0AG9ebuxWxAEMKB6Ox17G75JTSfqB42GQUj8+y14hoo+hBXQIX0bc9bP9g93gA/+0gapk9JY6CG5g9AL8FVz+OsrCHslGMIi+OoGpUUfWCtQPrzXSmsk9Kh03RxHHdHz8VEhiWe/HkULBgqnRxCMq/gGNanfMlOxTe+HVDVBru20Op2o1Wptg8+pRoHAB345/KYY6k8p3R5HA/vbZyuZMmXKlClTpkyZMmXKlClTpkyZMqVCysMZ1Qeu7p2e7unXZfBHLqc8Ut2qSYE20bat009M1xfp4UyLc1BYwVtyufV1OORG3cmRPi2Jt8L5e/4vuVUGB+3l7NPTU4u2m7UdWp9j8GizsHW5a+FN03IKN6xURjo9iT/oRTeu7Rp4TmFkVxURtsvpdt/vzSFaZySQVY4SY22kGGYxAaLeSGcFsChesd5f18bYsupWHVGlS99JCW3OsZNK/JFjnWuu/GwRakXXfQtBctak192bKTc9muvCK6UcRTRpmaarYxtMZ28wNimAqunSpZ+qztaH2O4H1mB7sDdwdIYIfx8PXmYALAAe4Z0KPWvOerZVRoTqWopSPat0J5NJ5cQEe9rrnnctvfUZjOKMFfl82qSm4n6cTLrd7tFgeFH5DIiGvV7v4qI33DMB0fHFBdbmAL9zODgf7sWLSKlAZH6GQ2xhd+jCiA4fxh/BKPaUsx5VpTvCrWfW0aTCdHFxgYhGFbiGVYxcxepeI2I39T7AWQYn9/B3+UkVIwKbeG8pH/FoOAQz6g4VRHRxBFd+Byt6f4wCRkMdQGL54bDbrfRYRxt1UcCt+xEQAaBJ973Djeg9x5Xeh4/MgHKriwiaRHeQA5OuCH1FP0PTwY+9yuSjAw5Jp7I/XoCt0V73BYopWABGtBxeruq6BeguXes4dv4Kvadqw9ljaka3Hf8KCUe0AXgK/WOlMqR7g5QRHAEB6DJnOvaP2InYMFo5+nkPHRCeOq1gR8tNRzQHrK8GVjRpz0bkNTxLa/0jG5WspoO+ewQO+QR0dgKIJjpFhK42x1XbJ2cgsdI7dqxuDxmgTZjgjdAXNffo5S/Q02o2RYTWadKbTuDsscPRSHNF/fXUiiDKph53ggI3fGkiIpG62Ktz9DV4Gazoqteb1BQ6AwE/jb5oUEHvVUEffkwR7XFwcVD58AF89YcPiEhRAFFuNRExdw2I1imio1Gsz+eIaDLGAhb152AxgGjiOGBFNRp6KwxRDYgCIwR7g4izLsFPx2S7NYCjrKi7VuLQERFBR7s4qzarIPSz6K4nFhY4wwIYHFoAgnY0mGHgNBY6WmUEsdTF0QDixOYYEVnU1a9zZwCMnsV/AYdNfpfd2oUUI+q28Bjc9ZGLXoPb27MUhgj/6cFHlbCN3PYEWwvueqSjWSgnYCIjE0LsM5ztchHCcC8rlRMYFYfYS1GnUI2z/unXXz+tr2RHQ0QuOpmxW9MH0MQhxIb66WRyeRYjAmuBYZu67Sv0RWPu5EOvMgSELhLqjUyIpoY4N4HbwetUsWeNzSrw/kzPHvd6W7W//va3v/3902oiwkTRkEXXp8oXbN5weFShQxmGSRZexzD76Oxs2KXummvS8qPPFerAR8ppF6Ijdhkd8xcaejdP8aYTOAuBt1T7r7//4x///euyW7uQFLSSWoW64q5VHTKnXOke1bgYETiQJm09cuuhFXH2aHJRmWqkm6MPcG1CZy4wvFuIqLunn0NNXTovgY7GEN2XblsBYSbIOaIziFPoYt1LnKGegUvi9n6HSQlm1Djzy3u4fFlyfj/+3QGszTNa/tyCOcZ5lXOHlzD9uCy1Yd5xBUHEEXzsWiae7Xa/DC4n/+Os/+9vv/3fX9dXsaNNZV9d1XQM7RRrMKihD4nHnzhV27y6uoqfWqDNrDqDK/fms3k1mF7WaW20DvPqKv6dOzAGfPq0vpoj2qxukl6KwtKy17nsm/NzGQ06rCnz9yt3TnMsp32dzVxVzfFRrs/cIJom8G+NStdlb1c2uw87pp1bbUQ3mjZjFtHsqUfvzzHKM5Hi+vT2RL/oH63cnL527f7Sd+6d+SvO89O7VjXteFt3Cd3VPQZ2p47cbDGFOqJUIFLunUvdadldzzN//Tbm2F2nAdHUMJTbp2f/4m4hur5pelLhpku8c4W4Vc1dz+kr/ecOors3cXPdirnsmyJTNGkZ0TJlypQpU6ZMmTJlypQpU6ZMmTJlypQpU6bv0v8DhyTeFmXkJWkAAAAASUVORK5CYII=;clipPath=inset(4.6% 31.03% 13.79% 27.24% round 5%);" parent="1" vertex="1">
          <mxGeometry x="1055.3200000000002" y="510" width="103.96" height="122" as="geometry" />
        </mxCell>
        <mxCell id="3EpMYGW9OJJ_J2EonweR-62" value="&lt;h2&gt;&lt;font color=&quot;#cce5ff&quot; style=&quot;font-size: 18px;&quot;&gt;On-Premise Aggregate Results Database&lt;/font&gt;&lt;/h2&gt;" style="text;html=1;strokeColor=none;fillColor=none;align=center;verticalAlign=middle;whiteSpace=wrap;rounded=0;" parent="1" vertex="1">
          <mxGeometry x="992.8" y="474" width="229" height="30" as="geometry" />
        </mxCell>
        <mxCell id="3EpMYGW9OJJ_J2EonweR-63" value="" style="endArrow=classic;html=1;exitX=1;exitY=0.5;exitDx=0;exitDy=0;entryX=0;entryY=0.25;entryDx=0;entryDy=0;strokeColor=#CCFF99;strokeWidth=4;rounded=0;" parent="1" source="3EpMYGW9OJJ_J2EonweR-17" target="3EpMYGW9OJJ_J2EonweR-61" edge="1">
          <mxGeometry width="50" height="50" relative="1" as="geometry">
            <mxPoint x="827" y="346" as="sourcePoint" />
            <mxPoint x="1036" y="345" as="targetPoint" />
          </mxGeometry>
        </mxCell>
        <mxCell id="3EpMYGW9OJJ_J2EonweR-64" value="" style="shape=image;verticalLabelPosition=bottom;labelBackgroundColor=default;verticalAlign=top;aspect=fixed;imageAspect=0;image=data:image/jpeg,/9j/4AAQSkZJRgABAQAAAQABAAD/2wCEAAoHCA8PDxAPDw8PDw8QEBERERAQEREREBIQGRQZGRgUGBgpIS4lHB4tHxkYJjomLjA0NTo1GiQ7QDs0Py40NTEBDAwMEA8QHhISHzQrJSs0NDE0ND0xNDY2NDQ0NjQ0NDQ0NDQ0NDQ0NDQ0NDQ0NDQ0NDQ0NDQ0NDQ0NDQxNDQ0NP/AABEIAOEA4QMBIgACEQEDEQH/xAAbAAEAAgMBAQAAAAAAAAAAAAAABgcBAwUEAv/EAEkQAAICAQIDBAUHBwkHBQAAAAABAgMRBBIFITEGBxNRFCJBcYEVMkJhcpGxMzWEobKzwTQ2UlRzk8LD4iNkdJKi0dIWJCVTYv/EABkBAQADAQEAAAAAAAAAAAAAAAABAgMEBf/EACwRAAICAQMBBwQDAQEAAAAAAAABAhEDEiExUQQTIjJBYXFCgaGxkcHR8BT/2gAMAwEAAhEDEQA/ALmAAAAAAAAAAAAAAAAAAAAAAAAAAAAAAAAAAAAAAAAAAAAAAAAAAAAAAAAAAAAAAAAAAAAAAAAAAAAAAAAAAAAAAAAAABgyAAYMgAAAAAAAAAAAAAGuFkZfNlF464aZi66EFmcoxWcZk1FZ8sgG0HAnr6/lCD8eHh+jyTe9bN+/34zg7NF8LE3CUZpPDcZKST8iWqITs3A1W2xgsylGK6ZlJRWTYQSZAAAAAAAAAAAAAAAAAABgyAAAAAAAAAAAAAAa7Yboyim4tppSXVNrqjk/I139dv8A+r/yKSnKLWmN/dL9l4Ri71Sr7P8Ao1dlPyV39t/BHZv08LI7bIRnHOcSSayRfgegnbCbjqLKts8NRziTx1fM72g0U6nJyvnduUUlL2Yz05/WcvYpS7qC07dbXv6c/g6e2Rj3knq36UzmT4dR8oQiqIeG9NKTjsWzfv6+WcHc0+mrqTVcIQTeWoxUU35mPSa9/h74eJ/Q3Ld0z093M8XGeG2anZ4eps02zdnw/pZx15rpj9Z3KWr1OHTp9Dj94X8lr/tv8EiVVfNj9lfgV/2p4Tbp6YTs1dupUp7VCe7Ce1vd85+X6zsx7NalpP5S1Cyly9bly+2XaWlbmak9b26f2SoGjTVOFcISk5uEIxcpdZNLDk/ebzM2AAAAAAAAAAAAAMAAyAAADBkAAAAAAAAAA8vEdV4FNl23dsju25xn4m2me6EZYxuipY8srJH+N1a1ae9ztpdW2WYxg1LZnks+Z7OH1a1KpzupdW2OYKtqW3b0z5lq9Smp3VH3wPQ2UQsVm3Mp5W155YwdYEWs0vF90ttyUdz2+tD5ueXsObbBBRjFte2/+HWk88nKUkn77f6fM/z3H3f5DJWV86dZ6coOa9LxylmOMbG+uMfN+o68dLxfKzdHGVn1odPuObBmcdfgk7k3sl7bc8nX2jApaPHFVFLdv33W3B6+1nC7dXRCunbujZue6W1Y2yX8TpcQ1L0+mttUVKVVUp7W8JuMc4ye0hvaDT8V8HVSd+nem22PZs/2nhc+WcdcHprekeVVNskXBNe9VpatRKKg7ItuKeUsNrr8DoEF7N6fistLp5UajTx0+HthOGZqO95TePeToicUnsSgACpIAAAAABgyAAYBkAAAAAAAAAAAAAAAAHm1umjfVOqTajOO1tdcfUbaoKMYxXSKUVnrhLB8alzVc3Wk7FCTin0csPan8SLen9oP6lpP+f8A1kOVGuLC8ltNL5dDu/4hfqatTK+2dko34i59Yx29ETAqvsZqeJQrvWiopti7U7HbLG2W1cl6y5YJxwLUcQnKz06iqlJR8Pw3lt5lnPrP6vvKY5bJHZ2/BpyzmnGulq/4/wC2PBP89R93+QyVnnepqVqqc4eM47lDK3uPnjrg5PaXUcTrVXydRVdnd4niPG1ctuPWX1jDh0uSvzNvpycefNrUduEl/ByO8/ieo0mjqnprp0zlftco4y4+HN4+9IlGq0y1GnnTJuKtqcHJYbW6OGyqu3up4tZpq1xHTUU1K3MJVyTk57Jcn6z5YySeviHaTbHbodI1tWPXXTHL6Z2PH4I7r19V7HKp+J8+np8kt4ToI6XT16eMnKNaaUpJJvLb/ie48ugdrpqlfGMbnXB2RjzUbHFbkvqzk9Rzvk1AAAAAAAAAAAAMAyAAAAAAAAAAAAAAAAAYZkAEJ7tqZ106pThODeoylKLjlbeqySXi/F6NFCNl7lGMpbFti5Pdhv8AgdE+JQjLk0n70mRFJKjbtGbvskslVZXlnaPSvi0NYpT8CNDrb2y3bsS+j8UTThHGKNbGctPKUlCSjLMXHm1k49ugm+NV2eC/AWmcXPZ6m7EuTfTPQk8YRj0ilnySRrNqlXQwVkF72qLLNDSq4Tsa1GWoRlJ48OfPCJzT82P2Y/gbAQ5XFR6X+SFGm31AAKFgAAAAAAAADBkAAwAADIAAMGQAAAAAAAAAYAMg+VJPo0/cfQAAAABBl20u+WPk3wKvD9IdXibpb8bN2cdMk5LSg41fqVjJS4AAKlgAAAAAAAAAAAAAADAMgAHB7aau3T8N1N1M3XZGMHGaxlZsinj4NnTlr9Om1K+mLTaadkE0/JrJHe3muolwrVxhdVOThDEY2QlJ/wC0h0WS8F4l8lZeVmnu14nqNXo7rNRbK6UdTKEZTxlR2QeOS82/vJmV33U6qqvQ3qdtcG9VJpSnGLa8OHPDZOPlLTf1ij+8h/3JzKskqIxvwKz2A+U880czj/G6OH0O/USeM7YwjznOfVRivgUSbdIs3W7OqCp7O83Wzm/R9HVtX0X4lksfW1jBr1nehq8R8PTUwlGMvEU980555OPNNLHsZv8A+bJ0/Jn30C3DTq/yc/sS/ZZ9VScoxb6uKbx5tHzqPyc/sS/BnOalU90Em9XqMtv/ANsurb+nEtwoDsl2inwydlkKVdOypVxjJuKT3J55LL6dCT195uthNekaOra/orxK5Y+pvOTtz4Zzm5L9nNiyRjBJlsA5fAeN6fiFCvok2s7ZQlylCeOcZL4nUONpp0zpTspyH86v0x/u2XGU5H+dX6Y/2GXGb9o+n4Rli+r5YB4+I6+rS0zvvmoV1rdJvn8Eva30SK41neffKbjpNJFx9niOU5yXntj0+9mcMUp+VFpTjHktMFe9nu8eF1saNZStPObUY2Qbde59FJPnH38ywiJwlB1JExkpK0Aa7bIwjKUmowinKUm8JJLLbZW3F+87FjhodOrIp4Vlu7135xguePf9whjlPyoSmo8lmgqeXeZrYQlGekrha0nCTVkY9ee6D5vl5MmnYjjd3ENI9RfGEZq6cMVpqO1KLXVvzLTwzgrZEckZOkSQHk4lqfB091ySk6qrLEnyTcYt4f3EZ7EdrbOKS1EbKIU+DGuScJuW7c5rnlf/AJ/WUUG4uS4RZySdExBzO0HEHo9HfqYxU5U1uag20pPK5ZOV2J7Sz4pVdOdUKnVNQShKUk045zzQ0Nx1eg1K6JQDnfK8P/ru/u2CNLFohPFO7P0nUX6j0xQ8a6y3b4G7bvk5Yzv59Ticf7vPQdJdqvS1Z4Si9ip2bsyjHrveOpcRG+8H806v7Nf72Bvjz5LUb22RlLFCm6K17J9iflSid/pKp2Wura6t+cRjLOdy/pfqO5LunbTXp65/7v8A6zqd0f8AIL/+Kl+7rJ8WyZ8kZtJkQxQcU2v2a6obYRjnO2KjnzwsFR96+qlZr6dPn1K6IuK9m+cnl/dGJcBVfe1wiasp10Itw2qmyS+hJSbhJ+SeWs+aXmU7NXeKy2byFhcD4TTotPCimEUoxW6WFunPHrSk/a2yr+9yqMNbU4wjFz026TjFJylvksvzeEiVcA7wNDbRBaqz0e+MVGalGThKSWHKLS6PrghPeTxbT67VVz01ishDT7JSUZRW/dJ45rnyaNOzwmstyRXLKLx7F06f5kfsx/Axqvyc/sS/ZZ9Ur1I/ZX4C75svsy/A5DcqTuhhGWrvcoxbjp04tpPD3x5ryLM45winXaedFsE90XslhboTx6sov2NMqXu34zptDqbZ6mzw4TpUIy2ykt29PnhcuSJp2g7wNFXROOls8fUSi4w2xkoRk1hSk2l064R154Tea4owxSise5Ge6bVShrrqM+pZRKTXs3wmsP7pSLeKt7peET33a6cWq9rpqb+m3JOcl5pbUs+bfkWkZ9paeR0Ww+Qp2P8AOr9Mf7DLjKcj/Or9Mf7DLiJ7R9Pwhi+r5ZWne/rJKOk06bUZuy2a83HbGOf+ZnJ7Ldr9Jw7TxrhoLZWvnbduhunL6uWVHyRIu9bhE7tPVqq05ejOasS5tVTxmXuTis/U35GnsZ230i0ten1k1TbTBVqcotwnCKwnlLk8cnnyNI08K2vffco9sj3oiHbLjlPEp121aSdFkFKNknte+LxtzhdV633ludlNVO/h2jssy5y08FJvq5JbXJ+/GTm63t3wmqLkr1c0uUaoSm38cYX3kmpmpQjJLClGMkvJNZMssrgo6aLwXibuyK952qlVwucYNp3WV1Nr+i3mS+Kjj4nL7quD0rSy1soxldZZOMJSSbhCD24j5Ny3PPuJB264VPW8OuqrTlbFxtriuspQeXFfW1uS+togvd/2wp0Ndmk1e6FfiSlXYk3sk8KUJx6rms/FloJywNR5siTSyJvoS7vMphLhds5Ri5QlVsk0sxbsinh+zkaO6lf/ABjfnqbfwic/t52o0Gp4fZRp9RG22cq2oxjP6M03l4wuSOj3Vfmz9Jt/whprBv1Fp5fsSTj/APIdX/wt/wC7ZXnc3+U132NN+NpZPE6Hbp76o9bKbIL3yg0vxKl7t+LU6DVamrVy8DxYwhunyjGyuUswk/Z858/qIxK8U0vb9ie04v5LG7c/mrW/2EvxRGe5/wDk+r/t4fsHs7edpdF6Bfp6767rb4KEY1zUsJtZcmuixk1902knDQ22zi4q+7MM/ShGKjuX1Zz9wSawO+obTyquhPQAc5sDn8Z4ZDW6azTWSlGFqSk4YUuUlLllP2o6AJTa3Q5ON2c4BTw2mdNM7JxnY7G7HFy3OMY45JcvVR2QA227ZCSWyBrtrjOMoTipRkmpRkk4teTRsBBJD9X3d8Lsk5RhbTn6NVjUfgmngzpe7vhdclKVdl2PZbY3H7lgl4NO9ycamU0R6GEscjDWVh+0+gZlyIavu84XY90a7Kfqqsaj9zyjGk7u+F1NSddt2Po22OUfiklkmANO9ycamU0R6GuqqMIqEIqMYpKMYpKKS9iXsPsyDMuVJHQ3/wDqbxfAu8P0ty8Tw57NvhvnuxjBbYBpkya69lRWMdNny0msPmnyaZE+I933DNRJzVdlEnzfgTUY589rTS+BLgVjKUfK6JcU+SF6Pu34bXJSmrr8fRsmtj96SWSYwiopJLCSSSXsS9h9gSnKXmYUVHhGCPcY7H8P1snZbTttl86ypuucvtexv3okQIUnF2g0nyQqvu14ZF5fpM15StSX6kiT8L4ZRo6lTp61XWm3tTbzJ9W2+rPcCZTlLZshRiuEDgca7JaDXS3304tfWyuTrm/e11+J3wQpOLtEtJ8kQ0nd3wuqSk67Lcc8W2OUfiljJK4VxjFRjFKMUkopJJJdEkbATKUpcsKKXBgGQVJAAAAAAAAAAAAAAAAAAAAAAAAAAAAAAAAAAAAAAAAAAAAAAAAAAAAAAAAAAAAAAAAAAAAAAAAAAAAAAAAAAAAAAAAAAAAAAAAAAAAAAAAAAAAAAAAAAAAAAAAAAAAAAAAAAAAAAAAAAAAAAAAAAAAAAAAAAAAAAAAAAAAAAAAAAAAAAAAAAAAP/9k=;imageBorder=#FFFFFF;" parent="1" vertex="1">
          <mxGeometry x="1388" y="274.02" width="104.98" height="104.98" as="geometry" />
        </mxCell>
        <mxCell id="3EpMYGW9OJJ_J2EonweR-65" value="" style="endArrow=classic;html=1;exitX=1.048;exitY=0.46;exitDx=0;exitDy=0;entryX=0;entryY=0.5;entryDx=0;entryDy=0;strokeColor=#CCFF99;strokeWidth=4;rounded=0;exitPerimeter=0;" parent="1" source="3EpMYGW9OJJ_J2EonweR-53" target="3EpMYGW9OJJ_J2EonweR-64" edge="1">
          <mxGeometry width="50" height="50" relative="1" as="geometry">
            <mxPoint x="822" y="346" as="sourcePoint" />
            <mxPoint x="1036" y="345" as="targetPoint" />
          </mxGeometry>
        </mxCell>
        <mxCell id="3EpMYGW9OJJ_J2EonweR-66" value="&lt;h2&gt;&lt;font color=&quot;#ffccff&quot; style=&quot;font-size: 20px;&quot;&gt;Publish&lt;/font&gt;&lt;/h2&gt;" style="text;html=1;strokeColor=none;fillColor=none;align=center;verticalAlign=middle;whiteSpace=wrap;rounded=0;" parent="1" vertex="1">
          <mxGeometry x="1373" y="239" width="131.5" height="30" as="geometry" />
        </mxCell>
        <mxCell id="3EpMYGW9OJJ_J2EonweR-67" value="" style="endArrow=classic;html=1;exitX=1.07;exitY=0.269;exitDx=0;exitDy=0;strokeColor=#CCFF99;strokeWidth=4;rounded=0;exitPerimeter=0;" parent="1" source="3EpMYGW9OJJ_J2EonweR-61" edge="1">
          <mxGeometry width="50" height="50" relative="1" as="geometry">
            <mxPoint x="1184" y="336" as="sourcePoint" />
            <mxPoint x="1378" y="361" as="targetPoint" />
          </mxGeometry>
        </mxCell>
        <mxCell id="3EpMYGW9OJJ_J2EonweR-69" value="" style="shape=image;verticalLabelPosition=bottom;labelBackgroundColor=default;verticalAlign=top;aspect=fixed;imageAspect=0;image=data:image/jpeg,/9j/4AAQSkZJRgABAQAAAQABAAD/2wCEAAkGBxMSEBUSEBIVEBUVExYWEhYQFRcVFxMYHRUYFxkXGBMZHSggIBolGxgZITEhJikrLy4uFyAzODctNygtLisBCgoKDg0OGhAQGjAlHSYvKy0uLS0tLS0tMCsyKzUvLS0rKy0tLS0tLSstLS0tLS0tKy0tLS0rLS0tLS0tLS0tLf/AABEIAJ4BPwMBIgACEQEDEQH/xAAcAAEAAwEBAQEBAAAAAAAAAAAABQYHBAEDAgj/xABGEAABAwIDBQUFBQMICwAAAAABAAIDBBEFEiEGEzFBUQciYXGBMlKRocEUQnKSsWJzsiM0NUNTotHwFRYXJWN0grPD4fH/xAAYAQEAAwEAAAAAAAAAAAAAAAAAAQIEA//EACcRAQEAAgEDAwQCAwAAAAAAAAABAhEDEiExBCJBEzJhsYGRI1Gh/9oADAMBAAIRAxEAPwDbEREBERAREQEREBEuiAiISgIvV4gIiICIiAiIgIiICIiAiIgIiICIiAiIgIiICIiAiIgIiICIiAiIgIiICi8excU7WtaN5NK7JBH7zjzPRg4kqQqZ2xsc95ytY0ucTyAFyVRtjJXV1dNXSDuxjdwNP3L34eIbx8XlXxx3Lb4imWXxPK60NOWMAc7O86vefvO5m3IcgOQAC6ERUXF49gcCCLgixB5r1EELh+JFlQaOc9/Lnp3u/ro+hP8AaN4HqBdTSqnaLROdTCoju2SmeJGuHEC4Dvof+lSuy+MirpmSjR3syNH3Xjj6HQjwIV7j7eqKS9+mpZERUXEREBERAREQEREBERAREQEREBERAREQEREBERAREQEREBERAREQUntTxTd07IGmxmd3vwNsT8XFvwK7+zelyYew21kc95/MWj5NCpHadVZ68t5Rxsb6nvn+IfBaRsi21BTD/gMPxbdaM508U/Lhhd8lSyIizu4iIg+NdTCWJ8buD2OYfUEfVZd2X4kYqp1O46Sgi3SRoJ+YzD4LWAsJE+5xAvGm7qyfQSm/yWjhnVjli4c11ljW6oiLO7iIiAiIgIiICIiAiIgIiICIiAiIgIiICIiAiIgIiICIiAiIgIiIMS26P+8aj8bf4GrU9ips2H056RBv5SW/RZp2iwZMRlPvtY8fkDf1aVZezLaCMRijkOV4c4xX4PBOYtB94G+nO62cs3xSxk47rku2gIiLG1iIiAv56xCXPJI8fee9w9XErZtsNoY6SBwJvK9jhEwcbkEZj0aDzWMUsGd7Ixxe5rB6kBa/TTUtZfUXdkf0HAbtaTzaP0X7QC2iLI1CIvbIPEXDj1eaemlma0OMbC4A6A+ZCiNi9qTXCQPjEbo8vsuJDg6/XgdFaY2zfwrcpLpZUXqKqzxERARF6g8RV7bTaJ9DHG9kbZM7y0h5It3SeS79ncV+1UzJ8uTPe7b3sQ4tOvTRW6b09Xwr1Tekki9XiqsIi9QeIvbIg8REQEREBERAREQEREBERBX9rdlo61l/YmaLMf8APK4c23+F1jtdRyQSmOUGORh18DxDgenMFb7FVMc9zGvBey2doOrbi4uPEKu7dbNirhzsH8tGCWH3xxLD58vHzK0cPLcbq+HDl45lNzy59gtqvtTNzMf5Zg4/2rfe/EOfx8rev58oat8MjZYzlex12+fQjoeBHit3wfEG1EEczOD23t0PAt9Dceijn4+m7ng4eTqmq7FDbU7QMooM7u892kTPed1P7I5n/FTD3gAlxsACSTyA4lYZtRjTqupdKb5B3Ymn7rAdPU8T5qvDx9d7+FuXk6Z28uGtq5J5TJITJI8+pPANaOnIALStidiRDlqKoXl0MbOUXQnq/wDTzXx7ONlw1oq5m3e4XgafuN9/8R5dB5qd2z2kFHD3bGZ9xE08uryOg+Z0Xbk5LlejBy48JJ15LCiiNkJnPoYHyOLnOjzOc7iSSTcqXWWzV00y7m1B7RdqZYXimp3GNxaHSPb7QBvZrTy4Xvx4KIOyeJNiE4meX2Dt22aTefHgXeF1z9pERjxHeEXDmxvb45e6R8W/NaSdoqXciczsDCL3zC/4cvHN4WutO7hhj0zyz6mWV6qqYrat2GVUddE9rmREske22cX4H9oded/BRnZzXtp4a2ZwuI443W6m77D1Nh6qw4vtJBWUNWIM5yQ3cXMLRqdBc89D8FTNm6cyUGINbqQyF2nMNe5x+QKnGbxu5rvEZXWU1d9n3w4V+KSvInLGtsXd5zI2XvZrWt4nQ/DUr0YnW4XUiOaR0rNHFpcXtew6XYXag6HpqFKdlWKRME0Mj2sc5zXszEDMLWIBPMcbeKju03Eo5qljYiJN2wtcWG4Li6+UEcbafFW859FnZXxh1b7vv2hY1MyrY6nnkjaaeN7Qx7g03LiCW3sdLLR6uQ/Znu4HcOdcaWOQnRZNt/Ruikp2uGooom+rcwPzWjVWOU/2B0gmYQYCB3hcuyWy5eOa+llzzx9uOnTDL3ZbVDs4xyXPPv5pJI2U5lO8cX5cpFyCfAlRsVbW4pUlscjoxq7KHuZHE2+l8vE6jqSvzsJRvkbWNYLk0T2D8TvZHrYrq7L8SjhqJGSuDN6wBhcbC7TfLc8zf5LrlJLlZO7ljbZjLeyO2rw6rpgyGplM0ZJdEcznC4FjbNqDY8OGqn6TH3UeDQmK29kfK1hOuUCRxc63O2nqV72q4rE8RQxua9zXOe8tIOUWsASOZ428FEbQ4c9mGUL3AgDe5vDeOztv6BRPdjj1f7Tfblel9MMwWurI/tBq8t75N7M8OdbmAPZF1I7EbTzsqhR1TjIHOLAXnM5jxyz82m1ufEWUfs9stR1NOJX1ZieL71rt2MhHPvciNbrr2Zw3DxXRthnnqHtfdlowGXbrcut7IsmVxssv6MZZZZ+0NNjVaKqWOCeYl00jGsDy7+sIAa11wPTgrVgFBisJlklzSuMJETZZw9okLm2JaXWFhc+luarez39NN/5qb/yLQ9usSkp6J74TlcS1gcPuhxsSPG2nqq8l7zGSd04TtcrfCo/6r18pc+srBT9M8t7+TWuDQP8ANlx7MY5UQVzKc1H2mN0ojd3zIw3Ng5jjqLX5L5bL7OQ1jXTVNXlIcQ5pc3PawOZz3ngfLkuShiibi0TaZxfE2pjDHXvmAc25vz1vqr9rvG/pXvNWfttSIiwtoiIgIiICIiAiIgIiIM/28impKuPEKfgQGS9CRwDv2XDTzaOdldMHxJlTAyaM91w4c2nm0+IOi+9VTMkY6ORoexws5ruBCrmz+CSUM7mRky0spuL+1C+2lxzaRpcdBfqum5ljr5jnq45b+Kz7b3DhBXSBos2S0rR0ze1/eDlc+yecmlkYeDJjl8A5oJHxufVfrbTZKWtqY3xuYxjY8r3PJv7ROjQNePUKw7PYJHRwiKK51zPceL3cLn4WsuufJLxyfLnhx2clvw49vakx4dOW8S1rPRzg0/IlZNs3h4qKuGE+y5/e/CBmd8gQtpx7DhU00sJ0zsIBPJw1afQgLEaKqlpKjO0ZJYnOBDhcA2LSCPUq3p77bJ5V5/ulvhtWPY1FRw7yTyjY3i88mtHTx5LFsVxCWrnMj+895Aa0cBrZrGjpqmJYjNVzB8rjK82a1rRw10axgWgbEbEuhe2oqrZxrHGNch95x4Zug5fpOOOPDN3yi28t1PC5YTSbmnii/s42M9Q0A/NdSIsda4jcdwKGrYGTtvbVrmmzmHwP0OiqrezCHNc1EpHTKwH81vor4ivjyZYzUqmXHjl3sRMGzkDKV9KxpbG9pDyD3nEj2i7r/gubZjZaOi3mSR8m8DQd4G6Wv0Hip9FHXlrW09M86U3E+zmmleXRvfBc3LW2cz0adR5XsujAtg6ameJCXTvabtMlg1p6hg5+d1akU/Vz1raPp473pGY9gMNYwMnaTl1Y5ps5h52P0Oiqv+zCG9zUSW/Cy/5v/Svq5MX/AJvL+7f/AAlThnlO0qM8MdW2PhgeDQUkeSAWBN3Ocbueepd9OChca2Cpqh5ka50LnG7t3YtceZyngfIhJ/6Kb5j/ALhXVszJut7C46NAkbf3S0E/RX6cpvKXu4TlxuUxs7WbR2F9ndLE8Oke6cg6Nfla31aNT5XsrVX0cU0bopmhzHCxadPK3QjkQqhRNLqmGZ3GWV7h4AGw/wA+Ckq2iZNiBZILjdA6G2o8VOWN33vwrhze324/OkVN2ZQOddk8jW9CGut5O0Vg2e2ap6K+6u55FnPkILiOgtYAeQXHTRCCubFC4ljmnO0m4boT9AfVRtTTb5lRU82yDJ5A2PyLfgpsyy7XLsj6sx7zHv3/AOO+h2IiiqxVCaQuEj5MpDct3ZtOF7d5WOtpGTRujlaHseLOB5+vXndRmLz7ygL/AHmMPrmbf5rvwj+bxfu2fwhcsurW7fw0YZY9XTJ21tT6nsypybtnkYOjgx1vI6KX2e2MpqV4laXSyD2XSEHL1ytAtfx1X72hbvaiCn5El7/L/wCA/FfrZU5DNAf6uS48jp9Pmuludw3a5TLH6nT0/wA/lPoiLO1iIiAiIgIiICIiAiIgIi/E0eZpbctuLXabEeR6oPovFk+0OG1tFVOkp3VEkY77ZCXSaWu4SctDfiOC0rA8SFTTxzt0ztuR0dwcPQghdMuPUll3FMc93Wncsx7VsMaySOoaLGS7ZPEtAs7ztp6Bacsc2+x/7VUZWG8UN2sPvO+87y0sPAeKv6eXr7Kc9nT3SnZPSRummkcAZI2t3d/uh2bM4eOgF/HxWnrKuznZwzPNRIZI2MNozG4sL3X17w1yjnbmfArVVHP95wfaIiLi7CIiAiIgIiIC5sUaTBIACSY3AAaknKeAXSimXVRlNzSsz0z/APRrWZHZ7ju5Tm9sn2eKYzQSkRvhaSXQ7qQcwLDjf1+CsyLpOWyuF9PLNb+JP6V+ronNnpAxri2MWcQCQOGpPJfiuwzfVx3jXbvdjvC4FxyzKxoo+rU30+N/uVESYbHTwyOgjJeWEC13ON9NP10UdQYFNuA3fmMPF3RlnC/I6q0Ik5cpC+nwt/H47KtTxSHD5InRvDmus0FpuRmB0Ftea68PxR7WRxmmm0a1pOQ24AX8lPIl5N+YjHguNlmXxpWXUM01XLI1zoA2zWOLD3hw0vbTQm/iv1Q0UsNaC4umEjCHSBpAB5XtoPZHxVkRT9W61/BPT473vvvYiIuTQIiICIiAiIgIiICIiAiIgEX0Oo53Ve2RpDTuqab7kc2eH93I24HoQ4eisK/IjGYutqQAT1AJIHzPxUy9tIs77Qe3OIGChlc02c4CNpHIuNiR42uViS1vtTafsIPSZl/g4fqskcdFt9NPbtk9Rfc27YaPLh1OOrC78zi76qdXHgtPu6aGP3ImNPmGgFdixZXdrXjNSCIihIiIgIiICIiAiIgIiICIiAiIgIiICIiAiIgIiICIiAiIgIiICIiAiIgL5VFUyPLvHtZndlZmIGZ1iQ0X56FfVceL4XFUxGKduZpII1sQRwII4FTPyi7+ET2gxh2HTZiBbK5tza5DwbDxOoWS4DRb+qhi455Gg/hvd390FSu280rZ/sr6h08cNt3mtcXaD37cXgG1z9VL9lWGZ531BGkbcjPF7uPwb/EtmH+PjtZMvfySNRXiIsTYIiICIiAiIgIiICIiAiIgIiICIiAiIgIiICIiAiIgIiICIiAiIgIiICIiAvjWUkcrCyVjZGnk4XHn5r7IgzXFtgnS1hFMwU8ADbueSbu4uyNJLjy42HFX3BsLjpYWwxDut4k8XE8XHxK7UV8uTLKaqmPHjjdwREVFxERSCIiIEREBERAREQERFCRERAREQEREBERAREQEREBERB//2Q==;imageBorder=#FFFFFF;" parent="1" vertex="1">
          <mxGeometry x="1212" y="296.37" width="129.76" height="64.27" as="geometry" />
        </mxCell>
        <mxCell id="3EpMYGW9OJJ_J2EonweR-74" value="" style="verticalLabelPosition=bottom;html=1;verticalAlign=top;align=center;strokeColor=#9673a6;fillColor=#e1d5e7;shape=mxgraph.azure.user;" parent="1" vertex="1">
          <mxGeometry x="137.5" y="52" width="53" height="48" as="geometry" />
        </mxCell>
        <mxCell id="3EpMYGW9OJJ_J2EonweR-32" value="&lt;h2&gt;&lt;font color=&quot;#cce5ff&quot; style=&quot;font-size: 18px;&quot;&gt;On-Premise &lt;br&gt;DQ Rules Metadata&lt;/font&gt;&lt;/h2&gt;" style="text;html=1;strokeColor=none;fillColor=none;align=center;verticalAlign=middle;whiteSpace=wrap;rounded=0;" parent="1" vertex="1">
          <mxGeometry x="323" y="10" width="182" height="30" as="geometry" />
        </mxCell>
      </root>
    </mxGraphModel>
  </diagram>
  <diagram name="cloud" id="bAVDo5k6a0eE6e6qa7PD">
    <mxGraphModel dx="1494" dy="766" grid="0" gridSize="10" guides="1" tooltips="1" connect="1" arrows="1" fold="1" page="1" pageScale="1" pageWidth="3300" pageHeight="2339" background="#000000" math="0" shadow="0">
      <root>
        <mxCell id="0" />
        <mxCell id="1" parent="0" />
        <mxCell id="uhF2R85Lf4M7UMCj0L2H-18" value="" style="rounded=1;whiteSpace=wrap;html=1;fillColor=#0043C9;strokeColor=#001DBC;opacity=50;fontColor=#ffffff;" parent="1" vertex="1">
          <mxGeometry x="1247" y="370" width="386" height="351" as="geometry" />
        </mxCell>
        <mxCell id="UlPxzu9UgxSTdZvAL-5m-1" value="" style="rounded=1;whiteSpace=wrap;html=1;fillColor=#cce5ff;strokeColor=#36393d;opacity=60;" parent="1" vertex="1">
          <mxGeometry x="249" y="266" width="961" height="454" as="geometry" />
        </mxCell>
        <mxCell id="UlPxzu9UgxSTdZvAL-5m-2" value="&lt;font size=&quot;1&quot; style=&quot;&quot; color=&quot;#11171f&quot;&gt;&lt;b style=&quot;font-size: 18px;&quot;&gt;AWS Cloud&lt;/b&gt;&lt;/font&gt;" style="sketch=0;outlineConnect=0;fontColor=#232F3E;gradientColor=none;strokeColor=#232F3E;fillColor=#ffffff;dashed=0;verticalLabelPosition=bottom;verticalAlign=top;align=center;html=1;fontSize=12;fontStyle=0;aspect=fixed;shape=mxgraph.aws4.resourceIcon;resIcon=mxgraph.aws4.aws_cloud;" parent="1" vertex="1">
          <mxGeometry x="694" y="186" width="78" height="78" as="geometry" />
        </mxCell>
        <mxCell id="UlPxzu9UgxSTdZvAL-5m-3" value="Amazon S3" style="sketch=0;outlineConnect=0;fontColor=#232F3E;gradientColor=none;strokeColor=#ffffff;fillColor=#232F3E;dashed=0;verticalLabelPosition=middle;verticalAlign=bottom;align=center;html=1;whiteSpace=wrap;fontSize=10;fontStyle=1;spacing=3;shape=mxgraph.aws4.productIcon;prIcon=mxgraph.aws4.s3;" parent="1" vertex="1">
          <mxGeometry x="297" y="593" width="80" height="100" as="geometry" />
        </mxCell>
        <mxCell id="fo0mxUvrjj163uHLsn2a-1" value="&lt;h2&gt;&lt;font color=&quot;#cce5ff&quot; style=&quot;font-size: 18px;&quot;&gt;On-Premise &lt;br&gt;FinCrime Database&lt;/font&gt;&lt;/h2&gt;" style="text;html=1;strokeColor=none;fillColor=none;align=center;verticalAlign=middle;whiteSpace=wrap;rounded=0;" parent="1" vertex="1">
          <mxGeometry x="251" y="889" width="182" height="30" as="geometry" />
        </mxCell>
        <mxCell id="fo0mxUvrjj163uHLsn2a-2" value="" style="shape=image;verticalLabelPosition=bottom;labelBackgroundColor=default;verticalAlign=top;aspect=fixed;imageAspect=0;image=data:image/jpeg,/9j/4AAQSkZJRgABAQAAAQABAAD/2wCEAAkGBw8NEBUQDw8VEBUVFhUVFQ8PEBUPDxUVGBUWFxUVFhUYHSggHR0lHRcXIjEiJSkrLi4uFx8zODMsNygtLisBCgoKDg0OGxAQGCslICUtLS0tLS0rLSstLS0tLSsrLSstLS0uLS0tLS0tLS0tLS0tLS0tLS0tLS0tLS0tLS0tLf/AABEIAOoA1wMBIgACEQEDEQH/xAAcAAACAgMBAQAAAAAAAAAAAAAAAgYHAQQFAwj/xABTEAABAwIBBQoGDggEBQUAAAABAAIDBBEFBgcSITETIjJBUWFxgZGhM2Jyc7GyFBYXIzVCQ1JTkpOiwcIVVFVjgtHS4TSks9NEdIOUoySElcPw/8QAGgEAAwEBAQEAAAAAAAAAAAAAAAECAwQFBv/EADgRAAIBAgIGBwgBAwUAAAAAAAABAgMRITEEEkFRcZETMmGhsdHwBRQiQlKBweEzI1OSFSSy0vH/2gAMAwEAAhEDEQA/ALxQhauIVbYIpJX7I2OeehoJ/BDwBK7samMY7S0QG7yhpOxgBdIecNGu3PsXG90PD/3v2f8AdR/JDBf0s+SurbyAvIbHchriLE349FtwAOYqae1bD/1OL6i51KrPGNkj0Z09FoPo6mtKSzs0knux8Tle6Jh/737MfzXrT5e4fIQ0yOjv8aSMhvWRcDrXQ9quH/qcX1Fp4lkVQTsLWwNhdbeyRDRc08RtsPQVVq29Ea2hPDVmu268iRMkDhpAggi4INwRtBBUT90bDuWX7P8AuuXm5xCWGSfDpzcwlzmEm4Gi7ReB4ty1w8orkZrsNgq3VAnhZKGiMt3Rula5kvbpsOxS6knq6u25rHRaVPpXVu1HVtbC6l6/BK/dGw/ll+z/ALpoM4WHPIaXvZf4z47NHSRey6ftTw79Sh+zC5GVWS+HR0czxBHCWRuc2Rg0CHAb0attzYW47qn0qV7ozT0KTS1Z49q8iXRyB4DmkEEAgjWCDsIK9FDM1k75MPGnchkj2MJ17yzTboBLh1KR43icdFA+ok4LBe2wuOxrRzk2HWtIyvHWOWrScKrprFp24mpiOU9JS1DKaWTRkfo2AaS1ukbN03bBcrtqlKPJ6pxeGpxF5JeXExsA1SFvDaOYNAa3nFuJTvN1lF7PptCR15obNfc63i28k6wLHnaeVZwqNuz25HTpGixpwvB3ccJdjf42cSYKL4ll3h1M8xumMjhqIhaZADyaQ1X61zs62NupaVsUTi185LS5vCEYF325yS1vQ4psm8gaSCBvsqFs8zmgv3TfMaT8RrdlhsvtPcqlKTlqxIp0qUafSVW8XZJZu2bxPT3S8O5Zfsv7rBzmYaOOX7L+67HtQw39Sh+zCG5JYaCCKKG4IIO5jaNYStV3oeton0y5ryMYtlLT0UEdTOJGskIDW7neQFzS8Bzb6tQK69PMJGNe3Y5ocL6jYi4UEz0G1FD/AMw3/SlUzwb/AA0Pmo/UCcZPWaMp04qjGazbfdY3l41E7Iml8jgxrRdz3kNaAOMk7F7Krc41VNX18GEwu0WnRc8jYSbuu4cYYxpdbjJ5gqnKyJo0ukna9li29yR3585WGMcWh8klvjMhdo9RNrpPdPw3lm+y/ut+gyEwyFgb7FZKRtkmG6PceMknZ0CwWz7TsM/UIPsgp/qb0ba2ibIy5ryOXR5xcPnkbFEJnPe4Na0RbST09/EpkuRRZN0NPIJYaSKN4vZ7Iw1wuLGx6F11UVLaY1XTb/ppriCEIVGQLj5VxOfQ1LWi5MMlgNpOiTZdhCTV1YcXqtPcQvNVVMfQaAO+jkeHDj32/aex3cpoqsxLJzEcIqH1GFjTifthA0y0azoFl7uaDsLdYvblJPbtj37M/wAnVf1LKM9VarR31qHTVHUpyVpY4uzV800/TLTQqs9u2Pfsz/J1X9S8anHsoq9pgjozBpajKyCSA2O33yV1m9I18ifSrczJaHPbKP8AkjbyYlFRjlZNHrY1kgLhsJDmMHaQ49S8cypu+r6IfTMpVkRksMLp3NcQ+Z+uR4G91Desb4ouekknVsEazPYdUQPqjPBJDpCHR3WJ8d7GW9tIC9rjtUKNpRv2nTUrQlTqqLwSgl22eZqZwsBqqImppppjA43ewTSExE9fAPds2WWnk5krJi8QkOJFzARpxEuklY7ks82B5Hawrhlja8FrgHAggtcLgg6iCDtCqvF8nqzA6wVeGxvlhebPp2NdKQNpY4NuSz5rtrePnJUoxd7YBQ0uUoaiklJZPDHsbeT3P07MwrD4qSFkELdFjBYDaeUknjJJJJ5SqpzqZQOqp/YUF3MhN36ALi6W1nahxMBt0k8inWL5RTDDzUU1LOZnjQZA6nkMsch2l7LX0W6zfYbDXrXKzV5NvpYXVVQxzZ576pARIyO99F19ek4749DeRVL4rRiYaPJUr1p4tYJb3tf7OHhOXlXEyKmgwogDRjY27xyAXJbtJ2k8t1546yXJ/Eo61rfeZ77oyO+gCbGeMde/b0W2Aq3lxcq8DZiVLJTusCReN5+JIOA78DygkJum7Z8AjpMFPqWTupYt3vx3EEzuzAihq2HdIt+QW6w6+5vbbpaD2K0IZmyNa9hDmuAc1w2EEXBHUqpyVwuoraKbCa+nmhMZL6ed8L9BjgSC0PIs4Ak2sdbXuA2LUoqvKLBG+xm0vsmJpswiF9TGB4joyHAcztnMlGVnrbyqlNSgqakrxvtzTd7rt7C5kKo/b9lB+yv8jV/1JoMuMoZHtY3CwC5waC+jqmMBJtdzi+wHKTsVdIjH3We+P+SOrnvNqGH/AJgf6Mym+Cf4aHzUfqBQnO7Q1NRh8LGRumkEzS8U8T3/ACMoc4NFyG3PHfaFHqbLbKGJjY24VqY1rRehqybNAAvv9upK9pO5Sg6lGKTWDebSzsXKqQy6woz49uL5twE4i0Ji3SAvFoN1XG17S3bxroNy7yjcQ0YULkgC9FVNFzsuTJYdJUky5yNlxWmik0mNrImjfM0mQvJsXMFySBpC7Tc26yiXxLAqhfR6l5NYpq6adu3mcD3IJ/2l/wCB3+6se4/N+0v/AAO/3VrRZV5T0YEMuHmct1bo+llmcbcr4n6LulN7f8o/2SP/AI+r/rU2p7jZ1dK/uR5x8iZZDZFjCd0e+b2RI+wEmgWBrBr0QC47TrJvxDkUwVZ5LZU4/W1TIZqCOni4Uk0lJUxAMG0NL5LaR2DbtvawVmLWFrYHFX13O83d+t2AIQhUYghCEACEIQAIQhAAhCEACFp1OIQQ+Fnjj85I1npK5lRllhse2rYfNh0vqAqXOKzZcKc59WLfBX8DvoUPlzi4c3YZX+RH/UQtSTOfRDgwznpEbR66l1obzZaFpD+R8reJO0KvHZ0oOKlkPS9g/ml91SL9Uf8Aat/kl00N5fuGk/R3rzLFQq6GdWHjpH9UjT+C9mZ1KT41NOPJ0HelwT6aG8T0HSF8j7ifoUJizm4c7hNmZ5UbT6rit6ny+wt//FBvlskZ3ltk1Ui9pnLRK8c6b5MlCFzaXHaObwVXC/mbMwu7L3XSVJ3yMWmnZoEIQmIEIQgAQhCABCEIAEIQgAQvOR4YC5xAAFySbAAbSSq+ylzitYTHQgPOwzvG8HkN4+k6uYqZzjHM2oaPUrStBX8F9ye1dXFA0vlkbG0bXPcGN7SolimcWihuIg+oPK0bnH9Z2vsBVWYhiM1U/TmldI7leb25mjYBzCy1Fyy0iTywPZo+yaaxqO/DBeb7ia4hnJrZdUTY4RzN3R/1navuqO1mP1lR4Wqld4u6Oaz6rbDuXLulusXJvNnoQ0elT6sEvt53HueVF0l1glJI2cmxrrF0pKUlOxI5KW6UlLdMVx7rF0l0XTFczdYJSkpSUCuO4341tUeK1FP4Gokj5o5XMHYDZaJKLp2Jk7qzJfh+cjEoOFJHOOSZgJt5TNE9t1K8KzrwOsKqnfF48RbKzpI1OHUCqkulJWinJbTkqaHQn8tuGH67j6TwnHKStbemnZLytabPHlMO+HWF018tRzOY4PY4scNYewlrweUOGsKdZM5z6mnIZWD2THs3QWE7Ry32P67HnWsau88+t7NlHGm79m31yLrQtDCMUgrYhLTyCRh4xtB42uB1gjkK31sea007MEIQgQIQhAFS5yspXTSuo4nWjjNpLHhyDhA+K3ZblB5AoLdbmPRujqp2v4Qmkvfyyb9e3rWgSvNbcndn12j0406UYx9dvrhsM3RdKSlulY1uOXJbpbpSVQrjkrBckuglMTZklBKQlLdArj3WCUhKLp2JuZJWCVi6W6dhXHusXXmSi6YhtJLdKSlJQK56XS3SkpbpiuMSi6S6wSgVzvZJZTTYXUCVhLmGwkivqkZ0fOHEfwJX0XSVLJo2SxnSY9rXtcNha4Ag9hXyqXL6QyBiezDKVsgIO4sNjtAIu0dhC2p7jyvaMFhPblxJChCFseWCEIQBV2VWAfpSL2dRjSlaSyaFvCc6M6JLR86wGrjFuPbWx1auTUQdRBG0EKWYflDLh1XK9m+aZHh0bjZrhpu7COI+lS+pwnDMoGGSJ24z23xbZswP7xmx48YdRXDH48s/HgfRa89FVppuGxrHV7H+Hu35KobrF1JcdyEr6O53Pd2D5SAF5t4zOEOwjnUXPJyaiOMFKzWDOuFWNRXg0+HrAclKSkJRdFh3Mkoulul0k7CuPdYukJWLpiuNdLdLdKSgVz0ulJSErF0xXGJRdJdYuglsa6xdLdKSqsFz0JSkpCUpchIm45KCV2MCyUrsQI9j0zi0/KvG5w9Om7b/AA3KsjB83FBhjPZOKzsl0dei7eUrTyWOuQ8gO35qpJswq6TCng3d7liyKZAZEvrnCqq27nSR78ufvd10deiL/E1a3bLahxkXZgWINq6dkzBZr9Is1W3mm4M1cWoBVDlzl6a5vsalBipxqNxovlA2Aj4rPF2njtsVm5vPgum83+Zyqm1rWRw6ZCbgp1MHfBbljn2v8fZSNCELY84EIQgD54xQ+/y+ck9crXimdG4PY4tcNYewlrgeYheuKn3+XzknrlaZK8s+zj1VwJzg2cmphs2paKhvzhvJh1jU7sHSpE7F8Cxb/ENjY48dQ0QSjmEwNuxyqQlKStlUksHjxOKr7PozetG8X2Yd3lYtCvzV0cw0qSpfHfZpaM8fUdTvvFRuvzWYjH4J0Mw5nljz/C4W+8o1RYjNTm8E0kR2+9yOjv02OvrUhos4mJQ6nStmHJLG097NE96rXg81yMXQ0qHUqKS7Vjzx/wCRwavJHE4PCUUvTEzdR2s0lxqiGSI2kY5h5HtMZ7HK06XOw8eGpGu54pDH91zT6V1YM6NC8Wlhmb/CyRvc6/cn8D+buJdXSo9alfg/3IpIOvs19CCVd5yoyen8IyI+eotLv0CEE5MSfFox/wBMRfgE9VbJIT0ua61KS9cEUcSsXV4forJd+w0nVU6HoeEe1/Jjlpf+9P8AuJ6naiffo/TLkUddYurxOC5Lt2+xP+7LvzrIjyWj4qM9kv8ANPVtm0L31bISKLJttKGXcbNGkTsa3fE9ACvP2wZNQa2MpweWKiJPaI1l+c7C4RaKOV/NHE1g+8WotH6h+8VXlRl3+RT9Jk1iM3gqKd3OYHsb9ZwA7136DNbi03CjjgHLNMCeyPSUsq874+Roi7nllDe5oPpXBrs6eJS3Ee4wji0Iy9463kjuReK29wr6XLKKXF/t+B2MMzNNGuqrHP8AEp4w3777+gLsNoMnMGN37i57dfvjjVzg8oZvtHqAVVYllHXVeqerkkB2sMhbGf4G2b3LlXA2auhLXWxcx+6VJ/yVHwWHrkWpjmdrUWUUFuISVFu5jT6T1KusXxiprn7pUTOkdxaR3reZrRqb1BaF0l1Lk5ZnRSoU6XUX328/KyHJX0Rm6+C6Xzf5nL5zuvovNz8F0vm/zOWlLM5PaX8a4/gkqEIW544IQhAHzzlJSugq543ixEjz0tc4uaetpBXMurXxzBY8cp92hc1lTCXRu4g7QJGg/kvtafG7KrraSWnkMU0bmObtY8WcP5jnGorz3G3A+p0auqkdV9ZYNfngeV0XSXQSg6GxrpbpSUt0CuPdKSsXWLppE3MlBKW6UlOwrjErBKQlF0wuxrrBKQlKSmTc9CUixdKSgVxiUEpLrF0CbGJS3WLpSVVhXGui6S6x/wDrDahIVxibL6XyLoX02H00Mgs9sTdJp2hxGkWnoJt1KuMgMgdxtiGJgRsjG6Mgk1EaOvdJQdgG0N28vIrQyexEVlOyoAsJNJzQdujpuDb89rLWmsTydNrKfwxyTxfadNCELU84EIQgCjaTHJ8PrJJYj8o8PY7gObpnUfwPF2g2BBVYZj8ehIwboB4N50KhhtrMbhrI6NXKOJVVih9/l85J65Wq15BBBII1gg2IPKCvOp1HFWzW4+pr6JGslJPVkrWa/O/s27L2wJnj2a2eO7qOUTN+ilIjlHMHcF33VBcRw6ekdo1EL4j+8YWg9B2HqUywbOFWU9mykVLR9IbSgc0g/EFTOhy9w2rboT3ivtZUMDoz/ELtt02Wq6OWTtxOVz0uj14663rP1xRR91i6vKoyIwevG6RRsF/lKOUNbr8VpLO5R6uzRNOunrHDxZow77zC30KnSlsxFH2jReErrivK5Vl0pKm1XmuxOPgbjMOLc5S13Y9oHeuLVZGYrFw6GT/pATf6ZKnVaOiOkUpZTXNHDusXWzPhVVH4SlnZ5cL2elq0XuDTYix5DqKRopJ5Yj3WLrz3QcvesboObtTCz3DkrF0hkHN2pd0HN2pis9x6krBK9YaGeTwcEknkRvf6AujT5JYnLwKGfpfC6MdrrBNGTqRWbXM4xKxdTKjzX4vLwoWRc8szPRHpFd/D8zMpsaitYzlbDE6Q9T3FvqqtVsxlpVFfMvHwKtJTwRPlcGRsdI47GRtL3noaNavXD81mF040pRJPbWTPLos+qzRFum6258qMEwppZC6EW+SomB5J5CWb0HyiFWrbN2MPfVJ2pwcvX3KywDNfiNXZ0zRSM+dNvpbc0TTf6xarFw3JvCcn493lcC8bKios+W9tkTQNR8kX5SVF8czszyXbRQiEfSy2ll6mjetPTpKv8QxGaqeZZ5XSOPx5HaR6ByDmGpTrRWWJSoV638r1VuWfrjyJTlvl3LiRMMQMUAPAPhHkbHPtxcjR0m+q1rZvPgum83+Zy+dbr6JzdfBdL5v8zk6bbldkafTjToxjFWV/wSRCELc8kEIQgD51xU+/y+ck9crTuullRRPpqyeN42SOcDysJLmHsI71ySV5lj7GEk4prcvA9CUt0hKLqh3PWGofG7Sje5jvnRuLHdo1ru0OXOJQbKlzx82ZrZfvEaXeo3dYJTWGRnOEJ9dJ8VcsGlzq1Q8LTwv52acR79JdemzsQHwlJK3zb2SenRVTEpSVaqTW05ZaBo8vltwbLriznYa7buzPKiB9UlbTM4GEybai3M+GUeliolYV9NIxfsyh2815F8nKjBH7Z4D5Uf8ANqX9P4F9LS/UZ/JUPdYJT6V7kR/plP6n3F8+2TA2bJqYeTGD6GoOXWDR7Klv8EUh9DFQhKLo6V9gv9MpbW+7yLylzn4W3gySP8mFw9ay59Rnbox4OmnfzuEcY9YnuVN3Sko6SRa9nUVv5/pFm1ed6Y+Bo42chkkdJ3Na30rhV2crFJtTZmwjkhjaO92ke9Q4lBKlyb2msdFoxygvHxubmIYpUVRvUTyS80sjnjqBNh1LSulusXSN07KyHulului6aQrmbr6Lzc/BdL5v8zl85A8mvmGsnmC+mMkMPdSUNPDJqeyJoeORxF3DqJIWtNYnne0X8EV2/g7SEIWx5AIQhAEAxTCocepy5hDKmFzoi7l0XGzX2+K61weIk84NWYph89JIYaiN0bhxO2EfOadjhzhdyLF56KsklhdY7pIC062ObpneuHGFYdBjeHY3GIahjRJ9DKbO0uWJ+o36LHmXDFqa3PuZ9A+l0TFLWp59sb48rvbh2p3KVukurLx3NW7W6imBH0NRqPQ14GvrHWoHi2BVdEf/AFFPJGPnll2fXbdveiUHHNHRS0qlV6svtt5eWHac8lYJWFi6LG1zJKLpLpSUJCuPdKSsXS3TFcclYuvMlBKZNzJKwSlusXQFx7pSUt1i6aRNzN1glKSsXTsK490pKUle9BQzVTtCnhfK75sTHSEdNtnWmS3tPK6GNc9wa0FznEBrWgucSdgAGsnmU/wDNLW1FnVb20rPmappiOhp0R1k9CntNhuD5NR7o6zZCLCSQ7rVv5QwcQ8kAcqrVe05Z6ZBPVh8T3IjWQuQjaFv6RxS0e5jdGQOIIjtrEknjDibxG3HqFj5N4iaymjqLaO6aTg07Q0vdog84FlSuWmW0+KO0ADDA03bFe7nEbHPI2nm2Dn2q283fwXTeb/M5VCSvZHJpVKagqlTrN5bEscCSIQhannghCEAfPGKH3+XzknrlamkvbFT7/L5yT1ytW68tH2cX8KJPguXNbSWbp7uwfJzXcQOZ/CHXccym2G5yaGYaNQx9OTtuN2j7Wi/a0KoSVi61jUlHJnJW0GhVxcbPesP13F2S4BgmJguZHBITtfTOEcl/G3Mg36Vw6/NJTOuYKmWLkEjWytHZonvVXBxBBBsRsI1EdBXXo8rMQg8HVyW5JHbq3skutOki848jl9yrw/jq/Z5fldx2qvNLXM8FPDIPGL4ndlnDvXGqs3mLR/8LpjljlicOwuB7l26XOhXs4bYZR40TmO7Wut3Lq02dr6Wj645vwLfxTTpveT/AL2Pyxly80V1PkxiMXDoageTBI8drQQtKXDqhnCp5W+VE9vpCuSHOrRHhwTs6GxuHrrbjzm4YdrpW9MRPqkp2j9Qun0lZ0uV/wBlCvBG0W6dSTdByhfQjc42FHbUEdMMv9Kb2/YP+st+xl/oT1Y/Ug95rf2Jd/8A1PnkOvs19C9Y6SV/Aikd5DHO9AV/nOJhDdlT2QTf0LxfnNwobJZHdELx6QEWj9SE9Jr7KMu/yKShydr5OBQ1Luimlt26K6FPkDjEvBoXjy3xx+s4K0ps6+Ht4MdQ/ojY0feeFzanO/E3wVE9/lzNZ6A5Hwb+4npdKeVPn/6iL0uaTE5OG6CEcelM57h1NaR3qQUGZlm2orXO8WCIM+88u9C59ZnarXeCghj53acp9LR3LhV+XuKT7at0Y+bE1sP3mjS70a0FvDo9Lnm1Hl+Lln0mb7BaFunLE19tslZLpN62khncsVuX2EUDdzgcJLbIqOMbn1O1M7CqPqaqSZ2lK90jvnSPc93a4krxujpLZKxS0DWxqzb9dtywcczqVk920rG0zfnn3ybtI0R2HpUFqal8zzJK9z3O2vkcXvPSTrWuSsXUNt5nXTpQpq0Fb1vz7x7r6Izc/BdL5v8AM5fOd19F5ufgul83+Zy0pZnF7S/jXH8ElQhC3PHBCEIA+fcrcPfS1s0bx8Zz2nla4lzSO23SCuPdXtlfkvFicVjvJGX3Oa17eK4cbT3bemlcaweooJNyqIy13EdsbxytdsI7xxgLiqU3Fn0uh6XGtBL5ksVw2r1h46RKCV53QSoOy5m6xdKSsXQTce6W6S6LpoTY11i6UlKSnYVx7rF0pKW6YhiVi6S6wSmIclKSlulugVxyVi6S6xdAmxrrF1i6UlVYkclYukJTU8L5ntjiY6R7jZsbGlz3HkACYrg25IABcSbBrRdxJ1AAcZK+mclMPdR0NPA/hRxND7axp2u4DrJUNzdZuvYbm1daAZhrjhBDmxH5zjsL+jUOc6xZa1hG2LPH03SI1GoxyW0EIQtDhBCEIAFp4hQQ1MZinjbKw7WPaHDp5jzrcQgCtMczWRvu6im3M/RT3czoDxvh1hygWLZK4hR33Wmfoj5Rg3SPp0m3sOmy+iELJ0YvLA76XtGtDCWPHPn53Plu4OxYJX0biWTVDV65qWJ5+foBsn122d3qMV2anD5NcT5oeYOEjPvgnvWbpSO2HtOk+smu/wBcilyUEqyKzNBOL7jWRv5BLG6LtLS70LjVWbHFY+BHHL5uZv8A9mip1JbjdaXRllNeHjYh5KQld+bInFo+FQyfw6MnqOK0ZMna9nCoakf+1lt26KVrGnSweUlzRzSUXWy/C6kbaaYdMLx+VeZoJ/oJfsnfyQPXjvPAlLdbQw2oOynmPRC8/gvVmA1zuDRVLvJpZT+VMl1I7zn3RddqHI7FZODh838ce5+vZdGmzaYvJtpQwcss0QHY1xPcmkQ61NZyXNESJQSrFpMzta7w1TDEP3enK7sIaO9d+gzOUjbGeqll5RG1kLD6x71ai9xhLTaK234erd5TBct/CsGq602paaSXxmMOgOl53o6yvoHDMhMLpbFlGx7h8ea87r8o3Qm3UpGxgaLAAAbABYBUqb2nNP2gvkjz/XmUzgOaCoks6umbC36KK0s3QXHet6tJWdk/kvR4a3RpYQ0kWdK7fzO8p5125tnMu2hWopHFV0ipU6zw3bAQhCoxBCEIAEIQgAQhCABCEIAEIQgAQhCABCEIAEIQgAQhCABCEIAEIQgAQhCABCEIAEIQgAQhCAP/2Q==;" parent="1" vertex="1">
          <mxGeometry x="292.68" y="771" width="94.63" height="103" as="geometry" />
        </mxCell>
        <mxCell id="fo0mxUvrjj163uHLsn2a-4" value="&lt;b&gt;&lt;font style=&quot;font-size: 17px;&quot;&gt;Cloud Data Lake&lt;/font&gt;&lt;/b&gt;" style="text;html=1;strokeColor=none;fillColor=none;align=center;verticalAlign=middle;whiteSpace=wrap;rounded=0;" parent="1" vertex="1">
          <mxGeometry x="283" y="554" width="112" height="30" as="geometry" />
        </mxCell>
        <mxCell id="fo0mxUvrjj163uHLsn2a-5" value="Amazon Athena" style="sketch=0;outlineConnect=0;fontColor=#232F3E;gradientColor=none;strokeColor=#ffffff;fillColor=#232F3E;dashed=0;verticalLabelPosition=middle;verticalAlign=bottom;align=center;html=1;whiteSpace=wrap;fontSize=10;fontStyle=1;spacing=3;shape=mxgraph.aws4.productIcon;prIcon=mxgraph.aws4.athena;" parent="1" vertex="1">
          <mxGeometry x="297.68" y="333" width="76.32" height="108" as="geometry" />
        </mxCell>
        <mxCell id="fo0mxUvrjj163uHLsn2a-11" value="" style="endArrow=classic;html=1;strokeWidth=4;strokeColor=#FF99FF;" parent="1" edge="1">
          <mxGeometry width="50" height="50" relative="1" as="geometry">
            <mxPoint x="338" y="231" as="sourcePoint" />
            <mxPoint x="338" y="289" as="targetPoint" />
          </mxGeometry>
        </mxCell>
        <mxCell id="fo0mxUvrjj163uHLsn2a-12" value="" style="endArrow=classic;html=1;exitX=0.519;exitY=1.117;exitDx=0;exitDy=0;exitPerimeter=0;strokeWidth=4;strokeColor=#FF99FF;" parent="1" edge="1">
          <mxGeometry width="50" height="50" relative="1" as="geometry">
            <mxPoint x="338" y="450" as="sourcePoint" />
            <mxPoint x="338" y="538" as="targetPoint" />
          </mxGeometry>
        </mxCell>
        <mxCell id="fo0mxUvrjj163uHLsn2a-14" value="" style="rounded=1;whiteSpace=wrap;html=1;fillColor=#e6d0de;gradientColor=#d5739d;strokeColor=#996185;opacity=70;" parent="1" vertex="1">
          <mxGeometry x="660" y="316" width="311" height="602" as="geometry" />
        </mxCell>
        <mxCell id="fo0mxUvrjj163uHLsn2a-13" value="Amazon EMR" style="sketch=0;outlineConnect=0;fontColor=#232F3E;gradientColor=none;strokeColor=#ffffff;fillColor=#232F3E;dashed=0;verticalLabelPosition=middle;verticalAlign=bottom;align=center;html=1;whiteSpace=wrap;fontSize=10;fontStyle=1;spacing=3;shape=mxgraph.aws4.productIcon;prIcon=mxgraph.aws4.emr;" parent="1" vertex="1">
          <mxGeometry x="767" y="364" width="93" height="112" as="geometry" />
        </mxCell>
        <mxCell id="VXXChiNUsVQDZWi2cnkA-1" value="" style="shape=image;verticalLabelPosition=bottom;labelBackgroundColor=default;verticalAlign=top;aspect=fixed;imageAspect=0;image=data:image/png,iVBORw0KGgoAAAANSUhEUgAAAT4AAACfCAMAAABX0UX9AAAAulBMVEX///8rsuAkPo8hsN8Zr98AK4gdOY0gO44ArN695PSo3PEAKYcZN4yZ1u7X7/lcweb3/P4PM4xXaKVzyOlPvuagqMk8UppCuuTq+Pzz+/3N6/cALYgAJ4f4+fzf8vrP1ORwfrDH6Paa1u6Ezuvq7PSy4PKnr82xuNO+xNp9zOpnxOfi5e+WoMRpd62FkLs6UJnGy99GWp1cbKcvSJWNl799ibcAIYVldKsAHIVEWZ1QYqLY3OkAD4Dv8fYgAFwFAAATG0lEQVR4nO1d6WKqsBIWEwQVUaoVFXerVuy+nN7W2/d/rZtJCCQhWHvqrR7x+3NO2QpfJ7NlMikUzjjjjDPOOOOMM84440AYbJYv47e327vFaHDod/nX8Ll88qqe55RKjkP+M3449Av9SxiNg8ApCnCq99eHfql/BaOPP17JKsqw+k9Xh36xfwHri//cXzx9PAemI1PoeGcB/BKLu8hQfD68lgJLFsCbA7/c0WMjGtnB8jmQBLD6crAX+zdxWS2J/DH56zUO/Vr/DK7ePZG/P1T/+eVDv9ZxojN0O6povZoifybY3449O8TbHTW687phE2B/Ve6KJy6rov29gEMTu36YlzxaTDFGBgVCGDV7wqmlyF+VDt+Z3TrQex4lhj42RCC7NUnOLvuC+9Kmhwx8lr8YEy55IoH1YXxeHL/VERzp2Xh1sNc9MvTS7FECEwNxl9gP544eCZE9P9T7Hhc6WvYIsBGrwHHsQFv37CYb4c7BXvmY4GewJwngOJY/j0UmK4TO6q8ANjeLPRDAFndi7rj9CFjqpWMb9tl9JkN3C3tEAOMBvIgCuEj6iPZD/sHe+miw2k6fgTA3EZu2aRH2bqMfy/gsfoWuvZ09gkQBLtvV/v0nvxMZZ/GrfSF8VAEmLt7VOrm1jgzbPcArHxMManZJoEaAskwwDnW3zrCBmr/9vseFHoxdZBuryrxSCw07wwXUhmgVIrgo37k/IkHEOYm9Y7dm6AnEfjd17xzunaQO5wnEZban0pFyy9aGcEYqxgD6UK4zf8TpS4euE19nThBSzQRIbr5t7wTjqeZwRWdEEgcwAg32ch34TrE+7dlt6kawLeWoelRGifJzc8tgM9NxK+sEEPtJDjDKNOAKeUrtV172+NBKHLrOpFKrTcuxJHXrGg2I8Ix7KiE7jUAifT+fAsjzAZ2ajxnseuyK1HQDGKMaUOVy84LgD9BF+XRgmN0chqK7bMeRRM/QuTDYNlp+zCyiynNi25UDfcIhAUqru1KkLDEn2gEMPkxyQ+S51JGdQwU4BBuRoggnkax2AEtUMvpcW3W/84GZ1kNJpnkn2gEs0BdFwxC+5G7uqJExOoVESsYAji+NbDckvuye/recKrra8AwCXPGqrQMYR0HvBCI4lM4rnDAamXNstsSD3gJH9EUj1oU/RK7m3rLZM+yhfGWYmdLnV7IQLk+TH1uUWiqWq2TkUeOMS5k+TB71J40ZHW4s1lC5SRsBtYiIj13urczYI3BevOcyjEfsT91OB3LMX9GX4eJgriQj9ZgX8YPZcZTIykzmT5uI6akkE/Z4qDHnp+x8BL8hIpIiGIi6JFqK6YjQSAkg13yN2DajXNStkaGLpNkfV7KtdkYCqidpQIT4Zc34cD5Gr0+iftnHlXw7O9P/neKYKRxLb03gPg/Ze6Kq1PEpjV6cPX3bnSGMCLC94hdNRcnNQ+GBn64NXUlqbdvNjXnT9+uVWMpm0rjHpx/49myUKruYCfR9Z/pRTSnkgL6VprBWpM/YPXYtq/Gw3mifEhqGZna3KUrfrpU/nTDlS59+1UvP1ui2ujgAdyu9aNQ0CxpOP+ky5fM6V8tFXK8npl92ilwb03QUkiSwThghYv++mEHwZ8T+3xCpwF/nnbo1pEvCIOPkx27BYJrvA9ZqlN7ZsaHku31lPd0m1me78pBxYWmSD7ZSt8pqlcsiHVkxW4S5n5W+px7PeuvN/zy61Od7jdYJVTf0oFTjvCXoKHSyKiiBPeoPnXjTly7klB74KheTKT/R8G4J+2HUZk98sEF/k4OuQ/e8S0aVjTVJiLIW6871laex7LFc39Pp07eMl6iZVPdJlkPvNXen2aOW3oWYwRkEp09fmwufZdGf55Lq03jNw5XWURFu4kVqy/4vfsdhMIrXN5docwI535L2Ptx0cKYgqRB6LP7ihxwGd3F7EY+1BpKmfNVivV79C/KQ3YoTBdf99q9+yiEQG47I8HYlJ1hOmvRaXyx7Q9hIopSB5Tz98sf8Oq6StfUePTCR6MNCqt79UvKwIYa5T060Wv+E8RDT57DlpRVpBihx+1Klk5phK8XHxBn3lr/7Mb+Py1j1BayrnJjsE3LNmtJJRfBm8swGtDwwN7/7Mb+PxHJEPlpLoo8n8rV1BQl3KCzLwd3Vowee0Mm7fa+8tWbpjR2QiYncvlmmyUDYNlZlNTC+9JxEHZwyxpw+b0F/lvsZRJn8chZ7yDZm6YwWb/Znnn6TyVj6onSLK9PHLKm++o+MWQ1365ti1GoyB2O38MJ1X9QVQ/FbqC0d6oRPNbSAwejmve9xR9LLQYfOZUSf9ch+nsv0TdLHIvLqSgnB1fL1Pah6Qo9T71P9ZacHHvI6Y/ZzRaaPDs50dxzsy8Hc5qZdDZT+usHit7/lABhEus+LAoTpLvRhOY11/SFJXWTJH3/9Ww6BW0dSVDr61MErZ7HWH3JT2EgZBPnojX3Nojbvkv041eg+ueBPKXsZBRryisX+6Pc/5SB4tkTpq+gcF7l4RZr+HjipYQuyVz3xSaIELFnPkyMKfSxbqoikmMS6NjXsOdbJB7sJ3mH08ZhNmuTlQVtDEj8suiyjfoo8q397+v5ygjUwYD2zHxQ9F020SVGbXLvyJndjL5aq7dwMXIYF+H7VqJWhYmWjZIDYm06pp3xN4gzLCYK3nJFXYGUGUcpAMRNxebJYOIrlssf1S9szAd79eJmDSCONNy+O2pqylY1nzcKEv3TB7udmNBqtc0kdxW3APTXZRxay9ULGFNdPv/bse7jrR1FWVynvTuzEJKmBREY+FlztjmW1zwIPefRKRY61uJQP2f48V+vFv8T6/b90+CrZPSk9IBSSImz7s0rZHXaGw165MqvP8k7nZZ8GC0oDXTlB0CjX49ac0KfTjtA8+UUIX+PzFWYnGsr6DBzKFabd8sxHNm1wyhqdGs3UXFFOsYbxO1QKqBCauYyfhjtn/+m65els1WyuZpXJWe4UuGrLOSJhrTCs+zj3Cm4ndDS1o9hGsxysMN0P5oadiCCsOcVhjjqL7AG9mY9t2scPG/Xa6S+O3D8aw95k0hue9d0ZZ5xxxhlnnHHGGWecccYZv4DG0HXdYWrb6+PF4GpDcHUMRS/uzEcwuYAx8pvzfyDJu775cEyzWoUChNvLw1ZduS1hMwOYZPCnx50KWT8l1S9Fy/GqzzeHqzjlfQWTPQrQcffHW/ZZ2a9FEFH452BLBOmyKAS9K3zfYP2BhVKTSfPoJgov/9CiVdN7vn8m/9C6e2dHFXgzHu/3Zea0N7AxZSR13XnTwMK2DiE+NkkcAXuO87KhjA02y3HRDF53vNnxzP2+DYxY3BQNbmNSjyduGlgu+TwCvIOwfUg1V6PbHcvFR2a0NHtfgJLZLf3cJkdH36ZPVN3fdjJ48fZMH3S3wNnabYaOjb4bL15f/X20rT3T52/fP9g4Ovpgnav3l77y2iz+H+jLHrswtLNl0y2XJ64UpnR65XIv6/qu29s6uaa5eTghh+QZ9LdSXGy+DeuH6+uR6gzCIk8dfevRNbn6b5qyAX1Z3aTKPvVp/Ai0bntOvBs6M9tZ0blawUgPVwabvTVWKYHtzEPDptfbvlRRMCEPhoLIRsVn51F8s7tC7A5DvOPWKVpf9cAZjb2+GQRmv3iXcDK4LMIaT+u9TXEfLXYqLC8CuJhcHTy+fHfFUj2zl9mEd5NCESjLFYzodiPTqNYi7gEJO04mbrdkyguTup3sCk2iQ6EwrWwjqHKeJK2rEDvdSHawROIfCVZZb1+QenXR5yuxLe8P71hywxcXWgwBW+x0XRKWfllev/i91ZrQCliv3aYxHYw9HNFHFwStqFwSyeXdbIZGvDMHZVXcabdCiYj21oazdrIAgagHFNIrktOwzXbHwMLjhJ3fF1+ZjlFAux14gUf58t6ZorzwHLbKy2EwX+DoS9+iYV8QeA6lsfo9q0SXpWiVXzlsNkP4HPIvxYzTV4NIBWHUgsoopsuGQDXC4XQ+n9Zp4CJ0q+9iIMJvkpOVJm07kmz3B/T5PXhcfVap1EJKoD2nNguFNXKozg7xWg5YamM9Z9uOERDiebeXy+XNhwk+Iuv8+TIejz+AqzHDLYR5C3iY2X5dLJeLuwvHdL7UCyoMlFpFm2CYMh2EPjQjn4sNVo8XkeTTp0QSN2wpzmTT9qf8KQ0oMU30RbR/Tnxvp073M24S9mrRs4e04UGsoB9L4DZn8fcJImfeRaN7cw9DPQ5JForpgFWH1nO82mYwugsuC98DC9p8vXcC7RvkoQ301X0iZ5Jyo7uPCxsgQmt/YUcmVyqhApGONyxh9In3QrsXIstCizBalBr3vGJBWzFjkD0RvswkfzCAJnjxEtZLhT5YdRhIBnfwbZeIrkpBdqirdNLSB1pMXj3VsZV2hg057yBjKHJN6ZMWY7GOG1LLcbq/e7yO4c6kC1MfdQTCOkLvRTgArl6J9wtT6SMueOnHvcTqNjN4fiXlk+npSzFDhU9yz+h+fln+NjhLnDBKn9xNzUCqN9CQ93d/pWstS6Ymy/dUUt0acLPN6DqVvjsn7rTwA0Q79BH/QC1UzKBPbblMvlbZ/wbWIOCs7Uybgq9ZTm/dDss/lN6SLSRJ6IIaV/AzPpbSaIOubZ6svh4CMkCj0ayRvm/bCg2GvAEcsg2pqWPG4FX87J6d3gLCyDLoBSasIn0KVyC5SnNEUJfiL70aV5lrVwocsYfuknDVl6OHzyrRlJHxUOmDJm/ePlrZuWHkc0ltBjPoU/tm0mPKwAd5yWotnKJPlvlaShVI8sqwfvWYv2t5XuLpvmpCEsJz6YP9V6VvQK4uBm/7SPR3KlHRNrEisVXNoE9Rak1N2iE0shtbz5BCnyy5QJ+yo0SaPiJWyw+TBRLmIyfg0UrbgmfinNyz/6r0Fa5BizrB617mmkiQyayez18+g760pBmGL4M+R7yuU57OwnqLnZHpUzYvob3F5d+go68A630tSqBTjPiD5hPPbRnCgvYUfYXLPr2/qujQv0SXbY6BudbK0H2KVPlIiIwjyPS5MyNaK8TPSfTJI3V3+iAPUAIlWGLiNfCEoJZjK32Fh2faVqwUeON9NDihXn/s8u5GX8bWsIjvJNap04lQFO1VaaP90UcoG4MbyBIAn9D9wCql4GTTR8z4s0mVqFN93Mdq/1BwJXanz6+n0WL0lSl32Pabtcq8POkNQ7RH+kg0G/DG2p/QWPL+6SKFSB9q6SMa8IJNG5f6F3uwIjREYl+08+BNb4oVo8eiQmGR7mq/9BUgE1CFoQeDd1tP3Qz6iCMUtQZ0zJ+P4Gnid+1OX3bC30h5wfum7zruN0E03ba+nJn0wUPaQKBV/bH89ZIIczf6aFor62lzNR5mYcU+6VtXeauntrV1Fm4bfcTnpvPtb9m37wboV/Mt+mrbZkSaKMVPfc/0gcVgeQIa4Ga7INvpK1yB32P+tGsHjcGY6d2NPmirqdmUjcFPhx97dFworqo80l0EW1PRX9BH4+Mfa79Kki1xU4kTHX1b01PpuSiakdonfRC6MtIgZRBtz6AD0Bdkni3QAO+v55A5wAuOdgkbpqJ3HX1srj1j+6q0XQn36vcVWJ/FPlP5FzB6M903yDZXtw1O6+f0geHl6aeOnGgrZNDXob6JPr0Hik6K3ljTrz3Sd11NGnJCutQqZVlPMNHBFt94HcRtknfDPDUlS6v94iiUpi7Fj9fSR3MoSEkydZj1qSkZKZgb+gF9m1QjsCWE/X1+9BY856JMwZon78FE8+wLvVXRc5BstdRv24a5bRurucsJ6lToxtbJtCokR1BL4E9PH8sa2CH/WzTcSt1m30ubt8SZ087KJhH1Dyzv5o/p3S42fAReLR9pzDbmVw6KJfDe4hwKNHz+E7uCsIVIMnNUuPlP+zLJDm4uPB797Yo5ZuvhjRYEWQYr0rWTzPGQzefOKvPpiuZhMuhr+GzGxKivZqsQFosjni2lW4pjgzyiMmuRw/asg39AnwlzuGZQfLx4evooVmmwEAhJqjWdr3Wqz2+vr+On+8D0rCQhvwCuveeX5eJm/ATZZsurFt9eFsvl5WsbMrDO/XfYY/Ns0Yx3FPkjyQdhlbss2N9CX6HBNhpCRpxT4coqYpbPgsOE90+kL+opaUFmgNXmlvpSnHb1Tim16GQ4656aBCJ010LLA3ywai2iKumP9FLv/nten+sL5RPsI0PZAY7bmyFGn42QPg0qt3jASdq/EQrlFgg0YgvjmD5yU4o+8gdQ6MMI+xE5fU/sCVvy+heqp3ZZCkqWcEE7MaaDi35Uk+EQY/NQNIVnOV7wUvguhpXQR1G/I2yElVRHELfJThs08ipDKiUji1yGul4K1KqJJqkXskfgFivZr9TrXD9MiNZoyb+zAr9CfnKNHOGB33oxbnuwJAEWJjgXN5rCqMHyzaJX0AtkO3L9EdB7n6mSe7h79/iVT4u/DDganaHb62UWjzWGvZ67W6OVLn2O5toOOTHc25qbwdV6RLDZEt9fbbIuGJAzm4SpQfaVZ+wL/wMQeE4aslCLPgAAAABJRU5ErkJggg==;" parent="1" vertex="1">
          <mxGeometry x="705.6800000000001" y="769" width="229.64" height="114.82" as="geometry" />
        </mxCell>
        <mxCell id="VXXChiNUsVQDZWi2cnkA-2" value="&lt;font color=&quot;#cce5ff&quot; style=&quot;font-size: 20px;&quot;&gt;Orchestration &amp;amp; Schedule&lt;/font&gt;" style="text;html=1;strokeColor=none;fillColor=none;align=center;verticalAlign=middle;whiteSpace=wrap;rounded=0;" parent="1" vertex="1">
          <mxGeometry x="702.5" y="737" width="239.5" height="30" as="geometry" />
        </mxCell>
        <mxCell id="VXXChiNUsVQDZWi2cnkA-3" value="&lt;font color=&quot;#33ffff&quot; style=&quot;font-size: 20px;&quot;&gt;configs &amp;amp; secrets&lt;/font&gt;" style="text;html=1;strokeColor=none;fillColor=none;align=center;verticalAlign=middle;whiteSpace=wrap;rounded=0;" parent="1" vertex="1">
          <mxGeometry x="706.5" y="886" width="231.5" height="30" as="geometry" />
        </mxCell>
        <mxCell id="fdVWaI6c64YxZMzXzx8u-1" value="" style="rounded=1;whiteSpace=wrap;html=1;fillColor=#6d8764;fontColor=#ffffff;strokeColor=#3A5431;" parent="1" vertex="1">
          <mxGeometry x="692" y="522" width="244" height="162" as="geometry" />
        </mxCell>
        <mxCell id="fdVWaI6c64YxZMzXzx8u-2" value="" style="shape=image;verticalLabelPosition=bottom;labelBackgroundColor=default;verticalAlign=top;aspect=fixed;imageAspect=0;image=data:image/png,iVBORw0KGgoAAAANSUhEUgAAATgAAACiCAMAAADiKyHJAAAAxlBMVEX///88Oj7iWhw5Nzs1MzcuKzAlIijhTwDm5uYzMTUoJSsrKC0wLTLgTADiWBg1Mjf39/dAPkIgHSP5+fmDgoThVQ6JiIp8e33s7OzV1dViYGNMSk6Qj5G0s7RGREi9vL1vbnCbmpze3t5ZWFvJycryu6jGxcb20cT99PCjoqRUU1a3treYl5ntoYbwsp11dHb42s/0xrbkaTX65d7rlHX87+nqi2kTDhfnek7og17mdknvqI/mcUP2zsHsmHvjYCYAAArzwbAHQYfrAAAXFUlEQVR4nO1dZ2OrOhI1EWCaDe7gEuOSglOcfvvN5v//qRV9RhLFuclz2vmy9ymApWE0c6aIbTQ+IXpPDzff/57sexrvDk+PzUG7PWjdfIluJ1y02gcR2q3Lfc/lPeGydZChdbTv2bwfXAG5Ucl97da6uGlDwbXbp/ue0DvBZfMAYfCw7xm9EwzaWHBfm7UerhmFo5v1Zt9zehf4MWAFd9D8te9JvQP0OIULJXe/72m9fWAukvqHH/ue1tsH61MT//Bn3/N683jgTVzoHx73Pa83jxuWjCRW7mLfE3vjOD0QC+6gdbvvqb1t3ApNXOgfvu97am8bf4DgcAjRvN733N40fuWCGzwge9ce7HtubxrAqTb/nCBOV8M/nF5dfr95vPnx6/MZxMdcyag7+I64SbNcHLdHD81WmHFvD5qtu/9ovm8FpzD322jcN+FmHfwsvO/++m7QbAKj2PxkiQEQcEU5kV/IybaE/uH0z9/fSGix5D5XYuAJ+Ia/4cAj8g+PPeb606tfv1uc0OJr9zD9/eEv8A1RfavMP1BPcNBqFhDmT5ZR+Ql8Q5z3xbFrFj9QTzAQq9qnFNwp2JnJwhn/EMYPp9d3j7xRY7fqwWeq8dznJi6zUTjP1Ly7KDBqDD5XiAYCrnzhOF8yqCG0EGIP/FEBtGuQ+QFhTrgK7YN9ruM/Bwy4co25E+Y2KxTuc6WMQTKudZWNnu6ucs1PFnLBgAtwXXEdAqDN2L3B7/2tYR+4ZQKuDL/LHEK72Tpg2k0+FRVpoCI+bhgp9A9hIuTm4gpGHKEkP1tW6QL4BhyjC/0DFdrjw1PIky9xY9jncgwN1P3QxIu/Z9lbe9Bqfb+8jQ3hH5xD+XxNnDDgYnbbUQsKrdn8eZF73dsWlOqnKySeXgOFa7fZPyf+IRTa499raPzvD7ho9vPg9ugHjUCBUnF8gvqH0BM83j2xlv8G2r/BDZuy+8C4vQwzuNju/+Wuums9/jgSuEvUFtYefJpk0tWvG0EysinoNRdzjL/QMbRBvPGR0Tv5e9AUpnBrC4AhIk+vOt83gpO7x1ZRjqhVk/r/2bXy+t5x+uehLB1Zt+v3Cqlr86O3p1Pi0W6WpopqdmBiWlxSdv0IuI+IR2kWl0YFtYqiPURE2gcfmYicfB+U61pI1g7u6gWbDBH5wJH9yU2hN0hWTxnuRV2H+hdHqB/3FMnpj1aF1Jq/f9XnYQwR+biHDG8fS/ZolFe73GWzMSV+PtL4KLgv7FUIE2vNH0e7xUq3mIh84HMQvwv0LUx3/HjaNdV9ippxBh+4p+uPMPlNiQd1oc+gEQwR+cCRveDcRzvMrF09i3w94Mj+AxMRwbmP9s0OLhTjoka74QdBjxfc4NkE4gk71P+qxOA4DjfgOPyO4a4Lx5ZLV3wNeoSrJcivFFRGm+2/z9tjP5GB+68cw6Jrdqdo5FA1TdOQp1h2Y9X8NkcjvdmhQS/srLOR9TfDiiXn2Ma3fJzQ68JnfstvFtX3wg+y7OxPG0xhn69OvA5cmUj2GI3YRKIgygZKzutKkrWA13kTM7rQPMuGAoskj9IMycr0y9GlCPIqv/tEXFJuN9t3u1s6zOH+m5hhaFEZdeCIZ0hEVQ0imQEYXVEh2VswMOsSSTcsw1S9bKwv2/34X8dUqNnw0pSILdu2CTW74FRgpHZHO6rdE1I5rqP6NaDRNUlAOShmCpk4jicRAhRxTqUpkcN8gGogUYZLxzk+zK3ciiiz+F9U93L1mitkwxnOq+LGmXZzsKPaobfwn3iHkU0mE8lcg6GpLvvR/5BJPnhIxUikbu4eJoQQr4HRsyQjGdvaeq5e5zrS1QSXJc1aodpd7sBir+Gz2s3XV7mlKhlrn1h4U0b/OSbA9M1MSdFysUQD5rHgaWoyZynTPQpfxtYxwUVpmxulww/1M0PISf/DWRBtPZ8Fi2B2rJVf58t0+/VluQ/GqFmfuVpAJZMtvdcher+xAcLYoI2cYG5K9mgbYmQDIYfquhmPx6s5c/1leVrpgKpd3dNrJ1jlnhVyLWdjnfp+xbIsxTTJkN1QAGsj1JuZRTb5mKZKEr3foi4j0/hAkbou3daZgB2qgWcNFgvqPW05hE2dbbatHfpEurGJys3k9qYkRRKi9bMus0PH4wTl60rMVoZCpBxENzbsm86wivRmbUpqPkb/K7yNWOYyHXJkIg+p+PTM4FM/iexiDF+WbCUCdSS5gQzddEjj/scT6MaRuIyaalz9sijumNtV5XoBlloiO3Us3rGhq1yNtj6B+yqguibbZDPNlzmlQ/52OyakkwxqimTyr+OQ2MNZiLMxkXN3ELppb00hnPLlY8GGbbceIlbi+IUvHgIVHHb8btW6o3BSi5mnxe+rRugZqVTtkO8q+dxGtt3voejKNaT0OjN5A44i6UP2ca4sGcnffVk/z8aHOrKhHK5/i+o1g3Ycq8+l7rLs7hT48P5OCZKhymtbCnXKX089I0k2FuAO1KnO8HUjXZKT6zI129B/x1qar8qjpDfmdL1DAnwu/0QWVw9s0abduovUzfVVYrvldydAiaodPoXjrgrULYbBS84mZHUWbiwfuEiHEBMbcWrP9FF03SHRU1pxRne5FWja3B9lF9ItmdhAqqO5hQxd8nQ+n59x9AXg/mIAjV3zMWYigW5T2l2Plt3jo0p1GbTbkcvkRiV3ztwRuspYRJTmZ5OjXMzCb5hSFjveudRy+enomIZqlqqaRk4BKXNOpEgdjJkNU/4n6VRf1VzEIpxeHrQGqbrFXnE5jozEqvS+HKhhum4/oSYVb9N0t+L9QmN53Y//OTeJkroP+m+CrvO6REn0bGoROx12VnGID546lpVEioECnOqxQSIokGULcf0zEl3zJtaWhRrpgiyIOoQ4fUZd1TmslBv1AMjIntsdO9mTS6tjpS5vYUs+evRY6qS+9MzuGLnXCCTVMKDDlrKn9AnJ3UEgdyJYQq+KQY1dM2l3WG7MeNo6u1UKgRLBfA+nCCu7Wm5UJwVE6l/gaBWByTNwHzdZ9qbdVBWUWmwkxCk6UFMngz4t9QsZ9HIr84awPrSyWQuYNlVj4W04o1l9CP9YrSU3SfompHNvDyNIrFSBWo/CGPH2O1fqH+yW0SSMgSO6QkNVzuoRY/g+Gp/WXThtlb9gapJeeIgwrCf+gUnPo50ymoHCyGcynR/Pz1ddTFBkq7ax2DNmcEEwe5ogUGM1PGhHPSY/L04y4T3ukNF0scLJk5Roar4JxpVNPQL+BjDV4Xp89s9n1DJFgUkSK4RNE+muZTKapSl4rHD6CujneWb8SFcQc71VjOBW4WLidciKo1wrPHjebN3chedrdshodlAWCdPswEheGymLd94aVnBFFuNAvchxRKwYn3WLO8Mu8GerStJLngEVzmCShaPIrZvjd7NNG1FwC1bEpK+02DBFkcktl3tne7DLMpqBBX6Ft6R0EkQVZfzfLlzErkwU77ipUIlT8v1MoIXFVm4LDQJfCFirulSSPEfohdhtkfBubT0/m83O5t4/Bih4D+mQxvU26Wqj+PFnleDKvgeJDAKs6CUY+TXW4a4X201HNlQanfvT4503tjbrb0zVNMOsnWl0D/tn/2Ab5pAMgMoHxTjzt9EOFn8juOZenSAywtPsahVaBivLtOSE1RBZN63xbAet0YKJosjo/cmKsq0R09Nw1zsLzocJ+vEt2PiAOlJjm/8lCv0rvwZRkl3q4bwIz3qqZh6sDEGQYcrDmjqz9k3+/nAm6rjKRNDfVgzF0lN0Yz/QhxkLuKAhUMXIrZ5UCq64d4kRnGTuxNfcqSpcdfhKu4sa9m59aBQmZuTuqExvnfMu89tG7AfGiI3kSaUFtH2RG7yv/HJLu/hY0opZuLpDYBXIllQMZVKlMsuxUZoHtDrFT5h3uN9OigtIFfIa+Az5DCXK9JQVF+OtWvyFmxGbMjfrOtH1oaCWCEG65UnboFuRrqdPKCrT5Pm2/OJJpOIO+kOWVMIpIMuPBu9/fa/42l6xVw3YF1e3KjQtKYpl0y5JW7tjs/J+Qakjhi/IICZcaokWlHo7D/2YldOu+6fw6GFRz1jJN7w8bvrypA4B2dRKfirjIkPnSVXqlkhOxL59kYlISj2Yxpm9RJrwLes4sDw9uXgUfxuztBWAzcbR5/L9MNyySb1lFz5rXkNfY6j8fp8KdTWpPeKkUkxMcQZIXvFvU/ABhKqDSSgJE8OqypGvzbrLLnhWYFTfmcJgGd1anLFOigvniMZF783ZwNdsFxRa74+wwWtXfG5aE+w5s7TnoHHc5W8pXrfAQwR1k/XR4hVsdJ2CUmYi4D4UUtw8sYGUxy6xRKfXD4/xV7rDMzpV1Zo+r3LldG4t3ClR8VP0B5OLRuYifSOybeu26Am2j+6eFnCgxA9gGhduX2QRCSn3fadXlz8eBwc/L6pPNjmiZajF1cilgAnopjFZjTeSKmAoNmvmPP4HbXr/dtQfjla6oXOPMCC3dIqsa1Jc4JJKI2T05BcsSZ6JJGcWcTC3wy5MNyc0sA9fUE+bjRVOgVWcBXXYBxDL2s6zkyHekKPVoAOdMf5S1AcVQY973x2cVPIaCxTzK3VZai30RdSiiHuyxWtZHaKU17LPaiQKtNPkaA6LBIwRW7ABBcxG+kjjiDEZ9WPETnWJtMByZyq6+kXlRoUhUn9VKLkFNnDEGHG6700YpUM1YcbAEaXPG+vlIZ4QzBMisdsbVhLHaH4dlGMSF6f/BeLeEVHYusRy0yVRMcJhCKoOnLSDI3NZFuqAOxHG7424xzgXKJ8/ZHYyegHdl6+caEKHqPI/tEHXWX6B6xljnVPyvwyRTK1VATdw8frzkgty6YK4eijgCOnVr9GI4ImYFW9KseYrhaFoD2tMblqwxpbEKDN0YW4mzxTRaA6/MKQRhCAvgWMht7IYA4a2dNofJ8ISvYisE7OxRVnGTQlXwvkuM/UfMNCRBVHJpiimEQa9L4GZUOcO0VZCapCkcQowglsmM+7YQsllXJQx66nOQo3SeVlwXCeFVbtNbmcsRDono0QC2oBmaTe3hmPtRMaI9fOHkhBQZJWdJ4EaJWh90wrCCtGufjFMRZJTQPCFDHPVK0TGJsnxoTCzqscUZR/S01xIowSsTBCVJOt4zV6EkSgIBbNDHsuqiOUQL0gOMCBDKmpcg0CvKT0QgBRZ8IR5UZqwKkb9N2wFig64EjTsbE8GB0ThE+nD6ndlU7OLHFHSO4M0qsvfxCW0M3Ah84tiLPjd7BQgoixW5QuEuaeEskO2WM3ioQtPj05DPcYns2OU0DhRfuvlsOJ/OGsogW9TdPSWwYSTEkzTM139IsAEUapxCzA/Jt3E3cOi3Jv9I5wJTyDTFCw094JTkywgZYsFB9WlhuRhZTllHiM4JkgaMklO9F+C5swXhCC/mvJMqEJq9dsbc/4P7qNKG4ndano5ZCOiR6DctDXHMbjFHbx7SSy5LGySDnOhbxC0JLNAxCHyf1CUFSQuBKwepIkl6DQFj8ABi+oyDfXGq/ZHrrmKQnymBrpJlFoUowcfE3MBqLJGtcpCjUsiBwc+VPAInNWnXneLbDaRX/iMC8aMpXOxhaoKrxlA4hBTmh5U5SoW18D2LDHsiOMIIjacVLL51nB/J0nsij5DSuIGjAUYFXyKgAX0wfF8e7vQ3wbe2UmlC2qU6DzllIuQz5jNWnH09R/BpBFjKwy9ZA2NW3FmHG3eGklsOAs9HprBlyc4T4mSLzGF2eJU/6tyEib/nHAB6KGqWRhKvMVSQhpXfTatB/x7+qKgXxYRGkHDuYu3z6tG+6zKxTNAPqNbZWVRtdaKhnpwCdVpHk2QeYNUUvAEXAJI3g1TxFNe6MSGK4zVcV9EZOOYZu6KgAldncZLkKAIygUMoM6myRGoUQIOjrUr9bpMUvhFKjbOoisMAbB3irgATtjY5U0S2LKkWUi0kZQq7wDtRdIfiJJKAgGwtcF4FL/yl+AkvcCyxHv+DAkuSqDjhE3FqV+UP8p+YsSb7hJAt5wIya3wy3N8/C2dIsOv9LqHzYswOwx/R8imcctPlIVYMIWrspDJRdFHll7BOR++pwQDmotESEjrBcELbjjPve4Ye9Z/4yTHnbhXS6hyyMjG23LEVPDV4rySg3xLHlvjJsYSMuqGexvRn1h5EAcXhOzDgnODLpMXrkEii+CtsjYDgcrhbRlnR9iEjVzIgV3UVgXKmT0se6Wo7uRKoVkH8Xxas4AaRXz+RjRHmDxhNmvtT2qw8HzQ38FUshrsTosPpzCV0nDdBf7Bs3F3B5jkFvu3guZqz46+IioQEkoqCWwkiq8UuCGZzfo8TqKNTPQYizGWLmpgTPiSoLtKLLlzplsThuJs8dYULL5HHxB+nsQFvDH9uFJVUqmYMWlM/M21edYBlx/HEvA6+O3ExkwTlF0truWlsWa/NGSi/ciqrbVhFzCnHitSUugIUiGh4qKgNojeC04ZBsxmfc63QI65Ypa1yqylO2I0Jsn+CdswiTFCs1tzJz4YS8g2t9EnjIHolsFh+OuRN4IF6URIDuob4YNO7Hy6zIeI8ZZ5Difp8UleW+mvXcfRjkcWU3RIy+3ckhPBqKvAC69wl/Mpf76IsDUdvrnHNib9s7XnrYP+JDngFCkYdARJRgDFvzrvGRH7ZMNpjTETz+Ekoi5a2TQoTM6Spc9fFNXdiGUaqqoahsL3oPI5EFGLCpGV8IuEVnaCMAoyYRO0KkgqdfhYUdBwDsBsVqm7Oydx63eNZy0Q3NGlOhB02G2L63cZInFDapEUUFFtUBDrIqrJf62P6cd5DifZ1pVCXv8u7AIqgain0xG3piNEId4EEqb4XtSp5PPP5hvOEZaMtXkGJ2EfUbz0bKs9Q+HEFWCv8rejT2m6YCAVEnzfgtogPkIq+uwr89P8d14rMSzsFMBLz1TGqSvqfPlqQel1XmUooiAQEq9USCipxGsznqMoxcywoexjp/XBnu8VA6jMUsRGymDbha9TeD4EIFIw6AgSGoe+i1FZG2R7IqMrmNefcRJtEVA01mH/ey8oK7YLW1cx0HFT8WmaYpirkt6SihNwkYJBR5AICR1hEFTEET8Va9M5IzkjkZEbnNuzWWP6jS7Z+1ZaiRKeCoGQCST1iMYVffY2g10Yv8fQDstMRbQLIbUwBEklg5fLDLERcYaZDV2y3JYWOqDplN61nZaX8Gb8ySL0RKwyuDgcFJ+kl6JooKqU5AxLfj1K10D6k7j2eUVt8BwyHVFHToNvPMzo1jIS3Mz3nMm6ovZ5bBeunlg64xGhQ6MvW9uqRW5WVjd1Gg3Wq4L9Sozoa8AoqRTfElQUdlFtoSjBzG7WlJMkgluPZoFXVTR2ffG3BIhin7MWagVZVfiyPd8URAo0jPDr5h3WY0VhpS+b1nge6VLXyNBNtGJoyhlMQcM52oaFH11mN2vCSWLBBY1Jx6nSOIrjlcqunljqhv/cCqpxJs/1pkS17JTPEiJbJg1cd4lj3MA3aaQmhwc2ZZveLo/m6RvzAJKNv+jnGAk8X1cF+F+R2nvoMlXtxmZuGaay+kHj3G8c1ym9etOJYlrR3GXdUgyyWojsEywU2fnL9oLtpKObYZzamfjnu38bqNHzZkN/vNqM/VFQ9f8eUQUNobBF2dUYRLPuhT/uOo2e03BqLkM7Dqbb8WrsDxdny4J7UHIMF4IdTVsuNe1V24DeL2ARokYz5hdSoBrnC5/5/NCAybHKEvwXcsCETdXJkC8AgJxAjS7WL6SAh1xqNGN+IQVMx1Q2y3whx1pQ4/xCDaDk2Hv55PlbAEwq1Tig8IUU6MTBe/oK9b4Bk0q7Fzg+MSAbeW5r2WcEPEH1yod6Pha8b1YK3fiicfWhBdH/CeUsrD0K85yfA/8HyvayNS4AWw4AAAAASUVORK5CYII=;" parent="1" vertex="1">
          <mxGeometry x="708.5" y="587" width="127.11" height="66" as="geometry" />
        </mxCell>
        <mxCell id="fdVWaI6c64YxZMzXzx8u-3" value="" style="shape=image;verticalLabelPosition=bottom;labelBackgroundColor=default;verticalAlign=top;aspect=fixed;imageAspect=0;image=data:image/png,iVBORw0KGgoAAAANSUhEUgAAAOEAAADhCAMAAAAJbSJIAAAAllBMVEX///80bJn/zTr/zDQuaZf/1mtmiq3/yiMaYJL/9eDg5uz/1F1Xgqhqjq/S2+X/8dQjZJT/9Nr/yy3/2XJdhqr/yh///fn/2nevwNKKpb8bYZJni63/78f/8c75+vz/341zlbTCz9yAnbqPqcLk6vD/01j/6LGgtcr/5aPN1+L/+ev/7L7/0Ej/6rX/24H/4JNCdJ5LeqL2FztaAAAFx0lEQVR4nO2c/Vu6PBSHEaZgmiGKr6Vo+VKW1f//zz2yafEUjEPKxvx+7t/qCq7d19kL2znLsgAAAAAAAAAAAAAAAAAAAAAAAAAAAAAAAAAAAAAkuRmNo347jX40Ht3obt65dJbM81k2vseWHd2NPINO22O1PJjXNtVxFhH8hGM0093Yv9BhPskvxmcGhnExoQXwGMbJQneDi7LwCvjFeIYp3hQVPCgatXDMakz0Pc87LBY0Q1YzabqJ+CTj958PsotP4ozjR7qbTafD++hkc/xxSVT0zJlQ23HHZMuvn/vEdbGtsc2FECH0vofVzeTKgjjmIewnfvNBM2RjbW0uxu/WErtpraatzYUQa2FiGFrWJ9HQkDVx5P+Mx4waQn+kr9kFeBSGk+ev34yo3+D+o8Z204lOETtNpk/kTQaLdDaczPRoyD7E5P/MyLsMNtXcdhqNkxCbNDajTZu4GPInGrobT6LxHTLm+9QPb0MNiwLDigBDGFaftidBvnQYYvh0I+MaDOVcv6F0M1xNw9lis7ydNmhMp8bFcNT2J7L02S/yDeetI/X99n6gV2+2IZ/30uCGvcA5Ebjhaq1RclEgu1TE0LETOEHwrstxXDw38QfDA4Fzr0WwfekAZhradri/EsFMQztoKReMyhDMNlSvuClwNHERQzvoKRV8uvwkIwxvDy+vpxra7lalIfmUvqhhdHh5K93QDpvqBJ9LCqE4EX7NMHQUDsVpSSHkp/qDDMFDP31QJVjWKBSZmaabZejUVRmS0xDFObx9F2QZ2uGLIsPbsjopzzkOM3upHawVGZazFtZEJ80ehuq66aysYcgT47vMYRjPNWoM/1DvRINngFeSGKoaiJ2SDP04L34XSgRtV82iX5KhqPqShtB270w25H10LRuFhht6cdr/JXstNN2QibqGrE9S8w39Gi+k6eWE0FhD5i152cY+T9BQQ3/SEJVQ9VzB6hpmXyjxvY9H4feyyhespCHzPa/WbtymES0fF0/Hl66DnEmmmobMZxHpZtPDq3wdrKgh89oLSnH6YLdyKQGsnOHk8zn/XVbzredQ/aplyL4KKZu7932vnsrKDl3S+Kugof8pppDm+2sYfGfLflJArmKGvqgx7NaLhcgcQ77Tswb78KJ6FTL047N5q2kTlnAzDdlH/FcP9BnSOEM/nmTupacRZhtO4mWiWYpgNQzZZ/w3dgldVJ2h/DSR313K3+lV2lB6Iszvn3XL6aPKThOlp/r8xnJWjvNsVKVmZJkZ3yoxhKpO9WXZNZ6mnpc0CtUlECUZUr6jKMlPYXZNkuX2nmRJ3HNRliGVVCqww6b+zfhOamVXm/BP0veyDNVVKmSPRJ7jlKSpz0JltUlm1ZespulsVFYMHbhNXTHKNFRb9WVlVF+WaKi4ci+mn6JYnqGGAlPLWv6ebkoz1CKYVslelmE41yIY30b4cQm2HENdlezCcdT2EjdK/MsbOoG71X2tJL4V1D8yzjfMPABPIXCD1ptevTRyDNNTGGn09N8KSifHUHfzLsA/b9iUorvxJHIMXQmhnoW9KGesFir3uGcAQxhWHxj+3ykIEqn+KzR0W9u3bf0rXXx1ho4jzge7p8pZQwzpp4nB6RNmcMyoOkOtLadCPhFOpCEeRCYgeNfYbjrkU30nsTU6OldwM5gCNTPjrBIP7Xk3VZXjPRdqCJOf2XMxELW1uRhz4lTzmniGJ8YdXUdqRaFmud3u1yMD/kjYlby1UhArFRLdlA9Dtcmls5BfQPsmOP27iy2fnEI11TIXYUhcMILV/cAaPIibFoEZy71gQBOMP7zDMDx9llby5DCLP5TUmDPNCHZFFcOd7iYX5b5YBa2rMfnyV7oOvSYjcAzrooLBkFjJ7oRDoyaZBHctQld13JZB6+Av7vaOK7lREgSuszfZj9Ndz4etdIbztZHjDwAAAAAAAAAAAAAAAAAAAAAAAAAAAAAAAAAAAErkPw5afT+R8NfPAAAAAElFTkSuQmCC;clipPath=inset(20.67% 20.22% 21.56% 20.22%);" parent="1" vertex="1">
          <mxGeometry x="856" y="600" width="39.68" height="38.5" as="geometry" />
        </mxCell>
        <mxCell id="fdVWaI6c64YxZMzXzx8u-4" value="&lt;font color=&quot;#ffffff&quot;&gt;&lt;font style=&quot;font-size: 18px;&quot;&gt;Application&lt;/font&gt;&lt;br&gt;&lt;/font&gt;" style="text;html=1;strokeColor=none;fillColor=none;align=center;verticalAlign=middle;whiteSpace=wrap;rounded=0;" parent="1" vertex="1">
          <mxGeometry x="760.25" y="538" width="107.5" height="30" as="geometry" />
        </mxCell>
        <mxCell id="fdVWaI6c64YxZMzXzx8u-5" value="" style="verticalLabelPosition=bottom;html=1;verticalAlign=top;align=center;strokeColor=#ae4132;fillColor=#fad9d5;shape=mxgraph.azure.user;" parent="1" vertex="1">
          <mxGeometry x="306" y="164" width="56" height="56" as="geometry" />
        </mxCell>
        <mxCell id="fdVWaI6c64YxZMzXzx8u-6" value="&lt;b&gt;&lt;font style=&quot;font-size: 17px;&quot;&gt;Query Raw Data Lake&lt;/font&gt;&lt;/b&gt;" style="text;html=1;strokeColor=none;fillColor=none;align=center;verticalAlign=middle;whiteSpace=wrap;rounded=0;" parent="1" vertex="1">
          <mxGeometry x="283" y="297" width="112" height="30" as="geometry" />
        </mxCell>
        <mxCell id="fdVWaI6c64YxZMzXzx8u-7" value="" style="shape=link;html=1;exitX=0.5;exitY=0;exitDx=0;exitDy=0;strokeWidth=4;strokeColor=#99FFCC;" parent="1" source="fdVWaI6c64YxZMzXzx8u-1" target="fo0mxUvrjj163uHLsn2a-13" edge="1">
          <mxGeometry width="100" relative="1" as="geometry">
            <mxPoint x="747" y="531" as="sourcePoint" />
            <mxPoint x="847" y="531" as="targetPoint" />
          </mxGeometry>
        </mxCell>
        <mxCell id="fdVWaI6c64YxZMzXzx8u-8" value="" style="shape=link;html=1;exitX=0.469;exitY=0.024;exitDx=0;exitDy=0;strokeWidth=4;strokeColor=#99FFCC;exitPerimeter=0;" parent="1" source="VXXChiNUsVQDZWi2cnkA-2" edge="1">
          <mxGeometry width="100" relative="1" as="geometry">
            <mxPoint x="815" y="716" as="sourcePoint" />
            <mxPoint x="815" y="690" as="targetPoint" />
          </mxGeometry>
        </mxCell>
        <mxCell id="rdTq-aBfrkCgcmM9OfU6-1" value="Amazon RDS" style="sketch=0;outlineConnect=0;fontColor=#232F3E;gradientColor=none;strokeColor=#ffffff;fillColor=#232F3E;dashed=0;verticalLabelPosition=middle;verticalAlign=bottom;align=center;html=1;whiteSpace=wrap;fontSize=10;fontStyle=1;spacing=3;shape=mxgraph.aws4.productIcon;prIcon=mxgraph.aws4.rds;" parent="1" vertex="1">
          <mxGeometry x="482" y="418" width="86" height="105" as="geometry" />
        </mxCell>
        <mxCell id="rdTq-aBfrkCgcmM9OfU6-2" value="&lt;b&gt;&lt;font style=&quot;font-size: 17px;&quot;&gt;RDS Postgres : &lt;br&gt;DQ Rules Metadata&lt;/font&gt;&lt;/b&gt;" style="text;html=1;strokeColor=none;fillColor=none;align=center;verticalAlign=middle;whiteSpace=wrap;rounded=0;" parent="1" vertex="1">
          <mxGeometry x="427" y="378" width="200" height="30" as="geometry" />
        </mxCell>
        <mxCell id="rdTq-aBfrkCgcmM9OfU6-3" value="" style="rounded=1;whiteSpace=wrap;html=1;fillColor=#ffcccc;strokeColor=#36393d;" parent="1" vertex="1">
          <mxGeometry x="447" y="215" width="190" height="93" as="geometry" />
        </mxCell>
        <mxCell id="rdTq-aBfrkCgcmM9OfU6-4" value="" style="shape=image;verticalLabelPosition=bottom;labelBackgroundColor=default;verticalAlign=top;aspect=fixed;imageAspect=0;image=data:image/png,iVBORw0KGgoAAAANSUhEUgAAAOEAAADhCAMAAAAJbSJIAAAAllBMVEX///80bJn/zTr/zDQuaZf/1mtmiq3/yiMaYJL/9eDg5uz/1F1Xgqhqjq/S2+X/8dQjZJT/9Nr/yy3/2XJdhqr/yh///fn/2nevwNKKpb8bYZJni63/78f/8c75+vz/341zlbTCz9yAnbqPqcLk6vD/01j/6LGgtcr/5aPN1+L/+ev/7L7/0Ej/6rX/24H/4JNCdJ5LeqL2FztaAAAFx0lEQVR4nO2c/Vu6PBSHEaZgmiGKr6Vo+VKW1f//zz2yafEUjEPKxvx+7t/qCq7d19kL2znLsgAAAAAAAAAAAAAAAAAAAAAAAAAAAAAAAAAAAAAkuRmNo347jX40Ht3obt65dJbM81k2vseWHd2NPINO22O1PJjXNtVxFhH8hGM0093Yv9BhPskvxmcGhnExoQXwGMbJQneDi7LwCvjFeIYp3hQVPCgatXDMakz0Pc87LBY0Q1YzabqJ+CTj958PsotP4ozjR7qbTafD++hkc/xxSVT0zJlQ23HHZMuvn/vEdbGtsc2FECH0vofVzeTKgjjmIewnfvNBM2RjbW0uxu/WErtpraatzYUQa2FiGFrWJ9HQkDVx5P+Mx4waQn+kr9kFeBSGk+ev34yo3+D+o8Z204lOETtNpk/kTQaLdDaczPRoyD7E5P/MyLsMNtXcdhqNkxCbNDajTZu4GPInGrobT6LxHTLm+9QPb0MNiwLDigBDGFaftidBvnQYYvh0I+MaDOVcv6F0M1xNw9lis7ydNmhMp8bFcNT2J7L02S/yDeetI/X99n6gV2+2IZ/30uCGvcA5Ebjhaq1RclEgu1TE0LETOEHwrstxXDw38QfDA4Fzr0WwfekAZhradri/EsFMQztoKReMyhDMNlSvuClwNHERQzvoKRV8uvwkIwxvDy+vpxra7lalIfmUvqhhdHh5K93QDpvqBJ9LCqE4EX7NMHQUDsVpSSHkp/qDDMFDP31QJVjWKBSZmaabZejUVRmS0xDFObx9F2QZ2uGLIsPbsjopzzkOM3upHawVGZazFtZEJ80ehuq66aysYcgT47vMYRjPNWoM/1DvRINngFeSGKoaiJ2SDP04L34XSgRtV82iX5KhqPqShtB270w25H10LRuFhht6cdr/JXstNN2QibqGrE9S8w39Gi+k6eWE0FhD5i152cY+T9BQQ3/SEJVQ9VzB6hpmXyjxvY9H4feyyhespCHzPa/WbtymES0fF0/Hl66DnEmmmobMZxHpZtPDq3wdrKgh89oLSnH6YLdyKQGsnOHk8zn/XVbzredQ/aplyL4KKZu7932vnsrKDl3S+Kugof8pppDm+2sYfGfLflJArmKGvqgx7NaLhcgcQ77Tswb78KJ6FTL047N5q2kTlnAzDdlH/FcP9BnSOEM/nmTupacRZhtO4mWiWYpgNQzZZ/w3dgldVJ2h/DSR313K3+lV2lB6Iszvn3XL6aPKThOlp/r8xnJWjvNsVKVmZJkZ3yoxhKpO9WXZNZ6mnpc0CtUlECUZUr6jKMlPYXZNkuX2nmRJ3HNRliGVVCqww6b+zfhOamVXm/BP0veyDNVVKmSPRJ7jlKSpz0JltUlm1ZespulsVFYMHbhNXTHKNFRb9WVlVF+WaKi4ci+mn6JYnqGGAlPLWv6ebkoz1CKYVslelmE41yIY30b4cQm2HENdlezCcdT2EjdK/MsbOoG71X2tJL4V1D8yzjfMPABPIXCD1ptevTRyDNNTGGn09N8KSifHUHfzLsA/b9iUorvxJHIMXQmhnoW9KGesFir3uGcAQxhWHxj+3ykIEqn+KzR0W9u3bf0rXXx1ho4jzge7p8pZQwzpp4nB6RNmcMyoOkOtLadCPhFOpCEeRCYgeNfYbjrkU30nsTU6OldwM5gCNTPjrBIP7Xk3VZXjPRdqCJOf2XMxELW1uRhz4lTzmniGJ8YdXUdqRaFmud3u1yMD/kjYlby1UhArFRLdlA9Dtcmls5BfQPsmOP27iy2fnEI11TIXYUhcMILV/cAaPIibFoEZy71gQBOMP7zDMDx9llby5DCLP5TUmDPNCHZFFcOd7iYX5b5YBa2rMfnyV7oOvSYjcAzrooLBkFjJ7oRDoyaZBHctQld13JZB6+Av7vaOK7lREgSuszfZj9Ndz4etdIbztZHjDwAAAAAAAAAAAAAAAAAAAAAAAAAAAAAAAAAAAErkPw5afT+R8NfPAAAAAElFTkSuQmCC;clipPath=inset(20.67% 20.22% 21.56% 20.22%);" parent="1" vertex="1">
          <mxGeometry x="489" y="242.34999999999997" width="40.56" height="39.35" as="geometry" />
        </mxCell>
        <mxCell id="rdTq-aBfrkCgcmM9OfU6-5" value="" style="shape=image;verticalLabelPosition=bottom;labelBackgroundColor=default;verticalAlign=top;aspect=fixed;imageAspect=0;image=data:image/png,iVBORw0KGgoAAAANSUhEUgAAANEAAADyCAMAAADk3NBFAAAAwFBMVEX////zdyZOTk6enp52dndhYmI7OztERETyawDx8fHybQA/Pz9LS0tHR0fyagBBQUE4ODiurq69vb35+fnr6+vzdB7d3d3T09OWlpbzcRXzcxvFxcXybw3l5eW6urr++PT96uDOzs5qamp+fn6mpqb6yK9UVFT849b718X+8On839H5vqH96N31klr6zriHh4f2m2r3pXr4tpX0hEH1jVH0ikz4so/0gDllZWX3q4UlJSUuLi72oXSDg4T0gTn6yrMSqUiBAAAQxElEQVR4nO1deX+qOhOuGyCgqBQVpeJe97XV03u6fP9vdZOACiFA2PX8+vzz3vpCyJOZTCaTk5mnp1/84hduKA/q48K4Nyhn3ZGY0P0aDosQw+G2lXVnYkCraNAxMPx6ybpDUVG38kGcGll3KRraOCFAqZ51p6Jg7CQEKHWz7lZ4dEmEAKWHnUsymVCx+JV1z8Ki7kKoOHxUI+4momJxm3XXwqHlzmgoZ925UHBVuodVu607o2Iv686Fggeh4jjrzoXCL6P7x783j8buhIaDrDsXCgOP9egxd7Oubl02PoP+OvtZnva79Xr99va2Xu/2p+Vk9qoHaaNwJ0o3ny13R4XjeU1VOx3lgo6qajzPqcfdYdOna6nsJqQRdWfk55dICqrPDusOp6kdJecKRVE1Tn0/zSjE5diSmyJqUtLpFacQYeMti9OR41UPLjZegNb5Y+bXJtGA027LG9NpycC0+ByUjf6z46nZXKHy3Hoy92pXHhEIFej61L7wQZwCiUn/WfNaJyCbi6w07m3ioX/y1hELopSQjVCplKfUVIDFXtOCCgcjxe881K9nozQsUg52104IgJLP8syFlI6NFJ87uAqqPB4Or3yovR+cT2lK4wrOP7ho4rFArX6uXD/UqrdHxVG7R685ThFRCGn1yakx0UHocOsFdY/9sHUS8jMO/V0c6maHwr29xsSIIKKpp0mZJ8DH4LTux0FIJjAqeVn9UzURPohTdR/I9wvAqO36+I8a6/zBofLL6JTyAbSu/84nyQdC+45sIooERi4O+4mLy157QOH2ERnVnWo3JUYtV2cteT4Qai6amMpORsRpdKimICAT1Y9IlAo4pSlhn6S/pSQgA9q5H4XS0E4oTzhGm8Xm8VBC4X4iMCrbCREM3YFLlw9EJAMhf10VbzolSGiduM0mQTtGWW4HxqZ8Who7zdz8nOii6g5F6Ueg9FQe9OoNksf+GnjDHR8l3jcYEQKzDKbQDdVJ7IR+qlkSApQOMRNaZkwImLxTvIRCqBwKoGoaz/PcFeAP8JPqGZ10Ax/Nf4hASAE8eI7Pve0+Dsuf2eL1tT830V+9LmY/k8PHbn3mUQg5CLMYKU0oVQ5w4Tll/TGZrShWEH01m3zschw9Lz4uxdtQEIJklPVh4x7KccVqc9jl6GhxMWwDAWZ+hBSVV99OM89Irx/ms8Na5X2dxliM+MrT8wFs+PUypuDN63Kn+QTOuehLre5hlhSt+n2IL7yGsDgcq16i4vtRv3B2a13ReJ8zhbCYw0MB1892IkaJdmTnFNLZxBCAcoO+2bmR6rxHavlAnEQq9/6TIB0D+s8bOQCtRdkvLQgrq8Krp35c3fbG/NThCYLiNqFb1J1B0w73Hr69EJi9ESLRfOjpu8YbU/l9iCU0GlZ7Hlc+5TtkW0tsEqnaKRHb5gf9oGHxJy2chzfnMD7uJ3BJQ1+qdk7VUKvg0TopVS47PggHTPdCNLG0jEqH+8iWD8SH1UaowfVufptECrfLZP7gmO8sBwhcYF9yfX1ZixhPjxGL76viKMeA714jP0rsIYtIWF7FxAfcWFyGgn+/C4W7Yf52mQ5aoKltmgUlpk1jrJiYnpEaxL/TjXHQjv2kuhUF83djvKsB1OcD2f6Ix1EJ4oQCBZ0d9QvIcisRXNzEsUCax1E7mXsgos75zkyCHfoR9FFZUz4NHTqN9uHMsOPphQRmUeSD9xRw4mhnks7FfxCQCCZVSnO31BI4rEkEsyqdw6pUo5xOp4oZx1E4DpvqHVttHLMqhVNzfBCVMzDjfR9ZPYRRuGHiGwi/m70QLR6uw7/4xS9+8Yu7h/yY+QlcUO4W/vxHf2/l/vHyn1QRhX+KkZDP538Z3TV+Gd0/7paRXA65pMTBqPyCfVzetgEsF3S6ENhHmu1CodC+3Wd+hs8Y1/3k3ohlAEpt2zu9OoTjBvSgAdCT0Xu9XmPMAkZsHX2y28CeHhSKeUmajup4ri25BxsxOltkmL/YvcPy30qlwljuFvwnSVINu9/SqIGHareWB38liUHX8MeCJOYhxApTsnAq1FiWZRzXZMB7kjA1vgv+k0WvshJCzXYfYFwRKrBlUWRr2P14uQafBv/xUhLAIwLOiEHDdPuhBv6uYF3pSlA7boyaQFvEIpDVVMrfINZuNwDLsJl85YnQDtu7ftcGycKoJbLGMIki1jAE/I0FDzFoMGNhBPVfHIL/gU1WwBhXDEEJt/QJIxHr5PVHRjYoi6JoiteAcHu4XgP/jygJxe3XFHVbsKXOQIJ9ejHHJD5Gf2QWfIwVvnrdRjtvKJ90fbEFJz2UowUy/K1iJGxDOSWGSAJ/hgil62Suwz6w5q2U5giZD+tN6in87lPJYC045lEYRs/gJbFUFPPi9UtdY8CZ60BPkTzKzmYsHWgK9nbNwYBdYG6K1oBdtMxixCUPhkwUit0Xh50NzQgoS16c3uyTXDIm8uXvOos1/PRUhKOat/adaL3h2AjWF7uMXdzwS9MieIx4uzo8I/AV2yVGOY+mzqWpMlI76yV1pHSsVX2IjApgKFh7B7YVILTb582xI1+hDMfINFQ1+wrSRJKbXv78qkDlsXS3AVthrO+QGMmM00g+g+fYmxqWDBvnku8jAiMWz3uATNl1nqDuWltCSmezFSRGPQlXVgBgQizi/oPMt9tl8QiMBFzqqIO3LyHbINlfsttzEiNo/xh8+AtA3rWrlTFskFvunPCMMNMMgSbX8PIXsg03Cj3WoU4ERkjpBLxh2NRV+DJr0+74GDmUzpw6V6nINRtvOPhYwwRG8CdxWn6x4bkNGpYueUEMRq65kCIwcmYeQZ5n7aqM0ETlBVM7kF/E2DWMwAhJUhQwVKydRIzwLsbBSHImPsasWdPaNlQcEcs4QmAEZwwZV51AjAgakgQj9By2cFxYQAOFi5XAqO3O6GJyZOfanTCjm6HqSVdNQ4tyDbOOBEZIU0WGgL9ZMDK07mZW5duSBJWugmcVJjBCi9aw/EzApd00GRmWwfIDGnFksUuEvRmJ0Ui0LgBEBGWE3DFsMGlt3UjEZj+yDcLA9NYdS4jbPMJ3itEYIT3+Y38IrZUU6xHaANo2Z1A08BfYgvMFAiP0KYfPEIkRcgOxQUIrp7/PgDpoV0ZkGwQX38ZthfXobhhGX6LjK6gJp1/n8KwMb9v+K+pzS2aIXtNAcnzrCa2wouPRCIzGzhW5gBgxsv0lTL8uuwnMO4HzolKAE1Fw5n5AjLBgBJpIrHvOouCMkNjzkmWkW8ZuyDL45v6IsefhMfbhmD17QRv4rWjfvJpAu/KKfVtgRJEYj0oMQRkZvrrFNgyEPO6+X0JTgpXSEFkph2ohv0Ekuy0yCo5hKjZGPzLuUykwI6R2+YqZIu1ly4AxnpIYwcnevqhia1rBZWugYYb0aqT9TBGZIWytMLeoRWtEZVC86XxgRrIRfBMFcbQdTRm413ohMRJH0A0Qto1mczBG0U3wJCGWYQROyd5/F6l4Jd+uj7fXB8qGTojMsD5otlqDXmHISJaWfRg9Oxg9DWrGqF5CmrUGGjaL8TW3o2MUEpAEQWLNPpAqXBi+Jz6/TBjyECssy95W5rIh77zIgrZB43CILV30YfRCmJyNmpi/ogK7CZcTghc0tj6Yl6bEU4amIyhk/fy1BZtHMWKsDaNu3DwjH0ZNPL6BfswLl/h8rVhGX5AkS+zy6te1poI5nBVJctmxyC5O4OVTkikm21Z8ANT9Sgo0XivdfC65JkhSzXV/1HIE0RC6o4rACNK0YAim1Ws0erjWoU4OtnkJKMZ061pSBa5FJNN9QW/ISqCBL3zv1J5KDFA6RmBLW/tJzADCtd6J5bgAQ7nsetBl973lsmdKYzhVJE+3xu0facjPzZeX56D5kg0nNGBCYrfdBAkNwbnkJAq0g2ECnjoGYIQWUR8RxQs087x3WE4EYDTEo/dJY+DcAFCAntEWbXfSLMSEvMvAWk7NaAt1zunrJYfnUiWUllMyKg9Zsq+XFF4KaB11W849QMeoZ/p6KSXrbxVFBi33Yi1w3nUaRvI4bzjdtbSKeDRNd5Sdhig2RsPIdNhSI2QeKrIMZep57GUKrUPHYxUpxfoQ8N9tTMfhJm35Pxi19R79ngQUepRmTZJelIKeKGrr7WiU/zKjO/xXWVHQ/af+jXDmuOt7vST4dnj2YDeU+v6X9KJlY00buv89vqcl90CKp+coLsTqVeVhKOnnap/isb2qPgglPadSXejvVxU+rhoWiWKuKBydHVsrcaRbTByvmkKbYueVy+Vobjdniw3oJU97YfxNAQ/feYYGmA1eOdM+jVILqpEynycNlA2eWkRmiipFu9vJ9JqDScWCJOZbGTmquDtNr2OmqgpkvnZGYjXtnHqSRH/oZp4qJVAaUr16l3nEIC5JqnLVYKN9uKRV0853tdreEokFSrsFccvHF0t1pZhwuOXkC5Ya7clWukDV7iRRyCZ3y+QYNH3d09U4mKp3B4b89c2SDVV5C96Abs33qXDvGU+n/s5WpCjUJm5jy6eqxFkoLzDmn/YybCGrjGGZsLPjtPrEkhOH0TkEPC2xwh0zyI60WDuSLYdOtfzqyPmv8J1lurZ8cnYmxI6QKxDPtQyhVnepKd/qg5SJPWSeZQOOfNgQHS53SCESoU+OxCTsgXPD2pEjJ6tXufdksv5foG9cs/8HdhbsmLuVz1A0/n2ZECmPvP9hE2Fb4FERRNGq51Psc2q1fPcqOMFF98g86+rAkiC7SWybqPnPp8J5FgWJpRjNh0+BN0XjlN1yEdWoryafOc6vmrZGnxTWC5/+VRKBrLTjfhKOlr76+XjXfNkA0IVQKbCmqlqndDSeU2H1I2qDMV/8nAJUQIpYDiQ4JYMXrOpUVd52p+Vm9jonCE2frxabyeFzfeYgF/pCwJ1oC1FoSiaxDqy9BSuIqbnz+fiOcPw+5zo8rCamacFLicVKCFCKUnFUuSJCI2q8hMDWItUiqgRC8c2hC/aZVOm8ICazbUcWlVQvSCjz8yYzSomd/bymXcDXgJLg+Zx+zMA+qLlE9y371DWPT8ImWLEh1cFKDmlUvJinqXlqOsc96ZVgT63iRT8dMalpFvVZ8vQuc0goMRft9cN8zSWrevx7P1VCALNzgqqndTJJ1j9RE+Kkhjx6iAF4UbmY+JwyPCbVD3FzUvnMy8pNcvF5EYqWYRlDC2YuZU+DosMd76YaSf+DWPY0oHj2qRz1Pjdbg0ELz1NKwMwj+E5Bh1unYq5b9UIbpU9tt8dd35sV8ETBUfiUAh1AZ5LK7OkiNle0nUlenZh9wNg1vawAm85+lo4xaBYcaFPdw5xv9t9AVn60lI7K87nPST9hHlc02k5GAJSXevTFcn9UUQwYjzoqMNrKc9r35zIl2RiokwlZExL7Y774OXzs3s8dvsohVIHH/r7eHyaLflIdd0OdzAdSCnf1Stfnc13PbvF0UTkDmfUqAppehAqpXZiMEV58gN6FuGKaMQaeIioUXHNw3C28+TygkLxn0SPOpJ4foYczd/6EAi2z2UP2VbpCO2Byl4zx4s+okGZmj+jwNwyFQtBcKNnil9H949+bRzS27sFyLfiL6MHWo3/QZ/A3DY9lGJ4ofO8HUzr//VGa6dpiwr8mIr+Z9HCzCMIrFvR4e3IE93hd4VEz/7hSSjPVVLzokRSvPX5UCUGQziYey0N1Aj8/6j2uxl3RqrcDnPE9CJ6bA7pz2F8kh/8BkRiFqKva3goAAAAASUVORK5CYII=;" parent="1" vertex="1">
          <mxGeometry x="557" y="224.97" width="64" height="74.1" as="geometry" />
        </mxCell>
        <mxCell id="rdTq-aBfrkCgcmM9OfU6-6" value="" style="endArrow=classic;html=1;strokeWidth=4;strokeColor=#FF99FF;entryX=-0.042;entryY=0.215;entryDx=0;entryDy=0;entryPerimeter=0;" parent="1" target="rdTq-aBfrkCgcmM9OfU6-3" edge="1">
          <mxGeometry width="50" height="50" relative="1" as="geometry">
            <mxPoint x="369" y="203" as="sourcePoint" />
            <mxPoint x="403" y="274.98" as="targetPoint" />
          </mxGeometry>
        </mxCell>
        <mxCell id="rdTq-aBfrkCgcmM9OfU6-8" value="" style="endArrow=classic;html=1;strokeWidth=4;strokeColor=#FF99FF;" parent="1" edge="1">
          <mxGeometry width="50" height="50" relative="1" as="geometry">
            <mxPoint x="528" y="311" as="sourcePoint" />
            <mxPoint x="528" y="369" as="targetPoint" />
          </mxGeometry>
        </mxCell>
        <mxCell id="uhF2R85Lf4M7UMCj0L2H-1" value="" style="endArrow=classic;html=1;strokeColor=#CCFF99;strokeWidth=4;rounded=0;entryX=0;entryY=0.75;entryDx=0;entryDy=0;" parent="1" source="UlPxzu9UgxSTdZvAL-5m-3" target="fdVWaI6c64YxZMzXzx8u-1" edge="1">
          <mxGeometry width="50" height="50" relative="1" as="geometry">
            <mxPoint x="389" y="637" as="sourcePoint" />
            <mxPoint x="648" y="636" as="targetPoint" />
          </mxGeometry>
        </mxCell>
        <mxCell id="uhF2R85Lf4M7UMCj0L2H-2" value="" style="endArrow=classic;html=1;strokeColor=#CCFF99;strokeWidth=4;rounded=0;entryX=0.008;entryY=0.909;entryDx=0;entryDy=0;entryPerimeter=0;" parent="1" target="fdVWaI6c64YxZMzXzx8u-1" edge="1">
          <mxGeometry width="50" height="50" relative="1" as="geometry">
            <mxPoint x="407" y="783" as="sourcePoint" />
            <mxPoint x="684" y="669" as="targetPoint" />
          </mxGeometry>
        </mxCell>
        <mxCell id="uhF2R85Lf4M7UMCj0L2H-3" value="" style="endArrow=classic;html=1;strokeColor=#CCFF99;strokeWidth=4;rounded=0;entryX=0;entryY=0.5;entryDx=0;entryDy=0;" parent="1" source="rdTq-aBfrkCgcmM9OfU6-1" target="fdVWaI6c64YxZMzXzx8u-1" edge="1">
          <mxGeometry width="50" height="50" relative="1" as="geometry">
            <mxPoint x="417" y="793" as="sourcePoint" />
            <mxPoint x="718" y="681" as="targetPoint" />
          </mxGeometry>
        </mxCell>
        <mxCell id="uhF2R85Lf4M7UMCj0L2H-4" value="&lt;b&gt;&lt;font color=&quot;#cce5ff&quot; style=&quot;font-size: 17px;&quot;&gt;Create DQ Rules&lt;/font&gt;&lt;/b&gt;" style="text;html=1;strokeColor=none;fillColor=none;align=center;verticalAlign=middle;whiteSpace=wrap;rounded=0;" parent="1" vertex="1">
          <mxGeometry x="469" y="183" width="152" height="30" as="geometry" />
        </mxCell>
        <mxCell id="uhF2R85Lf4M7UMCj0L2H-5" value="Amazon S3" style="sketch=0;outlineConnect=0;fontColor=#232F3E;gradientColor=none;strokeColor=#ffffff;fillColor=#232F3E;dashed=0;verticalLabelPosition=middle;verticalAlign=bottom;align=center;html=1;whiteSpace=wrap;fontSize=10;fontStyle=1;spacing=3;shape=mxgraph.aws4.productIcon;prIcon=mxgraph.aws4.s3;" parent="1" vertex="1">
          <mxGeometry x="1085" y="586" width="80" height="100" as="geometry" />
        </mxCell>
        <mxCell id="uhF2R85Lf4M7UMCj0L2H-6" value="&lt;b&gt;&lt;font style=&quot;font-size: 17px;&quot;&gt;Data Staging&lt;/font&gt;&lt;/b&gt;" style="text;html=1;strokeColor=none;fillColor=none;align=center;verticalAlign=middle;whiteSpace=wrap;rounded=0;" parent="1" vertex="1">
          <mxGeometry x="1071" y="547" width="112" height="30" as="geometry" />
        </mxCell>
        <mxCell id="uhF2R85Lf4M7UMCj0L2H-7" value="Amazon Athena" style="sketch=0;outlineConnect=0;fontColor=#232F3E;gradientColor=none;strokeColor=#ffffff;fillColor=#232F3E;dashed=0;verticalLabelPosition=middle;verticalAlign=bottom;align=center;html=1;whiteSpace=wrap;fontSize=10;fontStyle=1;spacing=3;shape=mxgraph.aws4.productIcon;prIcon=mxgraph.aws4.athena;" parent="1" vertex="1">
          <mxGeometry x="1085.68" y="335" width="76.32" height="108" as="geometry" />
        </mxCell>
        <mxCell id="uhF2R85Lf4M7UMCj0L2H-8" value="" style="endArrow=classic;html=1;strokeWidth=4;strokeColor=#FF99FF;" parent="1" edge="1">
          <mxGeometry width="50" height="50" relative="1" as="geometry">
            <mxPoint x="1126" y="233" as="sourcePoint" />
            <mxPoint x="1126" y="291" as="targetPoint" />
          </mxGeometry>
        </mxCell>
        <mxCell id="uhF2R85Lf4M7UMCj0L2H-9" value="" style="endArrow=classic;html=1;exitX=0.519;exitY=1.117;exitDx=0;exitDy=0;exitPerimeter=0;strokeWidth=4;strokeColor=#FF99FF;" parent="1" edge="1">
          <mxGeometry width="50" height="50" relative="1" as="geometry">
            <mxPoint x="1126" y="452" as="sourcePoint" />
            <mxPoint x="1126" y="540" as="targetPoint" />
          </mxGeometry>
        </mxCell>
        <mxCell id="uhF2R85Lf4M7UMCj0L2H-10" value="" style="verticalLabelPosition=bottom;html=1;verticalAlign=top;align=center;strokeColor=#ae4132;fillColor=#fad9d5;shape=mxgraph.azure.user;" parent="1" vertex="1">
          <mxGeometry x="1094" y="166" width="63" height="56" as="geometry" />
        </mxCell>
        <mxCell id="uhF2R85Lf4M7UMCj0L2H-11" value="&lt;b&gt;&lt;font style=&quot;font-size: 17px;&quot;&gt;Query Staging&lt;/font&gt;&lt;/b&gt;" style="text;html=1;strokeColor=none;fillColor=none;align=center;verticalAlign=middle;whiteSpace=wrap;rounded=0;" parent="1" vertex="1">
          <mxGeometry x="1071" y="299" width="112" height="30" as="geometry" />
        </mxCell>
        <mxCell id="uhF2R85Lf4M7UMCj0L2H-12" value="" style="endArrow=classic;html=1;strokeColor=#CCFF99;strokeWidth=4;rounded=0;entryX=0;entryY=0.75;entryDx=0;entryDy=0;exitX=1;exitY=0.75;exitDx=0;exitDy=0;" parent="1" source="fdVWaI6c64YxZMzXzx8u-1" edge="1">
          <mxGeometry width="50" height="50" relative="1" as="geometry">
            <mxPoint x="762" y="643" as="sourcePoint" />
            <mxPoint x="1077" y="644" as="targetPoint" />
          </mxGeometry>
        </mxCell>
        <mxCell id="uhF2R85Lf4M7UMCj0L2H-13" value="" style="shape=image;verticalLabelPosition=bottom;labelBackgroundColor=default;verticalAlign=top;aspect=fixed;imageAspect=0;image=data:image/png,iVBORw0KGgoAAAANSUhEUgAAAT4AAACfCAMAAABX0UX9AAAAaVBMVEX///8ptegAr+YVsufa8vv7/v+c2fNhx+3i9fwptuhAvOo4ueni9vzo+P2F0fHu+f3S7/rL6/m75fdMv+t0zO+L0/GZ2fN9z/DE6Piq3/UAreZWwuz1/P7u+P1uye7d8vuz4vaj3/XJ7fkrBStPAAAL30lEQVR4nO1dC3ObvBKNtGAQFIN5GReMcf7/j7wSINALm37pxM31nplOGvESh93V2ZUgHx8IBAKBQCAQCAQCgUAgEAgEAoFAIBAIBAKBQCAQCAQCgUAgEAgEAvHDEGZZYjeFL+nLj0N6jgmLarXJryJC4mP6qi79IKQFEA56VtqCsQkK/2W9+jE4j1RxsvKl6S6bDi/s1w/BTBWBQLb47dxEiu6VPfsJ8KjkisimMJItcH1l134CHtJHkL4nQOv7EpC+LwHp+xKQvj+D35z7ylt+3UmfOOqYfXNX/0F0AQWOo0xy99HnBeIgqN49DfGnfIwAu0ySeA991zOZjzq+ptf/DJqFLAhGX9xB3xDB0mBWZt4MZ1j5o8dwB31Zux5CYHhh3/8BBAoXBOK7/5i+ND0y7Yg3LyKUKhnCg+9rg9xHSdrqyNj/8srOvx65Tgchyu9yH4U+a+83j31dazLykD6TvfOjc78DfhWb/MldNumjJdb/uoptECj32KAPosu7q+YR3oYByu1O+oCeceptRh65CJRbXfTNIhsxwpBzz+iD+IJRT4MXWPzJTSZ9PD15c73iwmCGQLnBoO+f89vkNFzGZPx2f1aPzPMnO+xHejMcMD2DSiCT7Rp9QMzxNsle68h1RCntRaf630+SoITQv7RSohkvatiR6sHQy9Z1npcAVAZXTcHP80p7PFJgRTTyFtAnKbhH4Ndfuegw5l/Aav1p+Eox6rS0Xpap89bgKeynduZ9vAgZgWOSTnfxnD72d+hLF0IiIxqkx8mDqbpGaF7jwgbdb/2DTIKhfZUDnyFYOvVt9NWKk5qe5/UMoNCiiF9xo4wqI240ilqE08drEClFn2+jT61TAal10/FvWWZG2MRa35f02nB8/xvd+nMkMV2f/rfR12saBeLBvVvXNCd3XtvVoJ/iRXVTTt8adl/hvPMw64r9iRhynVWVxtSIr3Le19AX2lXS2qJpqgWuC9UWJL11ePGiladpTNeg8m30rVpk24PnZaYEDPtLa6voTMAl/FIvO6lBNBztpLvxVlfSF2ank6dcKrxtdz8R1/MP53PJoD+fjxOFBn0Jv5A3Xb+bpL1J361auR/75e21gotdI4Be7XC3mJheU7b8VqifxnGHVcFHcFIcFkYixlm7tzFvjUozWDR9BBTi9i5jbdqy7XsJxIARigl+IeVhVlkafdm54JtYMTJ0n7YY9KURreR/D7xfQoAfHzw07fZKsFxQySl8NQFZ+Qstv+WmeHCEx4tYhVAUMaVMhkUgXlZQ0Ulx30d1TLrx3AXigjNI41mI+i3dHM0zJlzWr/syYBCU/dmyvrDkyRCLxAmh9nlqMk7o6/SFEbDZa7gxiX7xf0D3roA/2fMc0M7kd7O0iadm+ZByR12rdD0vzl58SLqu80pChpk+VsfAyibtkksL0K/dHBgUh5DvfRUb5ovVNNiqZh+gHX/6H7/E0CF3W+k7xTSuPHHCPOBe5VcO+sIC4unJ+j3vbdlcu+utKgCinXXg7mAbYDFtmqbP6T08gsLfjVl8x84aRhJDJN2zATaFOuFoZH7cPhc+ywqPBugiyf0LzCQk26ngqpUT59DhMRos4TUHKB308dAuI/YZ1mxUZF27x8G0tPgYphOOvwjvqWYiRXNpyhW2MdQNoKjZcE6s+QHROmbwu5qZvwFRc5yMzWsXAi1xVPegseSM07cav6QvWWPaeH3upGDSJ2xv7mJNteg+cB/cPYlzKgxGxjNNJjf23h+pnJJak2unWhTgZm038rOoQ0wpPbDXblZwH498XyBaGzPFyqtVTDnpO4Lu9ie5mGmlj9uejMm3GHoteN/hT9aeBDp9gTjVuFJjXk/1OXLZprJ5RbV5Tjd9+l1N8Z/fHETG0BNMOUzCVhPugC7UpwVdbs9FX0qJ8VgrMOgToixbNxo6qlCf22Pcej2eQSlaN6zP8F123Aqy3DNtxwNjScc8tJaW2D3B9AJJvwxZYigK1s3xUlV20XenS6lS7mXQl7Ry1OBgYJpBQ+jOAiYfCw3nHW9pI/aZqmUzWU4jIJa0A6LLw5kdQsy+JgUd7SGnMogLGUWljZyVF8Yc9PnlapwSkUYfT6dWne9RYiac3DZ3pfC5SR4nZPKveeQ93LSR17NGXlq4k12Pi2NaXDRNAwZP53E4/AXMko09HSPdNaLz2bnBxdJIOjWEOujjN29JqbM68ibrqCE44OLhpCNr96w+CXuTDJ4/zP1ddJ/KHvchO18jlXPaLRFVQ4j7YRUBbvoyiK2D+1kxH6WdlXA+SD2RA1v3dNCXxMyKKapwEbaneLedvhJ1pmILfu1K25YLb2QdnkNqb3iwV0dCxMeLpHPT9wmxw/om+j7pNAan3OBSNgud2ZImOOmzrW+lLxHsqUqJ02f51PP6W2MvLIBWjU0bOa86G7IeuBFpw7oVeeesObbos3Jbf9G/M2UXYaHHSeikTD3NTvpW5/1sgQ2lEvsG2n74Ftz3syC3CTdLVlsVl+Rs5ypsK9HusoDvPUWELee1Dk5bWbyuqBACXSsEdAajHuG3q/THQd8aMVcEcuggPAvOxchWyJDT0OiPVzoltgWVVsDYrPfZHvxoqqiBObq56UttkcpzrpkAnoHwE5+mLCMaQ7Cei7hG3t5SIh+LcCFTBs6lsswsUsr+eJr1YCqQ1lFy2q42+4Oldx5Um3kWO2oYN32cFTNO10CkYGmFCCknMTqIKHlTk1y37jtYr703Cn1T1MuXygS/vhXork8WoejJK9e4buPZnutIjsZcx4OpIi+edMgGfTWArhA7Br28as0lcBhPGQdPZQf+LFqtHw76QgpGHaNfZbPsZ7UY/cFSTknEHvuzpn/hbJAdeub6jY/U84yddA9+NFTx7OxT/Nygj2f0eomDB/bFlhOIwyX3rTh1kZ66OHPeEnTpwgfXhT55F34pk95rZKq8Hp6Ew0pRJYXxqK7HiMXtoLXdC8YKoyraqQXrR87LE+CRng36xHY1vtaqLOP66bLkAB5lg8GMkz4e2QLlYefMUXERw8esmAYjwzyAab0mlqkiYAdz5QCzVxlMvm7V9tLFg6HVxcfA7gvXPPCMoWuTPuFbi/RJer3exvmCpTwV8F/0kcxJn7hkJE8oiprt0abv47bECO7I5UK3qMJv10JmyLHDHG+VCvRqT8PSZlaopAfDp3EaIsrHadelWUlk+XaTPi4xgZWna3q9HXmyF6lhgsu8mX3REe0DH+PNOukbq+J9c+3S8F5w9lJXtZmLN8kT5y+ublfe3VvNO1A/VzIXRnlSapqTIumUx7xSCsQ01kGcx54qOkWUQtS2kcjcZtY26eMZkJj9EHMdPE0p9UV6AawyrotJrIfgDfrE9fkJWzFbRMt0mevQV1hVVGbPuZiZmbvL9r3q85kbptQdtIx2ySx/aev7WG48m6xxauahZ5QDiuWtVQK6qde/1wCRVAWIvaPSFGGNKpPr34Zfpez3ymepru+7BOOMFCub9biEgBZkgqVQ2x1aIrpLWte81x5YM0dyg7m6dLPGrMMPT5f7kK22lBk2mubqvVxvzZA7JoD9XHk6XWMmeLnCWJirt96FzeFyCseHd71MJ270LqT52rvu1lzu+e0/Tvc7UrGlV+baZqhftKbgX0V3sCp/D1fWR6YHvzUy55ttcqvzvY5+52z8/z/C3vLbp/QRoBV+VkPg7nyl6Bl9jnTlHZFuv5Eqd9l+o/L47hHQt18m2k8ffkmjwbfJvwLzWwaFsmxX7qPQVxn65t2/ZaB/SYNV3ZMPkST6miL8ksbKxfhu1dPvuJzUgfrdrW/9ksasQ3Z8Rei+ejC8+Rvl8ksaAPNs9p5vWC0r6/FLGmHBUw6gSxVl3xfUTu141BnfKe/ufVs2i/7d+/2+QTsKMQO/HvklIH1fAtL3JSB9XwLS9yUgfV/Dsv4A/2LCf4HMgpXpfLn8990LBHuw/LUYRRPPX9LY/67SG+Nauv5WEWPWlzQQbtzsv5Rlf0kDgUAgEAgEAoFAIBAIBAKBQCAQCAQCgUAgEAgEAoFAIBAIBAKBQCAQ34z/ASXmmvHYHFbNAAAAAElFTkSuQmCC;imageBorder=#CCE5FF;" parent="1" vertex="1">
          <mxGeometry x="1352" y="389" width="176" height="88" as="geometry" />
        </mxCell>
        <mxCell id="uhF2R85Lf4M7UMCj0L2H-14" value="" style="endArrow=classic;html=1;strokeColor=#CCFF99;strokeWidth=4;rounded=0;exitX=0.958;exitY=0.749;exitDx=0;exitDy=0;exitPerimeter=0;entryX=0;entryY=0.5;entryDx=0;entryDy=0;" parent="1" source="UlPxzu9UgxSTdZvAL-5m-1" target="uhF2R85Lf4M7UMCj0L2H-15" edge="1">
          <mxGeometry width="50" height="50" relative="1" as="geometry">
            <mxPoint x="1236" y="654" as="sourcePoint" />
            <mxPoint x="1232" y="548" as="targetPoint" />
          </mxGeometry>
        </mxCell>
        <mxCell id="uhF2R85Lf4M7UMCj0L2H-15" value="&lt;font style=&quot;font-size: 15px;&quot; color=&quot;#ffffff&quot;&gt;Raw Staging Schema:&lt;br&gt;&lt;br&gt;External &lt;br&gt;Stage &amp;amp; Copy Into&lt;/font&gt;" style="text;html=1;strokeColor=#CCE5FF;fillColor=none;align=center;verticalAlign=middle;whiteSpace=wrap;rounded=0;strokeWidth=4;perimeterSpacing=2;" parent="1" vertex="1">
          <mxGeometry x="1260" y="499" width="131" height="160" as="geometry" />
        </mxCell>
        <mxCell id="uhF2R85Lf4M7UMCj0L2H-19" value="&lt;font style=&quot;font-size: 15px;&quot; color=&quot;#ffffff&quot;&gt;Aggregated Results Schema:&lt;br&gt;&lt;br&gt;Created from Views on Staging Area&lt;br&gt;&lt;/font&gt;" style="text;html=1;strokeColor=#CCE5FF;fillColor=none;align=center;verticalAlign=middle;whiteSpace=wrap;rounded=0;strokeWidth=4;perimeterSpacing=2;" parent="1" vertex="1">
          <mxGeometry x="1478" y="499" width="140" height="160" as="geometry" />
        </mxCell>
        <mxCell id="uhF2R85Lf4M7UMCj0L2H-20" value="" style="endArrow=classic;html=1;strokeColor=#CCFF99;strokeWidth=4;rounded=0;exitX=1;exitY=0.5;exitDx=0;exitDy=0;entryX=0;entryY=0.5;entryDx=0;entryDy=0;" parent="1" source="uhF2R85Lf4M7UMCj0L2H-15" target="uhF2R85Lf4M7UMCj0L2H-19" edge="1">
          <mxGeometry width="50" height="50" relative="1" as="geometry">
            <mxPoint x="1360" y="556" as="sourcePoint" />
            <mxPoint x="1448" y="529" as="targetPoint" />
          </mxGeometry>
        </mxCell>
        <mxCell id="uhF2R85Lf4M7UMCj0L2H-21" value="" style="rounded=1;whiteSpace=wrap;html=1;fillColor=#ffcccc;strokeColor=#36393d;" parent="1" vertex="1">
          <mxGeometry x="1285" y="205" width="281" height="93" as="geometry" />
        </mxCell>
        <mxCell id="uhF2R85Lf4M7UMCj0L2H-23" value="" style="shape=image;verticalLabelPosition=bottom;labelBackgroundColor=default;verticalAlign=top;aspect=fixed;imageAspect=0;image=data:image/png,iVBORw0KGgoAAAANSUhEUgAAANEAAADyCAMAAADk3NBFAAAAwFBMVEX////zdyZOTk6enp52dndhYmI7OztERETyawDx8fHybQA/Pz9LS0tHR0fyagBBQUE4ODiurq69vb35+fnr6+vzdB7d3d3T09OWlpbzcRXzcxvFxcXybw3l5eW6urr++PT96uDOzs5qamp+fn6mpqb6yK9UVFT849b718X+8On839H5vqH96N31klr6zriHh4f2m2r3pXr4tpX0hEH1jVH0ikz4so/0gDllZWX3q4UlJSUuLi72oXSDg4T0gTn6yrMSqUiBAAAQxElEQVR4nO1deX+qOhOuGyCgqBQVpeJe97XV03u6fP9vdZOACiFA2PX8+vzz3vpCyJOZTCaTk5mnp1/84hduKA/q48K4Nyhn3ZGY0P0aDosQw+G2lXVnYkCraNAxMPx6ybpDUVG38kGcGll3KRraOCFAqZ51p6Jg7CQEKHWz7lZ4dEmEAKWHnUsymVCx+JV1z8Ki7kKoOHxUI+4momJxm3XXwqHlzmgoZ925UHBVuodVu607o2Iv686Fggeh4jjrzoXCL6P7x783j8buhIaDrDsXCgOP9egxd7Oubl02PoP+OvtZnva79Xr99va2Xu/2p+Vk9qoHaaNwJ0o3ny13R4XjeU1VOx3lgo6qajzPqcfdYdOna6nsJqQRdWfk55dICqrPDusOp6kdJecKRVE1Tn0/zSjE5diSmyJqUtLpFacQYeMti9OR41UPLjZegNb5Y+bXJtGA027LG9NpycC0+ByUjf6z46nZXKHy3Hoy92pXHhEIFej61L7wQZwCiUn/WfNaJyCbi6w07m3ioX/y1hELopSQjVCplKfUVIDFXtOCCgcjxe881K9nozQsUg52104IgJLP8syFlI6NFJ87uAqqPB4Or3yovR+cT2lK4wrOP7ho4rFArX6uXD/UqrdHxVG7R685ThFRCGn1yakx0UHocOsFdY/9sHUS8jMO/V0c6maHwr29xsSIIKKpp0mZJ8DH4LTux0FIJjAqeVn9UzURPohTdR/I9wvAqO36+I8a6/zBofLL6JTyAbSu/84nyQdC+45sIooERi4O+4mLy157QOH2ERnVnWo3JUYtV2cteT4Qai6amMpORsRpdKimICAT1Y9IlAo4pSlhn6S/pSQgA9q5H4XS0E4oTzhGm8Xm8VBC4X4iMCrbCREM3YFLlw9EJAMhf10VbzolSGiduM0mQTtGWW4HxqZ8Who7zdz8nOii6g5F6Ueg9FQe9OoNksf+GnjDHR8l3jcYEQKzDKbQDdVJ7IR+qlkSApQOMRNaZkwImLxTvIRCqBwKoGoaz/PcFeAP8JPqGZ10Ax/Nf4hASAE8eI7Pve0+Dsuf2eL1tT830V+9LmY/k8PHbn3mUQg5CLMYKU0oVQ5w4Tll/TGZrShWEH01m3zschw9Lz4uxdtQEIJklPVh4x7KccVqc9jl6GhxMWwDAWZ+hBSVV99OM89Irx/ms8Na5X2dxliM+MrT8wFs+PUypuDN63Kn+QTOuehLre5hlhSt+n2IL7yGsDgcq16i4vtRv3B2a13ReJ8zhbCYw0MB1892IkaJdmTnFNLZxBCAcoO+2bmR6rxHavlAnEQq9/6TIB0D+s8bOQCtRdkvLQgrq8Krp35c3fbG/NThCYLiNqFb1J1B0w73Hr69EJi9ESLRfOjpu8YbU/l9iCU0GlZ7Hlc+5TtkW0tsEqnaKRHb5gf9oGHxJy2chzfnMD7uJ3BJQ1+qdk7VUKvg0TopVS47PggHTPdCNLG0jEqH+8iWD8SH1UaowfVufptECrfLZP7gmO8sBwhcYF9yfX1ZixhPjxGL76viKMeA714jP0rsIYtIWF7FxAfcWFyGgn+/C4W7Yf52mQ5aoKltmgUlpk1jrJiYnpEaxL/TjXHQjv2kuhUF83djvKsB1OcD2f6Ix1EJ4oQCBZ0d9QvIcisRXNzEsUCax1E7mXsgos75zkyCHfoR9FFZUz4NHTqN9uHMsOPphQRmUeSD9xRw4mhnks7FfxCQCCZVSnO31BI4rEkEsyqdw6pUo5xOp4oZx1E4DpvqHVttHLMqhVNzfBCVMzDjfR9ZPYRRuGHiGwi/m70QLR6uw7/4xS9+8Yu7h/yY+QlcUO4W/vxHf2/l/vHyn1QRhX+KkZDP538Z3TV+Gd0/7paRXA65pMTBqPyCfVzetgEsF3S6ENhHmu1CodC+3Wd+hs8Y1/3k3ohlAEpt2zu9OoTjBvSgAdCT0Xu9XmPMAkZsHX2y28CeHhSKeUmajup4ri25BxsxOltkmL/YvcPy30qlwljuFvwnSVINu9/SqIGHareWB38liUHX8MeCJOYhxApTsnAq1FiWZRzXZMB7kjA1vgv+k0WvshJCzXYfYFwRKrBlUWRr2P14uQafBv/xUhLAIwLOiEHDdPuhBv6uYF3pSlA7boyaQFvEIpDVVMrfINZuNwDLsJl85YnQDtu7ftcGycKoJbLGMIki1jAE/I0FDzFoMGNhBPVfHIL/gU1WwBhXDEEJt/QJIxHr5PVHRjYoi6JoiteAcHu4XgP/jygJxe3XFHVbsKXOQIJ9ejHHJD5Gf2QWfIwVvnrdRjtvKJ90fbEFJz2UowUy/K1iJGxDOSWGSAJ/hgil62Suwz6w5q2U5giZD+tN6in87lPJYC045lEYRs/gJbFUFPPi9UtdY8CZ60BPkTzKzmYsHWgK9nbNwYBdYG6K1oBdtMxixCUPhkwUit0Xh50NzQgoS16c3uyTXDIm8uXvOos1/PRUhKOat/adaL3h2AjWF7uMXdzwS9MieIx4uzo8I/AV2yVGOY+mzqWpMlI76yV1pHSsVX2IjApgKFh7B7YVILTb582xI1+hDMfINFQ1+wrSRJKbXv78qkDlsXS3AVthrO+QGMmM00g+g+fYmxqWDBvnku8jAiMWz3uATNl1nqDuWltCSmezFSRGPQlXVgBgQizi/oPMt9tl8QiMBFzqqIO3LyHbINlfsttzEiNo/xh8+AtA3rWrlTFskFvunPCMMNMMgSbX8PIXsg03Cj3WoU4ERkjpBLxh2NRV+DJr0+74GDmUzpw6V6nINRtvOPhYwwRG8CdxWn6x4bkNGpYueUEMRq65kCIwcmYeQZ5n7aqM0ETlBVM7kF/E2DWMwAhJUhQwVKydRIzwLsbBSHImPsasWdPaNlQcEcs4QmAEZwwZV51AjAgakgQj9By2cFxYQAOFi5XAqO3O6GJyZOfanTCjm6HqSVdNQ4tyDbOOBEZIU0WGgL9ZMDK07mZW5duSBJWugmcVJjBCi9aw/EzApd00GRmWwfIDGnFksUuEvRmJ0Ui0LgBEBGWE3DFsMGlt3UjEZj+yDcLA9NYdS4jbPMJ3itEYIT3+Y38IrZUU6xHaANo2Z1A08BfYgvMFAiP0KYfPEIkRcgOxQUIrp7/PgDpoV0ZkGwQX38ZthfXobhhGX6LjK6gJp1/n8KwMb9v+K+pzS2aIXtNAcnzrCa2wouPRCIzGzhW5gBgxsv0lTL8uuwnMO4HzolKAE1Fw5n5AjLBgBJpIrHvOouCMkNjzkmWkW8ZuyDL45v6IsefhMfbhmD17QRv4rWjfvJpAu/KKfVtgRJEYj0oMQRkZvrrFNgyEPO6+X0JTgpXSEFkph2ohv0Ekuy0yCo5hKjZGPzLuUykwI6R2+YqZIu1ly4AxnpIYwcnevqhia1rBZWugYYb0aqT9TBGZIWytMLeoRWtEZVC86XxgRrIRfBMFcbQdTRm413ohMRJH0A0Qto1mczBG0U3wJCGWYQROyd5/F6l4Jd+uj7fXB8qGTojMsD5otlqDXmHISJaWfRg9Oxg9DWrGqF5CmrUGGjaL8TW3o2MUEpAEQWLNPpAqXBi+Jz6/TBjyECssy95W5rIh77zIgrZB43CILV30YfRCmJyNmpi/ogK7CZcTghc0tj6Yl6bEU4amIyhk/fy1BZtHMWKsDaNu3DwjH0ZNPL6BfswLl/h8rVhGX5AkS+zy6te1poI5nBVJctmxyC5O4OVTkikm21Z8ANT9Sgo0XivdfC65JkhSzXV/1HIE0RC6o4rACNK0YAim1Ws0erjWoU4OtnkJKMZ061pSBa5FJNN9QW/ISqCBL3zv1J5KDFA6RmBLW/tJzADCtd6J5bgAQ7nsetBl973lsmdKYzhVJE+3xu0facjPzZeX56D5kg0nNGBCYrfdBAkNwbnkJAq0g2ECnjoGYIQWUR8RxQs087x3WE4EYDTEo/dJY+DcAFCAntEWbXfSLMSEvMvAWk7NaAt1zunrJYfnUiWUllMyKg9Zsq+XFF4KaB11W849QMeoZ/p6KSXrbxVFBi33Yi1w3nUaRvI4bzjdtbSKeDRNd5Sdhig2RsPIdNhSI2QeKrIMZep57GUKrUPHYxUpxfoQ8N9tTMfhJm35Pxi19R79ngQUepRmTZJelIKeKGrr7WiU/zKjO/xXWVHQ/af+jXDmuOt7vST4dnj2YDeU+v6X9KJlY00buv89vqcl90CKp+coLsTqVeVhKOnnap/isb2qPgglPadSXejvVxU+rhoWiWKuKBydHVsrcaRbTByvmkKbYueVy+Vobjdniw3oJU97YfxNAQ/feYYGmA1eOdM+jVILqpEynycNlA2eWkRmiipFu9vJ9JqDScWCJOZbGTmquDtNr2OmqgpkvnZGYjXtnHqSRH/oZp4qJVAaUr16l3nEIC5JqnLVYKN9uKRV0853tdreEokFSrsFccvHF0t1pZhwuOXkC5Ya7clWukDV7iRRyCZ3y+QYNH3d09U4mKp3B4b89c2SDVV5C96Abs33qXDvGU+n/s5WpCjUJm5jy6eqxFkoLzDmn/YybCGrjGGZsLPjtPrEkhOH0TkEPC2xwh0zyI60WDuSLYdOtfzqyPmv8J1lurZ8cnYmxI6QKxDPtQyhVnepKd/qg5SJPWSeZQOOfNgQHS53SCESoU+OxCTsgXPD2pEjJ6tXufdksv5foG9cs/8HdhbsmLuVz1A0/n2ZECmPvP9hE2Fb4FERRNGq51Psc2q1fPcqOMFF98g86+rAkiC7SWybqPnPp8J5FgWJpRjNh0+BN0XjlN1yEdWoryafOc6vmrZGnxTWC5/+VRKBrLTjfhKOlr76+XjXfNkA0IVQKbCmqlqndDSeU2H1I2qDMV/8nAJUQIpYDiQ4JYMXrOpUVd52p+Vm9jonCE2frxabyeFzfeYgF/pCwJ1oC1FoSiaxDqy9BSuIqbnz+fiOcPw+5zo8rCamacFLicVKCFCKUnFUuSJCI2q8hMDWItUiqgRC8c2hC/aZVOm8ICazbUcWlVQvSCjz8yYzSomd/bymXcDXgJLg+Zx+zMA+qLlE9y371DWPT8ImWLEh1cFKDmlUvJinqXlqOsc96ZVgT63iRT8dMalpFvVZ8vQuc0goMRft9cN8zSWrevx7P1VCALNzgqqndTJJ1j9RE+Kkhjx6iAF4UbmY+JwyPCbVD3FzUvnMy8pNcvF5EYqWYRlDC2YuZU+DosMd76YaSf+DWPY0oHj2qRz1Pjdbg0ELz1NKwMwj+E5Bh1unYq5b9UIbpU9tt8dd35sV8ETBUfiUAh1AZ5LK7OkiNle0nUlenZh9wNg1vawAm85+lo4xaBYcaFPdw5xv9t9AVn60lI7K87nPST9hHlc02k5GAJSXevTFcn9UUQwYjzoqMNrKc9r35zIl2RiokwlZExL7Y774OXzs3s8dvsohVIHH/r7eHyaLflIdd0OdzAdSCnf1Stfnc13PbvF0UTkDmfUqAppehAqpXZiMEV58gN6FuGKaMQaeIioUXHNw3C28+TygkLxn0SPOpJ4foYczd/6EAi2z2UP2VbpCO2Byl4zx4s+okGZmj+jwNwyFQtBcKNnil9H949+bRzS27sFyLfiL6MHWo3/QZ/A3DY9lGJ4ofO8HUzr//VGa6dpiwr8mIr+Z9HCzCMIrFvR4e3IE93hd4VEz/7hSSjPVVLzokRSvPX5UCUGQziYey0N1Aj8/6j2uxl3RqrcDnPE9CJ6bA7pz2F8kh/8BkRiFqKva3goAAAAASUVORK5CYII=;" parent="1" vertex="1">
          <mxGeometry x="1385" y="213" width="64" height="74.1" as="geometry" />
        </mxCell>
        <mxCell id="uhF2R85Lf4M7UMCj0L2H-22" value="" style="shape=image;verticalLabelPosition=bottom;labelBackgroundColor=default;verticalAlign=top;aspect=fixed;imageAspect=0;image=data:image/png,iVBORw0KGgoAAAANSUhEUgAAAOEAAADhCAMAAAAJbSJIAAAAllBMVEX///80bJn/zTr/zDQuaZf/1mtmiq3/yiMaYJL/9eDg5uz/1F1Xgqhqjq/S2+X/8dQjZJT/9Nr/yy3/2XJdhqr/yh///fn/2nevwNKKpb8bYZJni63/78f/8c75+vz/341zlbTCz9yAnbqPqcLk6vD/01j/6LGgtcr/5aPN1+L/+ev/7L7/0Ej/6rX/24H/4JNCdJ5LeqL2FztaAAAFx0lEQVR4nO2c/Vu6PBSHEaZgmiGKr6Vo+VKW1f//zz2yafEUjEPKxvx+7t/qCq7d19kL2znLsgAAAAAAAAAAAAAAAAAAAAAAAAAAAAAAAAAAAAAkuRmNo347jX40Ht3obt65dJbM81k2vseWHd2NPINO22O1PJjXNtVxFhH8hGM0093Yv9BhPskvxmcGhnExoQXwGMbJQneDi7LwCvjFeIYp3hQVPCgatXDMakz0Pc87LBY0Q1YzabqJ+CTj958PsotP4ozjR7qbTafD++hkc/xxSVT0zJlQ23HHZMuvn/vEdbGtsc2FECH0vofVzeTKgjjmIewnfvNBM2RjbW0uxu/WErtpraatzYUQa2FiGFrWJ9HQkDVx5P+Mx4waQn+kr9kFeBSGk+ev34yo3+D+o8Z204lOETtNpk/kTQaLdDaczPRoyD7E5P/MyLsMNtXcdhqNkxCbNDajTZu4GPInGrobT6LxHTLm+9QPb0MNiwLDigBDGFaftidBvnQYYvh0I+MaDOVcv6F0M1xNw9lis7ydNmhMp8bFcNT2J7L02S/yDeetI/X99n6gV2+2IZ/30uCGvcA5Ebjhaq1RclEgu1TE0LETOEHwrstxXDw38QfDA4Fzr0WwfekAZhradri/EsFMQztoKReMyhDMNlSvuClwNHERQzvoKRV8uvwkIwxvDy+vpxra7lalIfmUvqhhdHh5K93QDpvqBJ9LCqE4EX7NMHQUDsVpSSHkp/qDDMFDP31QJVjWKBSZmaabZejUVRmS0xDFObx9F2QZ2uGLIsPbsjopzzkOM3upHawVGZazFtZEJ80ehuq66aysYcgT47vMYRjPNWoM/1DvRINngFeSGKoaiJ2SDP04L34XSgRtV82iX5KhqPqShtB270w25H10LRuFhht6cdr/JXstNN2QibqGrE9S8w39Gi+k6eWE0FhD5i152cY+T9BQQ3/SEJVQ9VzB6hpmXyjxvY9H4feyyhespCHzPa/WbtymES0fF0/Hl66DnEmmmobMZxHpZtPDq3wdrKgh89oLSnH6YLdyKQGsnOHk8zn/XVbzredQ/aplyL4KKZu7932vnsrKDl3S+Kugof8pppDm+2sYfGfLflJArmKGvqgx7NaLhcgcQ77Tswb78KJ6FTL047N5q2kTlnAzDdlH/FcP9BnSOEM/nmTupacRZhtO4mWiWYpgNQzZZ/w3dgldVJ2h/DSR313K3+lV2lB6Iszvn3XL6aPKThOlp/r8xnJWjvNsVKVmZJkZ3yoxhKpO9WXZNZ6mnpc0CtUlECUZUr6jKMlPYXZNkuX2nmRJ3HNRliGVVCqww6b+zfhOamVXm/BP0veyDNVVKmSPRJ7jlKSpz0JltUlm1ZespulsVFYMHbhNXTHKNFRb9WVlVF+WaKi4ci+mn6JYnqGGAlPLWv6ebkoz1CKYVslelmE41yIY30b4cQm2HENdlezCcdT2EjdK/MsbOoG71X2tJL4V1D8yzjfMPABPIXCD1ptevTRyDNNTGGn09N8KSifHUHfzLsA/b9iUorvxJHIMXQmhnoW9KGesFir3uGcAQxhWHxj+3ykIEqn+KzR0W9u3bf0rXXx1ho4jzge7p8pZQwzpp4nB6RNmcMyoOkOtLadCPhFOpCEeRCYgeNfYbjrkU30nsTU6OldwM5gCNTPjrBIP7Xk3VZXjPRdqCJOf2XMxELW1uRhz4lTzmniGJ8YdXUdqRaFmud3u1yMD/kjYlby1UhArFRLdlA9Dtcmls5BfQPsmOP27iy2fnEI11TIXYUhcMILV/cAaPIibFoEZy71gQBOMP7zDMDx9llby5DCLP5TUmDPNCHZFFcOd7iYX5b5YBa2rMfnyV7oOvSYjcAzrooLBkFjJ7oRDoyaZBHctQld13JZB6+Av7vaOK7lREgSuszfZj9Ndz4etdIbztZHjDwAAAAAAAAAAAAAAAAAAAAAAAAAAAAAAAAAAAErkPw5afT+R8NfPAAAAAElFTkSuQmCC;clipPath=inset(20.67% 20.22% 21.56% 20.22%);" parent="1" vertex="1">
          <mxGeometry x="1317" y="227.99" width="39.18" height="38.01" as="geometry" />
        </mxCell>
        <mxCell id="uhF2R85Lf4M7UMCj0L2H-24" value="&lt;font color=&quot;#cce5ff&quot;&gt;&lt;span style=&quot;font-size: 17px;&quot;&gt;&lt;b&gt;Analyse Data&lt;/b&gt;&lt;/span&gt;&lt;/font&gt;" style="text;html=1;strokeColor=none;fillColor=none;align=center;verticalAlign=middle;whiteSpace=wrap;rounded=0;" parent="1" vertex="1">
          <mxGeometry x="1353" y="170" width="152" height="30" as="geometry" />
        </mxCell>
        <mxCell id="uhF2R85Lf4M7UMCj0L2H-26" value="" style="shape=image;verticalLabelPosition=bottom;labelBackgroundColor=default;verticalAlign=top;aspect=fixed;imageAspect=0;image=data:image/png,iVBORw0KGgoAAAANSUhEUgAAAOAAAADgCAMAAAAt85rTAAAAhFBMVEX///8rtelxPMhwOsh0RsLIwtAgs+jU7voUsejv6PmDWc72/P674/aA0PFPwu2B0vG76Pjt+f3y+/7i9fzK6/ldxO2m3vVwye8zuOpKvuzC6PiM0/Ke2vSW1/Ox4vZyzPDc8vuf3fXW0N+w3vW24/d6zPAAredSv+xkyu/g2up0RcJ+Usp+EXuXAAANRklEQVR4nO1da2OyOhKWvYzZpWq5GlQuPa++ds/+//+3QItCMgkTSNSe5fnYRpiHMMlcw2q1YMGCBQsWLHAA3yePdCmGGwTxr1Oen369VSMD/fgtzZuRcfAIuWwh3nMGNZi3LbQDow2HZiRjvFw/SDgLKDIA7wvAPzQDq+Q+ELLDwwSciR3rpG4EZ6Xy5Tt7vYEe/NY9i9eBn/elbgQvQ3xkDMJIL32sqNNw5qLYsEHn8JBJA7P40dKaI9iKYteCYzMTJcjA8vV3jA8mie1BEskDU2Sgx15/CqX3roW8QIbIBDZv8xNENkKIzYvH5Hc0kFS1JZg9QWYjrFGCsJN0q0Jn2mPPENoE7zjBjUQQfxILwadjIdhhIfiiWAh2WAi+KBaCHRaCT0N0SIuDMgrhjGD8sdnvd4Xr2FuQc9YCdngQzA3BatPG3pro26fT4Nt638WTgGVnzPt2QjBO7oOdBt/er/1wGb9UyBD7BKPTwImGTB9qnYF46KMCZCdJbvsEi603dB3BcxTXWMvhMsYLQXLLBP11xiTPGLgTPQxLxAcHVsYD2e0SXB89PHLjIvj2xlGJgB8rRwSDHI9guZlCdALbu0HWCylZJPieSJHv2ygHIfBIdbN2y3jvovPWCK4TWfnu1/tUZANmAJe8uyF0yS9LBKtcOXvt9TL7Fo2YUpFumUfWCIYf15G78YcTrFe7VhVtEIyv6NrpmCCWcxDuyrKDP5tguP7UKF93va19gvEowUYV9ztUODpBKMdm72uU/UUGzyXIFPE/kwlS6LnZJvwN6dYKqekESZfjLqxR2RR9HsGjA35y7v1pBGFbuSC4CsrJMlklCOAqDRzqrKdHEayXsbMjfjXSTGtBPYAg8BLJ99tDdZy01NgiCJC8u67DOJTPI1g7Zk6n7wvh0VwTrRCsTcHKPb0GvhgGegRBAO4smiYhOF3NFpv5BIFfHlojVKVGi81cguCVB/vm9QjFncEkziMIbPtweg2aat0HEKw96ccpn4DznrjazCDYxUKeg6DISHJOJghMkcV6GIINZVecSLBRvucXkFbluCpOIghwfZryDfGmDkHPIAjZ8WVaKaJUkUTQEKz0BMHbPGBjD9bv7zFpDYt2WlVkJ/kX2sg14zFN+ej9QxKCYvuVjudlRbjKeq9TRWpJ8xe9QTpHiTAuM16bqNmRIp+Et+0tHV+/LoS12j8rHX60KP2kIgicsvP5jeY3ug9E+QSk/S0caAofnFQOv/yG1lOO6y1ASVG+9aX3woB53j4V8+K0JTvKsdCvItB+woaKGWMcYS48SvDejfgdZH2ibro7LsoNiWJoIY30Esrs+SmXlMEsFhx+oplxmtm0HtrgAHvl2z3MwANLCoLT4B/Q7IzmNjJi1WJBMnzDuLfaAGi01+97lbS1ZRUrfRiDfIUqHU91XYI0Y18NkizTq1RVsu8aLSA1SPq5pAE32QxSapodjaqK1ceuLDcf1ejAsNiVyX6TUqQLCln57mD0vUJrRdW7zpNsxEpv8zJ6EduIHcySN4c0VAhTpHFvIBY9pD9q6PNphr4fH2oQrUwB0Wjq1yLBmuLvXWUsY8G+YZyf9dfluF/N6Hs9KU3OT5WZlDfrCLzUbBLXpIyIQXPlyMv+LSZsxVJDLYq7kMBN5jAg5rSgIl8S7T5Frsj39IdW9CcBDHblQ0IL3UFCj52GpClsLso+iTG94vfQOCbqoV9tiake4CalzgU5u1KrIoViISsRhWGVz4ktaxDSa0YAkvElA+FXm55jW41vkOMB6qvUMdzTk4DgjakiOg+1b6T/FVX5vDZ1aJy8OCqtWuz6ZaV5WKriM0g0c1gRSta669Rejim9lc4vwe7Blcnl4KKOLu1VP4pO9BzrpJBMg/CwNZhESPBdUavOCi81TEdDyf0bv00OHQYnVXUddicvwR4kGhy4/wjTw5ieIof61Znl2wQbE1WUvfda/4QhUsBG/ElAL3Ko6cknEJjicBwJy/fBLkOlCoT3E64bMT4MQmHPWh0QlvhluZXc2loflh8yHLxyobC+wKXyw0J4YEM9DMiPs15bKhv0Vk0cC+mvUTHsx2wE/WNfzQBnMebafyhUC8N26pBcpAbX23xI+rf//sdBYnj7TYG310h3sZ+3j6hFavdynZMg1OVmbIiWG3T7tPhOq/g5ydvHJc0r64T1h8LCpadqwrlPNzVU5CuEO7jK2/tIQB+5fWfVDwkK3lo6/E1HMCbcATJ3efsgIRDshB0SZEOdCQatLbffvI1fnzsNWob56CKgIjh0OPwEJXgeL2cwdIsMsd6ME+zWEoHg0L+NZsygw8KZHUVFupJ/QQevgyefD39joIONeeaGXZiSzNLbNiF0ksD1/uSlDoVueitKMKjpHLZfm+ePF8N83T278RD3gruzIfBjx25ZJLbXAHzabqanhV6be3/en4kQfby9pUL5Abvcl/0DzZIRO4fnwhdT4moMVsucCXPYMhScdXbpv2/K1KTIEGvin4jw3aPa2uANu4qEWoZ6jw6qjVA+cBzI6dO9CcbfbahicKCZaO09uRD88UWG3paL+icIGROMie5qsJ9/OskhoYeeQDoXQdJDMRbR179vRBujMMm81Sa6GNDDm6Zy3evNLsgM+IUU2NDclW+mmzZB7cobxA+OuNKLNUX93yh+Eho0ENUPYzftPW2K8ah30cUmRT28Q9K/O9Ybg94Ttj1PoHigFpx7Y7HJWg/RuiJtusQ/00OjTVuFsYGKpEvU9LyR2CTmSAIfydkEHyZBWW6oialBZJmPJ65kG5OSzvMNkgeGB5RQPOvuwqTS47XAkJiujC/0GLdJrZpPNpjITTfVsEKPE0s+wgM1w+uZdL6qivFEesA/yI8tHtTd0YUh50dMjmDRJ0zuYhqVA9310Cyd3uZHSPJU5EuSomf8Ymglra/wBTN+q2bLslwnQ+m64amxKV+VvMEE8zGktCvaK8ZrvbHKWMpazqDBJB+HcAgLo5cIjhAkllZbRjxWk2BA8Ld+9kglXEFVVRHJ5w6ieihhuQoLfUrd4BXV8uN5NX6F9WmfbLfJ5TRmX/jFsRl53eeEl0JfF2SlGE9fMNIhKvn3gulxtcfQoPGnu7WVcoaDtriEbo4WytN6KCtgkPfcSGCZehIH6XgANlr7tGqOk1OoosnHOPA8MrCEsDUEv0Szc6v0FMXzW2rtHqcYpKj1Zra7pvIFaH0NPuJGwhb/nX+SXhTw9oTcGJqMhY3J9hNKZ+MA6ezZGDU5FCVbJ3lk8xgpWiDvipCZOYTBMFYI3nV8iWprO1H9AKz7TOGS1apIOdHoMDhcrt66TM2HvrMJcCUon2YNx3w1P1eaE6SdqHeeBkzqAvAPpffddZMRys+1tZ2ArKTY54t6E0KIy1dp4rUHRmf5tE4FPyp2n5+bnPJdubHaTlmvAn0NG8kaDKL1oYirwHmvvfYs0AaImTjWZk5b1R6Cary2cwLBZhZJ5eCu0bQUjfpqkwi25eDPOGZlAFpt5zSCyhrUx4HSUjSHYGvdP49iRO5qmE7Qo3Zm2EdY0E8CnEOQ2rxsG2d6V8NMgq0qmrXJz4dBwNkCwdatfOQnUElRPKsEp8UppwJ3ihwTNGvmmwNqJN02QeNcwTSE6HEcjyHY3PnD7Xsavk07JNYSwXbLcHlOV2VQVeKGYPueOmMYTTwA1yrB5kQdR/wqgx4fhwTrq7n5lq3ykyEPJ2ieYCSBUE/9IIJmBQdUzJlA6wRdnHWv+DCwcGdV0RaZICet02xKz+4IVAmZAT9+xLv/yARhW1DsQBcftRk/yh/YLl7hH9QwILgK3pLxeJSDL4bgkvfptT1F8wlSzEEXX+3RE2yi+5phZgTHDXoXM/ihu2OtfJHuOZgSbFwyXcDAxTdfNB+1aY4j7OxDWwSbelw1QxfffFF+1AYY7xn41ggKqfDhKCfffMGPywTIPvqjLBL8KmZARzn55gtqa0stNlYJNlVq2BGWjr5agCXu96LZa5lge6CTdDVH30TxRSsFmBwjsU2wKcMUggjsUxpjCcHA4QUvQ6Kx9gkKBzaC52CL6BDdju6A5pAabLN1QPDraJsOW6fhUT8+cmhPbk7SCh3hhGB931OZcc6z8hd+W3vwg/icng+R6jG6Ibhqak2jKJpWa2oVzgi+ChaCHRaCL4qFYIeF4ItiIdhhIfii+D8lCDJB/KM24MzXswX0/GMsSIS3LrAP5JovhQgliHzzRXF0zKsUwaqBhqawKBiWb4T98/2hMSBZKDwjG8iJKEBqu18Ocgc3ePg5hJHEEByk/eyjugpyK7OVkfoQx5eGeEiOWuzhSMPDDJ6I86C9TtcWeObsFqZjTy7PNkG0ybzvrserPgod5hlvD/7lDy95nYcqPV4ul83xPLrsB4dTnufpE7qe58IPw+d/3nLBggULFizQ418a/PFPU/wHu4xytNFgOv7oX2/1bw3+++c/zPDnf7HLKEebDDbAQIjV3//iWP3tL46F4E/HQvCnYyH407EQ/OlYCP50LAR/OhaCPx0LwZ+OheBPx/8Aensl4WjJBMwAAAAASUVORK5CYII=;clipPath=inset(2.68% 7.59% 12.95% 6.7%);" parent="1" vertex="1">
          <mxGeometry x="1478" y="214.97" width="68.1" height="67.03" as="geometry" />
        </mxCell>
        <mxCell id="uhF2R85Lf4M7UMCj0L2H-27" value="" style="endArrow=classic;html=1;strokeWidth=4;strokeColor=#FF99FF;" parent="1" edge="1">
          <mxGeometry width="50" height="50" relative="1" as="geometry">
            <mxPoint x="1437" y="306" as="sourcePoint" />
            <mxPoint x="1437" y="364" as="targetPoint" />
          </mxGeometry>
        </mxCell>
        <mxCell id="uhF2R85Lf4M7UMCj0L2H-28" value="" style="endArrow=classic;html=1;strokeWidth=4;strokeColor=#FF99FF;entryX=-0.021;entryY=0.44;entryDx=0;entryDy=0;entryPerimeter=0;" parent="1" target="uhF2R85Lf4M7UMCj0L2H-21" edge="1">
          <mxGeometry width="50" height="50" relative="1" as="geometry">
            <mxPoint x="1173" y="219" as="sourcePoint" />
            <mxPoint x="1271" y="259" as="targetPoint" />
          </mxGeometry>
        </mxCell>
        <mxCell id="TR2jtum5qbjMsTTdUoIi-1" value="" style="verticalLabelPosition=bottom;html=1;verticalAlign=top;align=center;strokeColor=#9673a6;fillColor=#e1d5e7;shape=mxgraph.azure.user;" parent="1" vertex="1">
          <mxGeometry x="1735" y="617.5" width="64.47" height="57" as="geometry" />
        </mxCell>
        <mxCell id="TR2jtum5qbjMsTTdUoIi-2" value="" style="shape=image;verticalLabelPosition=bottom;labelBackgroundColor=default;verticalAlign=top;aspect=fixed;imageAspect=0;image=data:image/jpeg,/9j/4AAQSkZJRgABAQAAAQABAAD/2wCEAAoHCA8PDxAPDw8PDw8QEBERERAQEREREBIQGRQZGRgUGBgpIS4lHB4tHxkYJjomLjA0NTo1GiQ7QDs0Py40NTEBDAwMEA8QHhISHzQrJSs0NDE0ND0xNDY2NDQ0NjQ0NDQ0NDQ0NDQ0NDQ0NDQ0NDQ0NDQ0NDQ0NDQ0NDQxNDQ0NP/AABEIAOEA4QMBIgACEQEDEQH/xAAbAAEAAgMBAQAAAAAAAAAAAAAABgcBAwUEAv/EAEkQAAICAQIDBAUHBwkHBQAAAAABAgMRBBIFITEGBxNRFCJBcYEVMkJhcpGxMzWEobKzwTQ2UlRzk8LD4iNkdJKi0dIWJCVTYv/EABkBAQADAQEAAAAAAAAAAAAAAAABAgMEBf/EACwRAAICAQMBBwQDAQEAAAAAAAABAhEDEiExUQQTIjJBYXFCgaGxkcHR8BT/2gAMAwEAAhEDEQA/ALmAAAAAAAAAAAAAAAAAAAAAAAAAAAAAAAAAAAAAAAAAAAAAAAAAAAAAAAAAAAAAAAAAAAAAAAAAAAAAAAAAAAAAAAAAABgyAAYMgAAAAAAAAAAAAAGuFkZfNlF464aZi66EFmcoxWcZk1FZ8sgG0HAnr6/lCD8eHh+jyTe9bN+/34zg7NF8LE3CUZpPDcZKST8iWqITs3A1W2xgsylGK6ZlJRWTYQSZAAAAAAAAAAAAAAAAAABgyAAAAAAAAAAAAAAa7Yboyim4tppSXVNrqjk/I139dv8A+r/yKSnKLWmN/dL9l4Ri71Sr7P8Ao1dlPyV39t/BHZv08LI7bIRnHOcSSayRfgegnbCbjqLKts8NRziTx1fM72g0U6nJyvnduUUlL2Yz05/WcvYpS7qC07dbXv6c/g6e2Rj3knq36UzmT4dR8oQiqIeG9NKTjsWzfv6+WcHc0+mrqTVcIQTeWoxUU35mPSa9/h74eJ/Q3Ld0z093M8XGeG2anZ4eps02zdnw/pZx15rpj9Z3KWr1OHTp9Dj94X8lr/tv8EiVVfNj9lfgV/2p4Tbp6YTs1dupUp7VCe7Ce1vd85+X6zsx7NalpP5S1Cyly9bly+2XaWlbmak9b26f2SoGjTVOFcISk5uEIxcpdZNLDk/ebzM2AAAAAAAAAAAAAMAAyAAADBkAAAAAAAAAA8vEdV4FNl23dsju25xn4m2me6EZYxuipY8srJH+N1a1ae9ztpdW2WYxg1LZnks+Z7OH1a1KpzupdW2OYKtqW3b0z5lq9Smp3VH3wPQ2UQsVm3Mp5W155YwdYEWs0vF90ttyUdz2+tD5ueXsObbBBRjFte2/+HWk88nKUkn77f6fM/z3H3f5DJWV86dZ6coOa9LxylmOMbG+uMfN+o68dLxfKzdHGVn1odPuObBmcdfgk7k3sl7bc8nX2jApaPHFVFLdv33W3B6+1nC7dXRCunbujZue6W1Y2yX8TpcQ1L0+mttUVKVVUp7W8JuMc4ye0hvaDT8V8HVSd+nem22PZs/2nhc+WcdcHprekeVVNskXBNe9VpatRKKg7ItuKeUsNrr8DoEF7N6fistLp5UajTx0+HthOGZqO95TePeToicUnsSgACpIAAAAABgyAAYBkAAAAAAAAAAAAAAAAHm1umjfVOqTajOO1tdcfUbaoKMYxXSKUVnrhLB8alzVc3Wk7FCTin0csPan8SLen9oP6lpP+f8A1kOVGuLC8ltNL5dDu/4hfqatTK+2dko34i59Yx29ETAqvsZqeJQrvWiopti7U7HbLG2W1cl6y5YJxwLUcQnKz06iqlJR8Pw3lt5lnPrP6vvKY5bJHZ2/BpyzmnGulq/4/wC2PBP89R93+QyVnnepqVqqc4eM47lDK3uPnjrg5PaXUcTrVXydRVdnd4niPG1ctuPWX1jDh0uSvzNvpycefNrUduEl/ByO8/ieo0mjqnprp0zlftco4y4+HN4+9IlGq0y1GnnTJuKtqcHJYbW6OGyqu3up4tZpq1xHTUU1K3MJVyTk57Jcn6z5YySeviHaTbHbodI1tWPXXTHL6Z2PH4I7r19V7HKp+J8+np8kt4ToI6XT16eMnKNaaUpJJvLb/ie48ugdrpqlfGMbnXB2RjzUbHFbkvqzk9Rzvk1AAAAAAAAAAAAMAyAAAAAAAAAAAAAAAAAYZkAEJ7tqZ106pThODeoylKLjlbeqySXi/F6NFCNl7lGMpbFti5Pdhv8AgdE+JQjLk0n70mRFJKjbtGbvskslVZXlnaPSvi0NYpT8CNDrb2y3bsS+j8UTThHGKNbGctPKUlCSjLMXHm1k49ugm+NV2eC/AWmcXPZ6m7EuTfTPQk8YRj0ilnySRrNqlXQwVkF72qLLNDSq4Tsa1GWoRlJ48OfPCJzT82P2Y/gbAQ5XFR6X+SFGm31AAKFgAAAAAAAADBkAAwAADIAAMGQAAAAAAAAAYAMg+VJPo0/cfQAAAABBl20u+WPk3wKvD9IdXibpb8bN2cdMk5LSg41fqVjJS4AAKlgAAAAAAAAAAAAAADAMgAHB7aau3T8N1N1M3XZGMHGaxlZsinj4NnTlr9Om1K+mLTaadkE0/JrJHe3muolwrVxhdVOThDEY2QlJ/wC0h0WS8F4l8lZeVmnu14nqNXo7rNRbK6UdTKEZTxlR2QeOS82/vJmV33U6qqvQ3qdtcG9VJpSnGLa8OHPDZOPlLTf1ij+8h/3JzKskqIxvwKz2A+U880czj/G6OH0O/USeM7YwjznOfVRivgUSbdIs3W7OqCp7O83Wzm/R9HVtX0X4lksfW1jBr1nehq8R8PTUwlGMvEU980555OPNNLHsZv8A+bJ0/Jn30C3DTq/yc/sS/ZZ9VScoxb6uKbx5tHzqPyc/sS/BnOalU90Em9XqMtv/ANsurb+nEtwoDsl2inwydlkKVdOypVxjJuKT3J55LL6dCT195uthNekaOra/orxK5Y+pvOTtz4Zzm5L9nNiyRjBJlsA5fAeN6fiFCvok2s7ZQlylCeOcZL4nUONpp0zpTspyH86v0x/u2XGU5H+dX6Y/2GXGb9o+n4Rli+r5YB4+I6+rS0zvvmoV1rdJvn8Eva30SK41neffKbjpNJFx9niOU5yXntj0+9mcMUp+VFpTjHktMFe9nu8eF1saNZStPObUY2Qbde59FJPnH38ywiJwlB1JExkpK0Aa7bIwjKUmowinKUm8JJLLbZW3F+87FjhodOrIp4Vlu7135xguePf9whjlPyoSmo8lmgqeXeZrYQlGekrha0nCTVkY9ee6D5vl5MmnYjjd3ENI9RfGEZq6cMVpqO1KLXVvzLTwzgrZEckZOkSQHk4lqfB091ySk6qrLEnyTcYt4f3EZ7EdrbOKS1EbKIU+DGuScJuW7c5rnlf/AJ/WUUG4uS4RZySdExBzO0HEHo9HfqYxU5U1uag20pPK5ZOV2J7Sz4pVdOdUKnVNQShKUk045zzQ0Nx1eg1K6JQDnfK8P/ru/u2CNLFohPFO7P0nUX6j0xQ8a6y3b4G7bvk5Yzv59Ticf7vPQdJdqvS1Z4Si9ip2bsyjHrveOpcRG+8H806v7Nf72Bvjz5LUb22RlLFCm6K17J9iflSid/pKp2Wura6t+cRjLOdy/pfqO5LunbTXp65/7v8A6zqd0f8AIL/+Kl+7rJ8WyZ8kZtJkQxQcU2v2a6obYRjnO2KjnzwsFR96+qlZr6dPn1K6IuK9m+cnl/dGJcBVfe1wiasp10Itw2qmyS+hJSbhJ+SeWs+aXmU7NXeKy2byFhcD4TTotPCimEUoxW6WFunPHrSk/a2yr+9yqMNbU4wjFz026TjFJylvksvzeEiVcA7wNDbRBaqz0e+MVGalGThKSWHKLS6PrghPeTxbT67VVz01ishDT7JSUZRW/dJ45rnyaNOzwmstyRXLKLx7F06f5kfsx/Axqvyc/sS/ZZ9Ur1I/ZX4C75svsy/A5DcqTuhhGWrvcoxbjp04tpPD3x5ryLM45winXaedFsE90XslhboTx6sov2NMqXu34zptDqbZ6mzw4TpUIy2ykt29PnhcuSJp2g7wNFXROOls8fUSi4w2xkoRk1hSk2l064R154Tea4owxSise5Ge6bVShrrqM+pZRKTXs3wmsP7pSLeKt7peET33a6cWq9rpqb+m3JOcl5pbUs+bfkWkZ9paeR0Ww+Qp2P8AOr9Mf7DLjKcj/Or9Mf7DLiJ7R9Pwhi+r5ZWne/rJKOk06bUZuy2a83HbGOf+ZnJ7Ldr9Jw7TxrhoLZWvnbduhunL6uWVHyRIu9bhE7tPVqq05ejOasS5tVTxmXuTis/U35GnsZ230i0ten1k1TbTBVqcotwnCKwnlLk8cnnyNI08K2vffco9sj3oiHbLjlPEp121aSdFkFKNknte+LxtzhdV633ludlNVO/h2jssy5y08FJvq5JbXJ+/GTm63t3wmqLkr1c0uUaoSm38cYX3kmpmpQjJLClGMkvJNZMssrgo6aLwXibuyK952qlVwucYNp3WV1Nr+i3mS+Kjj4nL7quD0rSy1soxldZZOMJSSbhCD24j5Ny3PPuJB264VPW8OuqrTlbFxtriuspQeXFfW1uS+togvd/2wp0Ndmk1e6FfiSlXYk3sk8KUJx6rms/FloJywNR5siTSyJvoS7vMphLhds5Ri5QlVsk0sxbsinh+zkaO6lf/ABjfnqbfwic/t52o0Gp4fZRp9RG22cq2oxjP6M03l4wuSOj3Vfmz9Jt/whprBv1Fp5fsSTj/APIdX/wt/wC7ZXnc3+U132NN+NpZPE6Hbp76o9bKbIL3yg0vxKl7t+LU6DVamrVy8DxYwhunyjGyuUswk/Z858/qIxK8U0vb9ie04v5LG7c/mrW/2EvxRGe5/wDk+r/t4fsHs7edpdF6Bfp6767rb4KEY1zUsJtZcmuixk1902knDQ22zi4q+7MM/ShGKjuX1Zz9wSawO+obTyquhPQAc5sDn8Z4ZDW6azTWSlGFqSk4YUuUlLllP2o6AJTa3Q5ON2c4BTw2mdNM7JxnY7G7HFy3OMY45JcvVR2QA227ZCSWyBrtrjOMoTipRkmpRkk4teTRsBBJD9X3d8Lsk5RhbTn6NVjUfgmngzpe7vhdclKVdl2PZbY3H7lgl4NO9ycamU0R6GEscjDWVh+0+gZlyIavu84XY90a7Kfqqsaj9zyjGk7u+F1NSddt2Po22OUfiklkmANO9ycamU0R6GuqqMIqEIqMYpKMYpKKS9iXsPsyDMuVJHQ3/wDqbxfAu8P0ty8Tw57NvhvnuxjBbYBpkya69lRWMdNny0msPmnyaZE+I933DNRJzVdlEnzfgTUY589rTS+BLgVjKUfK6JcU+SF6Pu34bXJSmrr8fRsmtj96SWSYwiopJLCSSSXsS9h9gSnKXmYUVHhGCPcY7H8P1snZbTttl86ypuucvtexv3okQIUnF2g0nyQqvu14ZF5fpM15StSX6kiT8L4ZRo6lTp61XWm3tTbzJ9W2+rPcCZTlLZshRiuEDgca7JaDXS3304tfWyuTrm/e11+J3wQpOLtEtJ8kQ0nd3wuqSk67Lcc8W2OUfiljJK4VxjFRjFKMUkopJJJdEkbATKUpcsKKXBgGQVJAAAAAAAAAAAAAAAAAAAAAAAAAAAAAAAAAAAAAAAAAAAAAAAAAAAAAAAAAAAAAAAAAAAAAAAAAAAAAAAAAAAAAAAAAAAAAAAAAAAAAAAAAAAAAAAAAAAAAAAAAAAAAAAAAAAAAAAAAAAAAAAAAAAAAAAAAAAAAAAAAAAAAAAAAAAAAAAAAAAAP/9k=;imageBorder=#FFFFFF;" parent="1" vertex="1">
          <mxGeometry x="1716" y="506.52" width="104.98" height="104.98" as="geometry" />
        </mxCell>
        <mxCell id="TR2jtum5qbjMsTTdUoIi-3" value="&lt;h2&gt;&lt;font color=&quot;#ffccff&quot; style=&quot;font-size: 20px;&quot;&gt;Publish&lt;/font&gt;&lt;/h2&gt;" style="text;html=1;strokeColor=none;fillColor=none;align=center;verticalAlign=middle;whiteSpace=wrap;rounded=0;" parent="1" vertex="1">
          <mxGeometry x="1701" y="471.5" width="131.5" height="30" as="geometry" />
        </mxCell>
        <mxCell id="TR2jtum5qbjMsTTdUoIi-4" value="" style="endArrow=classic;html=1;strokeColor=#CCFF99;strokeWidth=4;rounded=0;exitX=1;exitY=0.5;exitDx=0;exitDy=0;entryX=0;entryY=0.5;entryDx=0;entryDy=0;" parent="1" edge="1">
          <mxGeometry width="50" height="50" relative="1" as="geometry">
            <mxPoint x="1624" y="579" as="sourcePoint" />
            <mxPoint x="1707" y="579" as="targetPoint" />
          </mxGeometry>
        </mxCell>
      </root>
    </mxGraphModel>
  </diagram>
</mxfile>
